G75*
G70*
%OFA0B0*%
%FSLAX24Y24*%
%IPPOS*%
%LPD*%
%ADD10C,0*%
%ADD11C,0.1*%
%ADD12C,0.1X0.05*%
%ADD13C,0.1X0.05X0.02*%
%ADD14R,0.1X0.2*%
%ADD15R,0.1X0.2X0.05*%
%ADD16R,0.1X0.2X0.05X0.02*%
%ADD17O,0.1X0.2*%
%ADD18O,0.1X0.2X0.05*%
%ADD19O,0.1X0.2X0.05X0.02*%
%ADD20P,0.1X3*%
%ADD21P,0.1X3X20*%
%ADD22P,0.1X3X0X0.05*%
%ADD23P,0.1X3X0X0.05X0.02*%
%ADD24P,0.1X3X20X0.05X0.02*%
%ADD25P,0.1X4X20*%
%ADD26P,0.1X5X20*%
%ADD27P,0.1X6X20*%
%ADD28P,0.1X7X20*%
%AMM29*0 a comment*ADD29M29*%
%AMM30*1,1,0.1,0,0*ADD30M30*%
%AMM31*1,1,0.1,0.02,0.05*ADD31M31*%
%AMM32*2,1,0.01,0,0,0.05,0.1,0*ADD32M32*%
%AMM33*2,1,0.01,0,0,0.05,0.1,90*ADD33M33*%
%AMM34*20,1,0.01,0,0,0.05,0.1,0*ADD34M34*%
%AMM35*20,1,0.01,0,0,0.05,0.1,20*ADD35M35*%
%AMM36*21,1,0.1,0.01,0,0,0*ADD36M36*%
%AMM37*21,1,0.1,0.01,0.02,0.05,0*ADD37M37*%
%AMM38*21,1,0.1,0.01,0,0,20*ADD38M38*%
%AMM39*21,1,0.1,0.01,0.05,0.02,20*ADD39M39*%
%AMM40*22,1,0.1,0.01,0,0,0*ADD40M40*%
%AMM41*22,1,0.1,0.01,0.02,0.05,0*ADD41M41*%
%AMM42*22,1,0.1,0.01,0,0,20*ADD42M42*%
%AMM43*22,1,0.1,0.01,0.02,0.05,20*ADD43M43*%
%AMM44*4,1,4,0.00,0.01,0.04,0.06,0.07,0.04,0.06,0.00,0.00,0.01,0*ADD44M44*%
%AMM45*4,1,4,0.00,0.01,0.04,0.06,0.07,0.04,0.06,0.00,0.00,0.01,90*ADD45M45*%
%AMM46*5,1,3,0,0,0.1,0*ADD46M46*%
%AMM47*5,1,3,0.02,0.05,0.1,0*ADD47M47*%
%AMM48*5,1,3,0,0,0.1,20*ADD48M48*%
%AMM49*5,1,4,0,0,0.1,0*ADD49M49*%
%AMM50*5,1,5,0,0,0.1,0*ADD50M50*%
%AMM51*5,1,6,0,0,0.1,0*ADD51M51*%
%AMM52*5,1,7,0,0,0.1,0*ADD52M52*%
%AMM53*6,0,0,0.1,0.005,0.005,1,0.01,0.12,0*ADD53M53*%
%AMM54*6,0,0,0.1,0.005,0.005,2,0.01,0.12,0*ADD54M54*%
%AMM55*6,0,0,0.1,0.005,0.005,3,0.01,0.12,0*ADD55M55*%
%AMM56*6,0.02,0.05,0.1,0.01,0.015,2,0.01,0.12,0*ADD56M56*%
%AMM57*6,0,0,0.1,0.01,0.015,2,0.004,0.12,20*ADD57M57*%
%AMM58*6,0,0,0.1,0.06,0.015,10,0.01,0.12,0*ADD58M58*%
%AMM59*6,0,0,0.1,0.01,0.06,10,0.01,0.12,0*ADD59M59*%
%AMM60*7,0,0,0.1,0.075,0.04,0*ADD60M60*%
%AMM61*7,0.02,0.05,0.1,0.075,0.04,0*ADD61M61*%
%AMM62*7,0,0,0.1,0.075,0.04,20*ADD62M62*%
%AMM63*
0 a complex macro:*
$OD=0.2*
$ID=$ODx0.75*
$ANGLE=20*
0 an offset circle*
1,1,0.2,0.3,0*
0 an offset moire*
6,0.15,0.15,$OD,0.01,0.015,2,0.02,0.22,0*
0 an offset thermal*
7,0.15,-0.15,$OD,$ID,0.08,0*
0 a rotated thermal*
7,0,0,$OD,$ID,0.08,$ANGLE*
0 a rotated moire*
6,0,0,0.1,0.005,0.015,2,0.02,$OD x 1.1,$ANGLE*
0 a polygon hole covering the other primitives*
5,0,8,0.15,0,$OD,0*
ADD63M63*%
D10*X02000Y05000D03*
D11*X04000Y05000D03*
D12*X06000Y05000D03*
D13*X08000Y05000D03*
D14*X10000Y05000D03*
D15*X12000Y05000D03*
D16*X14000Y05000D03*
D17*X16000Y05000D03*
D18*X18000Y05000D03*
D19*X20000Y05000D03*
D20*X22000Y05000D03*
D21*X24000Y05000D03*
D22*X26000Y05000D03*
D23*X28000Y05000D03*
D24*X30000Y05000D03*
D25*X32000Y05000D03*
D26*X34000Y05000D03*
D27*X36000Y05000D03*
D28*X38000Y05000D03*
D29*X40000Y05000D03*
D30*X42000Y05000D03*
D31*X44000Y05000D03*
D32*X46000Y05000D03*
D33*X48000Y05000D03*
D34*X02000Y10000D03*
D35*X04000Y10000D03*
D36*X06000Y10000D03*
D37*X08000Y10000D03*
D38*X10000Y10000D03*
D39*X12000Y10000D03*
D40*X14000Y10000D03*
D41*X16000Y10000D03*
D42*X18000Y10000D03*
D43*X20000Y10000D03*
D44*X22000Y10000D03*
D45*X24000Y10000D03*
D46*X26000Y10000D03*
D47*X28000Y10000D03*
D48*X30000Y10000D03*
D49*X32000Y10000D03*
D50*X34000Y10000D03*
D51*X36000Y10000D03*
D52*X38000Y10000D03*
D53*X40000Y10000D03*
D54*X42000Y10000D03*
D55*X44000Y10000D03*
D56*X46000Y10000D03*
D57*X48000Y10000D03*
D58*X02000Y15000D03*
D59*X04000Y15000D03*
D60*X06000Y15000D03*
D61*X08000Y15000D03*
D62*X10000Y15000D03*
D10*X12000Y15000D03*
D10*X14000Y15000D03*
D10*X16000Y15000D03*
D10*X18000Y15000D03*
D63*X20000Y15000D03*
D10*X22000Y15000D03*
D10*X24000Y15000D03*
D10*X26000Y15000D03*
D10*X28000Y15000D03*
D10*X30000Y15000D03*
D10*X32000Y15000D03*
D10*X34000Y15000D03*
D10*X36000Y15000D03*
D10*X38000Y15000D03*
D10*X40000Y15000D03*
D10*X42000Y15000D03*
D10*X44000Y15000D03*
D10*X46000Y15000D03*
D10*X48000Y15000D03*
M02*
