G75*
G70*
%OFA0B0*%
%FSLAX22Y22*%
%IPPOS*%
%LPD*%
%ADD10R,0.1X0.1*%
D10*
X0005Y0005D03*
X0015Y0015D03*
X0025Y0005D03*
X0035Y0015D03*
X0045Y0005D03*
X0055Y0015D03*
X0065Y0005D03*
X0075Y0015D03*
X0085Y0005D03*
X0095Y0015D03*
X0105Y0005D03*
X0115Y0015D03*
X0125Y0005D03*
X0135Y0015D03*
X0145Y0005D03*
X0155Y0015D03*
X0165Y0005D03*
X0175Y0015D03*
X0185Y0005D03*
X0195Y0015D03*
X0205Y0005D03*
X0215Y0015D03*
X0225Y0005D03*
X0235Y0015D03*
X0245Y0005D03*
X0255Y0015D03*
X0265Y0005D03*
X0275Y0015D03*
X0285Y0005D03*
X0295Y0015D03*
X0005Y0025D03*
X0015Y0035D03*
X0025Y0025D03*
X0035Y0035D03*
X0045Y0025D03*
X0055Y0035D03*
X0065Y0025D03*
X0075Y0035D03*
X0085Y0025D03*
X0095Y0035D03*
X0105Y0025D03*
X0115Y0035D03*
X0125Y0025D03*
X0135Y0035D03*
X0145Y0025D03*
X0155Y0035D03*
X0165Y0025D03*
X0175Y0035D03*
X0185Y0025D03*
X0195Y0035D03*
X0205Y0025D03*
X0215Y0035D03*
X0225Y0025D03*
X0235Y0035D03*
X0245Y0025D03*
X0255Y0035D03*
X0265Y0025D03*
X0275Y0035D03*
X0285Y0025D03*
X0295Y0035D03*
X0005Y0045D03*
X0015Y0055D03*
X0025Y0045D03*
X0035Y0055D03*
X0045Y0045D03*
X0055Y0055D03*
X0065Y0045D03*
X0075Y0055D03*
X0085Y0045D03*
X0095Y0055D03*
X0105Y0045D03*
X0115Y0055D03*
X0125Y0045D03*
X0135Y0055D03*
X0145Y0045D03*
X0155Y0055D03*
X0165Y0045D03*
X0175Y0055D03*
X0185Y0045D03*
X0195Y0055D03*
X0205Y0045D03*
X0215Y0055D03*
X0225Y0045D03*
X0235Y0055D03*
X0245Y0045D03*
X0255Y0055D03*
X0265Y0045D03*
X0275Y0055D03*
X0285Y0045D03*
X0295Y0055D03*
X0005Y0065D03*
X0015Y0075D03*
X0025Y0065D03*
X0035Y0075D03*
X0045Y0065D03*
X0055Y0075D03*
X0065Y0065D03*
X0075Y0075D03*
X0085Y0065D03*
X0095Y0075D03*
X0105Y0065D03*
X0115Y0075D03*
X0125Y0065D03*
X0135Y0075D03*
X0145Y0065D03*
X0155Y0075D03*
X0165Y0065D03*
X0175Y0075D03*
X0185Y0065D03*
X0195Y0075D03*
X0205Y0065D03*
X0215Y0075D03*
X0225Y0065D03*
X0235Y0075D03*
X0245Y0065D03*
X0255Y0075D03*
X0265Y0065D03*
X0275Y0075D03*
X0285Y0065D03*
X0295Y0075D03*
X0005Y0085D03*
X0015Y0095D03*
X0025Y0085D03*
X0035Y0095D03*
X0045Y0085D03*
X0055Y0095D03*
X0065Y0085D03*
X0075Y0095D03*
X0085Y0085D03*
X0095Y0095D03*
X0105Y0085D03*
X0115Y0095D03*
X0125Y0085D03*
X0135Y0095D03*
X0145Y0085D03*
X0155Y0095D03*
X0165Y0085D03*
X0175Y0095D03*
X0185Y0085D03*
X0195Y0095D03*
X0205Y0085D03*
X0215Y0095D03*
X0225Y0085D03*
X0235Y0095D03*
X0245Y0085D03*
X0255Y0095D03*
X0265Y0085D03*
X0275Y0095D03*
X0285Y0085D03*
X0295Y0095D03*
X0005Y0105D03*
X0015Y0115D03*
X0025Y0105D03*
X0035Y0115D03*
X0045Y0105D03*
X0055Y0115D03*
X0065Y0105D03*
X0075Y0115D03*
X0085Y0105D03*
X0095Y0115D03*
X0105Y0105D03*
X0115Y0115D03*
X0125Y0105D03*
X0135Y0115D03*
X0145Y0105D03*
X0155Y0115D03*
X0165Y0105D03*
X0175Y0115D03*
X0185Y0105D03*
X0195Y0115D03*
X0205Y0105D03*
X0215Y0115D03*
X0225Y0105D03*
X0235Y0115D03*
X0245Y0105D03*
X0255Y0115D03*
X0265Y0105D03*
X0275Y0115D03*
X0285Y0105D03*
X0295Y0115D03*
X0005Y0125D03*
X0015Y0135D03*
X0025Y0125D03*
X0035Y0135D03*
X0045Y0125D03*
X0055Y0135D03*
X0065Y0125D03*
X0075Y0135D03*
X0085Y0125D03*
X0095Y0135D03*
X0105Y0125D03*
X0115Y0135D03*
X0125Y0125D03*
X0135Y0135D03*
X0145Y0125D03*
X0155Y0135D03*
X0165Y0125D03*
X0175Y0135D03*
X0185Y0125D03*
X0195Y0135D03*
X0205Y0125D03*
X0215Y0135D03*
X0225Y0125D03*
X0235Y0135D03*
X0245Y0125D03*
X0255Y0135D03*
X0265Y0125D03*
X0275Y0135D03*
X0285Y0125D03*
X0295Y0135D03*
X0005Y0145D03*
X0015Y0155D03*
X0025Y0145D03*
X0035Y0155D03*
X0045Y0145D03*
X0055Y0155D03*
X0065Y0145D03*
X0075Y0155D03*
X0085Y0145D03*
X0095Y0155D03*
X0105Y0145D03*
X0115Y0155D03*
X0125Y0145D03*
X0135Y0155D03*
X0145Y0145D03*
X0155Y0155D03*
X0165Y0145D03*
X0175Y0155D03*
X0185Y0145D03*
X0195Y0155D03*
X0205Y0145D03*
X0215Y0155D03*
X0225Y0145D03*
X0235Y0155D03*
X0245Y0145D03*
X0255Y0155D03*
X0265Y0145D03*
X0275Y0155D03*
X0285Y0145D03*
X0295Y0155D03*
X0005Y0165D03*
X0015Y0175D03*
X0025Y0165D03*
X0035Y0175D03*
X0045Y0165D03*
X0055Y0175D03*
X0065Y0165D03*
X0075Y0175D03*
X0085Y0165D03*
X0095Y0175D03*
X0105Y0165D03*
X0115Y0175D03*
X0125Y0165D03*
X0135Y0175D03*
X0145Y0165D03*
X0155Y0175D03*
X0165Y0165D03*
X0175Y0175D03*
X0185Y0165D03*
X0195Y0175D03*
X0205Y0165D03*
X0215Y0175D03*
X0225Y0165D03*
X0235Y0175D03*
X0245Y0165D03*
X0255Y0175D03*
X0265Y0165D03*
X0275Y0175D03*
X0285Y0165D03*
X0295Y0175D03*
X0005Y0185D03*
X0015Y0195D03*
X0025Y0185D03*
X0035Y0195D03*
X0045Y0185D03*
X0055Y0195D03*
X0065Y0185D03*
X0075Y0195D03*
X0085Y0185D03*
X0095Y0195D03*
X0105Y0185D03*
X0115Y0195D03*
X0125Y0185D03*
X0135Y0195D03*
X0145Y0185D03*
X0155Y0195D03*
X0165Y0185D03*
X0175Y0195D03*
X0185Y0185D03*
X0195Y0195D03*
X0205Y0185D03*
X0215Y0195D03*
X0225Y0185D03*
X0235Y0195D03*
X0245Y0185D03*
X0255Y0195D03*
X0265Y0185D03*
X0275Y0195D03*
X0285Y0185D03*
X0295Y0195D03*
X0005Y0205D03*
X0015Y0215D03*
X0025Y0205D03*
X0035Y0215D03*
X0045Y0205D03*
X0055Y0215D03*
X0065Y0205D03*
X0075Y0215D03*
X0085Y0205D03*
X0095Y0215D03*
X0105Y0205D03*
X0115Y0215D03*
X0125Y0205D03*
X0135Y0215D03*
X0145Y0205D03*
X0155Y0215D03*
X0165Y0205D03*
X0175Y0215D03*
X0185Y0205D03*
X0195Y0215D03*
X0205Y0205D03*
X0215Y0215D03*
X0225Y0205D03*
X0235Y0215D03*
X0245Y0205D03*
X0255Y0215D03*
X0265Y0205D03*
X0275Y0215D03*
X0285Y0205D03*
X0295Y0215D03*
X0005Y0225D03*
X0015Y0235D03*
X0025Y0225D03*
X0035Y0235D03*
X0045Y0225D03*
X0055Y0235D03*
X0065Y0225D03*
X0075Y0235D03*
X0085Y0225D03*
X0095Y0235D03*
X0105Y0225D03*
X0115Y0235D03*
X0125Y0225D03*
X0135Y0235D03*
X0145Y0225D03*
X0155Y0235D03*
X0165Y0225D03*
X0175Y0235D03*
X0185Y0225D03*
X0195Y0235D03*
X0205Y0225D03*
X0215Y0235D03*
X0225Y0225D03*
X0235Y0235D03*
X0245Y0225D03*
X0255Y0235D03*
X0265Y0225D03*
X0275Y0235D03*
X0285Y0225D03*
X0295Y0235D03*
X0005Y0245D03*
X0015Y0255D03*
X0025Y0245D03*
X0035Y0255D03*
X0045Y0245D03*
X0055Y0255D03*
X0065Y0245D03*
X0075Y0255D03*
X0085Y0245D03*
X0095Y0255D03*
X0105Y0245D03*
X0115Y0255D03*
X0125Y0245D03*
X0135Y0255D03*
X0145Y0245D03*
X0155Y0255D03*
X0165Y0245D03*
X0175Y0255D03*
X0185Y0245D03*
X0195Y0255D03*
X0205Y0245D03*
X0215Y0255D03*
X0225Y0245D03*
X0235Y0255D03*
X0245Y0245D03*
X0255Y0255D03*
X0265Y0245D03*
X0275Y0255D03*
X0285Y0245D03*
X0295Y0255D03*
X0005Y0265D03*
X0015Y0275D03*
X0025Y0265D03*
X0035Y0275D03*
X0045Y0265D03*
X0055Y0275D03*
X0065Y0265D03*
X0075Y0275D03*
X0085Y0265D03*
X0095Y0275D03*
X0105Y0265D03*
X0115Y0275D03*
X0125Y0265D03*
X0135Y0275D03*
X0145Y0265D03*
X0155Y0275D03*
X0165Y0265D03*
X0175Y0275D03*
X0185Y0265D03*
X0195Y0275D03*
X0205Y0265D03*
X0215Y0275D03*
X0225Y0265D03*
X0235Y0275D03*
X0245Y0265D03*
X0255Y0275D03*
X0265Y0265D03*
X0275Y0275D03*
X0285Y0265D03*
X0295Y0275D03*
X0005Y0285D03*
X0015Y0295D03*
X0025Y0285D03*
X0035Y0295D03*
X0045Y0285D03*
X0055Y0295D03*
X0065Y0285D03*
X0075Y0295D03*
X0085Y0285D03*
X0095Y0295D03*
X0105Y0285D03*
X0115Y0295D03*
X0125Y0285D03*
X0135Y0295D03*
X0145Y0285D03*
X0155Y0295D03*
X0165Y0285D03*
X0175Y0295D03*
X0185Y0285D03*
X0195Y0295D03*
X0205Y0285D03*
X0215Y0295D03*
X0225Y0285D03*
X0235Y0295D03*
X0245Y0285D03*
X0255Y0295D03*
X0265Y0285D03*
X0275Y0295D03*
X0285Y0285D03*
X0295Y0295D03*
M02*
