G75*
%MOIN*%
%OFA0B0*%
%FSLAX24Y24*%
%IPPOS*%
%LPD*%
%AMOC8*
5,1,8,0,0,1.08239X$1,22.5*
%
%ADD10C,0.0000*%
%ADD11C,0.0060*%
%ADD12C,0.0039*%
D10*
X-003150Y-001181D02*
X003150Y-001181D01*
X003150Y001181D01*
X-003150Y001181D01*
X-003150Y-001181D01*
D11*
X-001722Y-000828D02*
X-001683Y-000868D01*
X-001604Y-000868D01*
X-001565Y-000828D01*
X-001565Y-000750D01*
X-001643Y-000750D01*
X-001565Y-000671D02*
X-001604Y-000632D01*
X-001683Y-000632D01*
X-001722Y-000671D01*
X-001722Y-000828D01*
X-001450Y-000868D02*
X-001450Y-000632D01*
X-001293Y-000868D01*
X-001293Y-000632D01*
X-001178Y-000632D02*
X-001060Y-000632D01*
X-001021Y-000671D01*
X-001021Y-000828D01*
X-001060Y-000868D01*
X-001178Y-000868D01*
X-001178Y-000632D01*
X-000906Y-000711D02*
X-000828Y-000632D01*
X-000828Y-000868D01*
X-000906Y-000868D02*
X-000749Y-000868D01*
X-001693Y-000203D02*
X-001733Y-000242D01*
X-001890Y-000242D01*
X-001929Y-000203D01*
X-001929Y-000124D01*
X-001890Y-000085D01*
X-001850Y000030D02*
X-001929Y000108D01*
X-001693Y000108D01*
X-001693Y000030D02*
X-001693Y000187D01*
X-001733Y-000085D02*
X-001693Y-000124D01*
X-001693Y-000203D01*
X-001643Y000632D02*
X-001565Y000711D01*
X-001565Y000868D01*
X-001450Y000868D02*
X-001372Y000868D01*
X-001411Y000868D02*
X-001411Y000632D01*
X-001450Y000632D02*
X-001372Y000632D01*
X-001269Y000632D02*
X-001269Y000868D01*
X-001112Y000632D01*
X-001112Y000868D01*
X-001643Y000632D02*
X-001722Y000711D01*
X-001722Y000868D01*
X-000514Y000935D02*
X-000514Y000778D01*
X-000435Y000699D01*
X-000357Y000778D01*
X-000357Y000935D01*
X-000242Y000935D02*
X-000124Y000935D01*
X-000085Y000896D01*
X-000085Y000817D01*
X-000124Y000778D01*
X-000242Y000778D01*
X-000163Y000778D02*
X-000085Y000699D01*
X-000242Y000699D02*
X-000242Y000935D01*
X000030Y000935D02*
X000030Y000699D01*
X000187Y000699D01*
X000302Y000739D02*
X000341Y000699D01*
X000420Y000699D01*
X000459Y000739D01*
X000459Y000817D01*
X000380Y000817D01*
X000302Y000739D02*
X000302Y000896D01*
X000341Y000935D01*
X000420Y000935D01*
X000459Y000896D01*
X000187Y000935D02*
X000030Y000935D01*
X000030Y000817D02*
X000108Y000817D01*
X000749Y000632D02*
X000906Y000632D01*
X000828Y000632D02*
X000828Y000868D01*
X001021Y000828D02*
X001021Y000632D01*
X001178Y000632D02*
X001178Y000828D01*
X001139Y000868D01*
X001060Y000868D01*
X001021Y000828D01*
X001293Y000828D02*
X001293Y000671D01*
X001332Y000632D01*
X001411Y000632D01*
X001450Y000671D01*
X001450Y000828D01*
X001411Y000868D01*
X001332Y000868D01*
X001293Y000828D01*
X001565Y000789D02*
X001565Y000632D01*
X001722Y000632D02*
X001722Y000789D01*
X001643Y000868D01*
X001565Y000789D01*
X001733Y000242D02*
X001693Y000203D01*
X001693Y000124D01*
X001733Y000085D01*
X001693Y-000030D02*
X001850Y-000187D01*
X001890Y-000187D01*
X001929Y-000148D01*
X001929Y-000069D01*
X001890Y-000030D01*
X001890Y000085D02*
X001929Y000124D01*
X001929Y000203D01*
X001890Y000242D01*
X001733Y000242D01*
X001693Y-000030D02*
X001693Y-000187D01*
X001683Y-000632D02*
X001604Y-000632D01*
X001565Y-000672D01*
X001565Y-000750D01*
X001643Y-000750D01*
X001565Y-000829D02*
X001604Y-000868D01*
X001683Y-000868D01*
X001722Y-000829D01*
X001722Y-000672D01*
X001683Y-000632D01*
X001450Y-000632D02*
X001450Y-000868D01*
X001293Y-000632D01*
X001293Y-000868D01*
X001178Y-000868D02*
X001060Y-000868D01*
X001021Y-000829D01*
X001021Y-000672D01*
X001060Y-000632D01*
X001178Y-000632D01*
X001178Y-000868D01*
X000906Y-000829D02*
X000867Y-000868D01*
X000789Y-000868D01*
X000749Y-000829D01*
X000749Y-000789D01*
X000906Y-000632D01*
X000749Y-000632D01*
D12*
X-000236Y000433D02*
X-000234Y000451D01*
X-000228Y000467D01*
X-000219Y000482D01*
X-000206Y000495D01*
X-000191Y000504D01*
X-000175Y000510D01*
X-000157Y000512D01*
X-000139Y000510D01*
X-000123Y000504D01*
X-000108Y000495D01*
X-000095Y000482D01*
X-000086Y000467D01*
X-000080Y000451D01*
X-000078Y000433D01*
X-000080Y000415D01*
X-000086Y000399D01*
X-000095Y000384D01*
X-000108Y000371D01*
X-000123Y000362D01*
X-000139Y000356D01*
X-000157Y000354D01*
X-000175Y000356D01*
X-000191Y000362D01*
X-000206Y000371D01*
X-000219Y000384D01*
X-000228Y000399D01*
X-000234Y000415D01*
X-000236Y000433D01*
M02*
