G75*
%MOIN*%
%OFA0B0*%
%FSLAX24Y24*%
%IPPOS*%
%LPD*%
%AMOC8*
5,1,8,0,0,1.08239X$1,22.5*
%
%ADD10R,0.0354X0.0236*%
%ADD11R,0.0335X0.0220*%
%ADD12C,0.0591*%
%ADD13C,0.0197*%
%ADD14C,0.0118*%
%ADD15C,0.0238*%
%ADD16C,0.0079*%
D10*
X-001378Y-000295D03*
X-001378Y000295D03*
X001378Y000295D03*
X001378Y-000295D03*
D11*
X000482Y-000374D03*
X-000482Y-000374D03*
X-000482Y000000D03*
X-000482Y000374D03*
X000482Y000374D03*
D12*
X002500Y000500D03*
X002500Y-000500D03*
X-002500Y-000500D03*
X-002500Y000500D03*
D13*
X-001378Y000295D01*
X-000827Y000315D01*
X-000482Y000374D01*
X000482Y000374D02*
X001378Y000295D01*
X002500Y000500D01*
D14*
X000100Y000117D02*
X-000100Y000117D01*
X-000098Y000119D02*
X-000059Y000213D01*
X-000059Y000535D01*
X-000098Y000629D01*
X-000170Y000701D01*
X-000264Y000740D01*
X-000701Y000740D01*
X-000795Y000701D01*
X-000820Y000676D01*
X-000863Y000668D01*
X-001125Y000659D01*
X-001150Y000669D01*
X-001454Y000669D01*
X-002016Y000772D01*
X-002033Y000812D01*
X-002146Y000925D01*
X002146Y000925D01*
X002033Y000812D01*
X002016Y000772D01*
X001454Y000669D01*
X001170Y000669D01*
X000791Y000703D01*
X000701Y000740D01*
X000264Y000740D01*
X000170Y000701D01*
X000098Y000629D01*
X000059Y000535D01*
X000059Y000213D01*
X000098Y000119D01*
X000170Y000047D01*
X000264Y000008D01*
X000601Y000008D01*
X001047Y-000031D01*
X001056Y-000040D01*
X001096Y-000057D01*
X001074Y-000080D01*
X001053Y-000116D01*
X001042Y-000156D01*
X001042Y-000295D01*
X001378Y-000295D01*
X001714Y-000295D01*
X001714Y-000156D01*
X001703Y-000116D01*
X001682Y-000080D01*
X001659Y-000057D01*
X001700Y-000040D01*
X001741Y000001D01*
X002145Y000075D01*
X002188Y000033D01*
X002390Y-000051D01*
X002429Y-000051D01*
X002394Y-000057D01*
X002326Y-000079D01*
X002262Y-000111D01*
X002204Y-000153D01*
X002153Y-000204D01*
X002111Y-000262D01*
X002079Y-000326D01*
X002057Y-000394D01*
X002046Y-000461D01*
X002461Y-000461D01*
X002461Y-000539D01*
X002046Y-000539D01*
X002057Y-000606D01*
X002079Y-000674D01*
X002111Y-000738D01*
X002153Y-000796D01*
X002204Y-000847D01*
X002262Y-000889D01*
X002326Y-000921D01*
X002338Y-000925D01*
X-002338Y-000925D01*
X-002326Y-000921D01*
X-002262Y-000889D01*
X-002204Y-000847D01*
X-002153Y-000796D01*
X-002111Y-000738D01*
X-002079Y-000674D01*
X-002057Y-000606D01*
X-002046Y-000539D01*
X-002461Y-000539D01*
X-002461Y-000461D01*
X-002046Y-000461D01*
X-002057Y-000394D01*
X-002079Y-000326D01*
X-002111Y-000262D01*
X-002153Y-000204D01*
X-002204Y-000153D01*
X-002262Y-000111D01*
X-002326Y-000079D01*
X-002394Y-000057D01*
X-002429Y-000051D01*
X-002390Y-000051D01*
X-002188Y000033D01*
X-002145Y000075D01*
X-001741Y000001D01*
X-001700Y-000040D01*
X-001659Y-000057D01*
X-001682Y-000080D01*
X-001703Y-000116D01*
X-001714Y-000156D01*
X-001714Y-000295D01*
X-001378Y-000295D01*
X-001378Y-000295D01*
X-001714Y-000295D01*
X-001714Y-000434D01*
X-001703Y-000475D01*
X-001682Y-000511D01*
X-001653Y-000541D01*
X-001617Y-000562D01*
X-001576Y-000572D01*
X-001378Y-000572D01*
X-001378Y-000295D01*
X-001378Y-000295D01*
X-001378Y-000572D01*
X-001180Y-000572D01*
X-001139Y-000562D01*
X-001103Y-000541D01*
X-001079Y-000517D01*
X-001077Y-000522D01*
X-001042Y-000557D01*
X-001008Y-000595D01*
X-001000Y-000598D01*
X-000994Y-000605D01*
X-000948Y-000624D01*
X-000902Y-000646D01*
X-000894Y-000646D01*
X-000886Y-000650D01*
X-000846Y-000650D01*
X-000795Y-000701D01*
X-000701Y-000740D01*
X-000264Y-000740D01*
X-000170Y-000701D01*
X-000098Y-000629D01*
X-000059Y-000535D01*
X-000059Y-000213D01*
X-000098Y-000119D01*
X-000156Y-000061D01*
X-000156Y000000D01*
X-000156Y000061D01*
X-000098Y000119D01*
X-000156Y000000D02*
X-000482Y000000D01*
X000691Y000000D01*
X000701Y-000008D02*
X000264Y-000008D01*
X000170Y-000047D01*
X000098Y-000119D01*
X000059Y-000213D01*
X000059Y-000535D01*
X000098Y-000629D01*
X000170Y-000701D01*
X000264Y-000740D01*
X000701Y-000740D01*
X000795Y-000701D01*
X000867Y-000629D01*
X000906Y-000535D01*
X000906Y-000213D01*
X000867Y-000119D01*
X000795Y-000047D01*
X000701Y-000008D01*
X000864Y-000117D02*
X001052Y-000117D01*
X001042Y-000233D02*
X000906Y-000233D01*
X001042Y-000295D02*
X001042Y-000434D01*
X001053Y-000475D01*
X001074Y-000511D01*
X001103Y-000541D01*
X001139Y-000562D01*
X001180Y-000572D01*
X001378Y-000572D01*
X001576Y-000572D01*
X001617Y-000562D01*
X001653Y-000541D01*
X001682Y-000511D01*
X001703Y-000475D01*
X001714Y-000434D01*
X001714Y-000295D01*
X001378Y-000295D01*
X001378Y-000295D01*
X001378Y-000295D01*
X001042Y-000295D01*
X001042Y-000350D02*
X000906Y-000350D01*
X000906Y-000466D02*
X001050Y-000466D01*
X000886Y-000583D02*
X002053Y-000583D01*
X002092Y-000700D02*
X000796Y-000700D01*
X001378Y-000572D02*
X001378Y-000295D01*
X001378Y-000572D01*
X001378Y-000466D02*
X001378Y-000466D01*
X001378Y-000350D02*
X001378Y-000350D01*
X001378Y-000295D02*
X001378Y-000295D01*
X001714Y-000350D02*
X002071Y-000350D01*
X002132Y-000233D02*
X001714Y-000233D01*
X001704Y-000117D02*
X002255Y-000117D01*
X002267Y000000D02*
X001740Y000000D01*
X001706Y-000466D02*
X002461Y-000466D01*
X002174Y-000816D02*
X-002174Y-000816D01*
X-002092Y-000700D02*
X-000796Y-000700D01*
X-001018Y-000583D02*
X-002053Y-000583D01*
X-002071Y-000350D02*
X-001714Y-000350D01*
X-001706Y-000466D02*
X-002461Y-000466D01*
X-002132Y-000233D02*
X-001714Y-000233D01*
X-001704Y-000117D02*
X-002255Y-000117D01*
X-002267Y000000D02*
X-001740Y000000D01*
X-001378Y-000350D02*
X-001378Y-000350D01*
X-001378Y-000466D02*
X-001378Y-000466D01*
X-000531Y000000D02*
X-000531Y000000D01*
X-000482Y000000D01*
X-000482Y000000D01*
X-000156Y000000D01*
X-000100Y-000117D02*
X000100Y-000117D01*
X000059Y-000233D02*
X-000059Y-000233D01*
X-000059Y-000350D02*
X000059Y-000350D01*
X000059Y-000466D02*
X-000059Y-000466D01*
X-000079Y-000583D02*
X000079Y-000583D01*
X000168Y-000700D02*
X-000168Y-000700D01*
X-000482Y-000008D02*
X-000482Y-000008D01*
X-000482Y000000D01*
X-000482Y000000D01*
X-000482Y000000D01*
X-000482Y000008D01*
X-000482Y000008D01*
X-000482Y000000D01*
X-000482Y-000008D01*
X-000482Y000000D02*
X-000531Y000000D01*
X-000482Y000000D01*
X-000482Y000000D01*
X-000059Y000233D02*
X000059Y000233D01*
X000059Y000350D02*
X-000059Y000350D01*
X-000059Y000466D02*
X000059Y000466D01*
X000079Y000583D02*
X-000079Y000583D01*
X-000168Y000700D02*
X000168Y000700D01*
X000824Y000700D02*
X001620Y000700D01*
X002037Y000816D02*
X-002037Y000816D01*
X-001620Y000700D02*
X-000796Y000700D01*
D15*
X-000748Y000827D03*
D16*
X-000827Y000315D02*
X-000827Y-000354D01*
X-000482Y-000374D01*
M02*
