G75*
%MOIN*%
%OFA0B0*%
%FSLAX24Y24*%
%IPPOS*%
%LPD*%
%AMOC8*
5,1,8,0,0,1.08239X$1,22.5*
%
%ADD10R,0.0354X0.0236*%
%ADD11R,0.0335X0.0220*%
%ADD12C,0.0591*%
%ADD13C,0.0197*%
%ADD14C,0.0079*%
D10*
X-001378Y-000295D03*
X-001378Y000295D03*
X001378Y000295D03*
X001378Y-000295D03*
D11*
X000482Y-000374D03*
X-000482Y-000374D03*
X-000482Y000000D03*
X-000482Y000374D03*
X000482Y000374D03*
D12*
X002500Y000500D03*
X002500Y-000500D03*
X-002500Y-000500D03*
X-002500Y000500D03*
D13*
X000000Y000000D02*
X000000Y-000394D01*
X-000059Y-000391D02*
X000059Y-000391D01*
X000059Y-000535D02*
X000098Y-000629D01*
X000170Y-000701D01*
X000264Y-000740D01*
X000701Y-000740D01*
X000795Y-000701D01*
X000867Y-000629D01*
X000906Y-000535D01*
X000906Y-000213D01*
X000899Y-000197D01*
X001002Y-000197D01*
X001002Y-000295D01*
X001378Y-000295D01*
X001754Y-000295D01*
X001754Y-000197D01*
X002110Y-000197D01*
X002078Y-000241D01*
X002042Y-000310D01*
X002018Y-000384D01*
X002006Y-000461D01*
X002006Y-000500D01*
X002500Y-000500D01*
X002006Y-000500D01*
X002006Y-000539D01*
X002018Y-000616D01*
X002042Y-000690D01*
X002078Y-000759D01*
X002123Y-000822D01*
X002178Y-000877D01*
X002241Y-000922D01*
X002247Y-000925D01*
X-002247Y-000925D01*
X-002241Y-000922D01*
X-002178Y-000877D01*
X-002123Y-000822D01*
X-002078Y-000759D01*
X-002042Y-000690D01*
X-002018Y-000616D01*
X-002006Y-000539D01*
X-002006Y-000500D01*
X-002500Y-000500D01*
X-002500Y-000500D01*
X-002006Y-000500D01*
X-002006Y-000461D01*
X-002018Y-000384D01*
X-002042Y-000310D01*
X-002078Y-000241D01*
X-002110Y-000197D01*
X-001754Y-000197D01*
X-001754Y-000295D01*
X-001378Y-000295D01*
X-001378Y-000295D01*
X-001754Y-000295D01*
X-001754Y-000440D01*
X-001740Y-000490D01*
X-001714Y-000535D01*
X-001677Y-000572D01*
X-001632Y-000598D01*
X-001581Y-000612D01*
X-001378Y-000612D01*
X-001378Y-000295D01*
X-001378Y-000295D01*
X-001378Y-000612D01*
X-001175Y-000612D01*
X-001124Y-000598D01*
X-001079Y-000572D01*
X-001042Y-000535D01*
X-001016Y-000490D01*
X-001011Y-000470D01*
X-000877Y-000603D01*
X-000867Y-000629D01*
X-000795Y-000701D01*
X-000701Y-000740D01*
X-000264Y-000740D01*
X-000170Y-000701D01*
X-000098Y-000629D01*
X-000059Y-000535D01*
X-000059Y-000213D01*
X-000066Y-000197D01*
X000066Y-000197D01*
X000059Y-000213D01*
X000059Y-000535D01*
X000080Y-000586D02*
X-000080Y-000586D01*
X-000895Y-000586D02*
X-001103Y-000586D01*
X-001378Y-000586D02*
X-001378Y-000586D01*
X-001653Y-000586D02*
X-002014Y-000586D01*
X-002017Y-000391D02*
X-001754Y-000391D01*
X-001378Y-000391D02*
X-001378Y-000391D01*
X-002094Y-000781D02*
X002094Y-000781D01*
X002014Y-000586D02*
X001653Y-000586D01*
X001632Y-000598D02*
X001677Y-000572D01*
X001714Y-000535D01*
X001740Y-000490D01*
X001754Y-000440D01*
X001754Y-000295D01*
X001378Y-000295D01*
X001378Y-000295D01*
X001378Y-000295D01*
X001002Y-000295D01*
X001002Y-000440D01*
X001016Y-000490D01*
X001042Y-000535D01*
X001079Y-000572D01*
X001124Y-000598D01*
X001175Y-000612D01*
X001378Y-000612D01*
X001581Y-000612D01*
X001632Y-000598D01*
X001378Y-000586D02*
X001378Y-000586D01*
X001378Y-000612D02*
X001378Y-000295D01*
X001378Y-000295D01*
X001378Y-000612D01*
X001103Y-000586D02*
X000884Y-000586D01*
X000906Y-000391D02*
X001002Y-000391D01*
X001378Y-000391D02*
X001378Y-000391D01*
X001754Y-000391D02*
X002017Y-000391D01*
X002500Y-000500D02*
X002500Y-000500D01*
X002110Y000197D02*
X001754Y000197D01*
X001754Y000295D01*
X001378Y000295D01*
X001378Y000295D01*
X001002Y000295D01*
X001002Y000197D01*
X000837Y000197D01*
X000848Y000238D01*
X000848Y000374D01*
X000482Y000374D01*
X000482Y000683D01*
X000289Y000683D01*
X000238Y000669D01*
X000197Y000645D01*
X000197Y000925D01*
X002247Y000925D01*
X002241Y000922D01*
X002178Y000877D01*
X002123Y000822D01*
X002078Y000759D01*
X002042Y000690D01*
X002018Y000616D01*
X002006Y000539D01*
X002006Y000500D01*
X002500Y000500D01*
X002500Y000500D01*
X002006Y000500D01*
X002006Y000461D01*
X002018Y000384D01*
X002042Y000310D01*
X002078Y000241D01*
X002110Y000197D01*
X001754Y000295D02*
X001754Y000440D01*
X001740Y000490D01*
X001714Y000535D01*
X001677Y000572D01*
X001632Y000598D01*
X001581Y000612D01*
X001378Y000612D01*
X001378Y000295D01*
X001378Y000295D01*
X001754Y000295D01*
X001754Y000391D02*
X002017Y000391D01*
X002014Y000586D02*
X001653Y000586D01*
X001378Y000586D02*
X001378Y000586D01*
X001378Y000612D02*
X001175Y000612D01*
X001124Y000598D01*
X001079Y000572D01*
X001042Y000535D01*
X001016Y000490D01*
X001002Y000440D01*
X001002Y000295D01*
X001378Y000295D01*
X001378Y000295D01*
X001378Y000612D01*
X001103Y000586D02*
X000820Y000586D01*
X000808Y000606D02*
X000771Y000643D01*
X000726Y000669D01*
X000676Y000683D01*
X000482Y000683D01*
X000482Y000374D01*
X000482Y000374D01*
X000848Y000374D01*
X000848Y000510D01*
X000835Y000561D01*
X000808Y000606D01*
X000848Y000391D02*
X001002Y000391D01*
X001378Y000391D02*
X001378Y000391D01*
X002094Y000781D02*
X000197Y000781D01*
X000482Y000586D02*
X000482Y000586D01*
X000482Y000391D02*
X000482Y000391D01*
X000482Y000374D02*
X000482Y000374D01*
X000000Y000000D02*
X-000482Y000000D01*
X-000891Y000197D02*
X-000867Y000255D01*
X-000848Y000274D01*
X-000848Y000374D01*
X-000482Y000374D01*
X-000482Y000374D01*
X-000482Y000683D01*
X-000289Y000683D01*
X-000238Y000669D01*
X-000197Y000645D01*
X-000197Y000925D01*
X-002247Y000925D01*
X-002241Y000922D01*
X-002178Y000877D01*
X-002123Y000822D01*
X-002078Y000759D01*
X-002042Y000690D01*
X-002018Y000616D01*
X-002006Y000539D01*
X-002006Y000500D01*
X-002500Y000500D01*
X-002006Y000500D01*
X-002006Y000461D01*
X-002018Y000384D01*
X-002042Y000310D01*
X-002078Y000241D01*
X-002110Y000197D01*
X-001754Y000197D01*
X-001754Y000295D01*
X-001378Y000295D01*
X-001378Y000295D01*
X-001378Y000295D01*
X-001002Y000295D01*
X-001002Y000197D01*
X-000891Y000197D01*
X-001002Y000295D02*
X-001002Y000440D01*
X-001016Y000490D01*
X-001042Y000535D01*
X-001079Y000572D01*
X-001124Y000598D01*
X-001175Y000612D01*
X-001378Y000612D01*
X-001581Y000612D01*
X-001632Y000598D01*
X-001677Y000572D01*
X-001714Y000535D01*
X-001740Y000490D01*
X-001754Y000440D01*
X-001754Y000295D01*
X-001378Y000295D01*
X-001002Y000295D01*
X-000848Y000374D02*
X-000482Y000374D01*
X-000482Y000683D01*
X-000676Y000683D01*
X-000726Y000669D01*
X-000771Y000643D01*
X-000808Y000606D01*
X-000835Y000561D01*
X-000848Y000510D01*
X-000848Y000374D01*
X-000848Y000391D02*
X-001002Y000391D01*
X-001103Y000586D02*
X-000820Y000586D01*
X-000482Y000586D02*
X-000482Y000586D01*
X-000482Y000391D02*
X-000482Y000391D01*
X-000482Y000374D02*
X-000482Y000374D01*
X-000197Y000781D02*
X-002094Y000781D01*
X-002014Y000586D02*
X-001653Y000586D01*
X-001378Y000586D02*
X-001378Y000586D01*
X-001378Y000612D02*
X-001378Y000295D01*
X-001378Y000295D01*
X-001378Y000612D01*
X-001378Y000391D02*
X-001378Y000391D01*
X-001754Y000391D02*
X-002017Y000391D01*
X-002500Y000500D02*
X-002500Y000500D01*
D14*
X-000945Y000394D02*
X-000945Y-000118D01*
X-000689Y-000374D01*
X-000482Y-000374D01*
M02*
