G75*
G71*
%OFA0B0*%
%FSLAX33Y33*%
%IPPOS*%
%LPD*%
%ADD10C,0*%
%ADD11C,2.54*%
%ADD12C,2.54X1.27*%
%ADD13C,2.54X1.27X0.508*%
%ADD14R,2.54X5.08*%
%ADD15R,2.54X5.08X1.27*%
%ADD16R,2.54X5.08X1.27X0.508*%
%ADD17O,2.54X5.08*%
%ADD18O,2.54X5.08X1.27*%
%ADD19O,2.54X5.08X1.27X0.508*%
%ADD20P,2.54X3*%
%ADD21P,2.54X3X20*%
%ADD22P,2.54X3X0X1.27*%
%ADD23P,2.54X3X0X1.27X0.508*%
%ADD24P,2.54X3X20X1.27X0.508*%
%ADD25P,2.54X4X20*%
%ADD26P,2.54X5X20*%
%ADD27P,2.54X6X20*%
%ADD28P,2.54X7X20*%
%AMM29*0 a comment*ADD29M29*%
%AMM30*1,1,2.54,0,0*ADD30M30*%
%AMM31*1,1,2.54,0.508,1.27*ADD31M31*%
%AMM32*2,1,0.254,0,0,1.27,2.54,0*ADD32M32*%
%AMM33*2,1,0.254,0,0,1.27,2.54,90*ADD33M33*%
%AMM34*20,1,0.254,0,0,1.27,2.54,0*ADD34M34*%
%AMM35*20,1,0.254,0,0,1.27,2.54,20*ADD35M35*%
%AMM36*21,1,2.54,0.254,0,0,0*ADD36M36*%
%AMM37*21,1,2.54,0.254,0.508,1.27,0*ADD37M37*%
%AMM38*21,1,2.54,0.254,0,0,20*ADD38M38*%
%AMM39*21,1,2.54,0.254,0.508,1.27,20*ADD39M39*%
%AMM40*22,1,2.54,0.254,0,0,0*ADD40M40*%
%AMM41*22,1,2.54,0.254,0.508,1.27,0*ADD41M41*%
%AMM42*22,1,2.54,0.254,0,0,20*ADD42M42*%
%AMM43*22,1,2.54,0.254,0.508,1.27,20*ADD43M43*%
%AMM44*4,1,4,0.00,0.254,1.016,1.524,1.778,1.016,1.524,0.00,0.00,0.254,0*ADD44M44*%
%AMM45*4,1,4,0.00,0.254,1.016,1.524,1.778,1.016,1.524,0.00,0.00,0.254,90*ADD45M45*%
%AMM46*5,1,3,0,0,2.54,0*ADD46M46*%
%AMM47*5,1,3,0.508,1.27,2.54,0*ADD47M47*%
%AMM48*5,1,3,0,0,2.54,20*ADD48M48*%
%AMM49*5,1,4,0,0,2.54,0*ADD49M49*%
%AMM50*5,1,5,0,0,2.54,0*ADD50M50*%
%AMM51*5,1,6,0,0,2.54,0*ADD51M51*%
%AMM52*5,1,7,0,0,2.54,0*ADD52M52*%
%AMM53*6,0,0,2.54,0.127,0.127,1,0.254,3.048,0*ADD53M53*%
%AMM54*6,0,0,2.54,0.127,0.127,2,0.254,3.048,0*ADD54M54*%
%AMM55*6,0,0,2.54,0.127,0.127,3,0.254,3.048,0*ADD55M55*%
%AMM56*6,0.508,1.27,2.54,0.254,0.381,2,0.254,3.048,0*ADD56M56*%
%AMM57*6,0,0,2.54,0.254,0.381,2,0.1016,3.048,20*ADD57M57*%
%AMM58*6,0,0,2.54,1.524,0.381,10,0.254,3.048,0*ADD58M58*%
%AMM59*6,0,0,2.54,0.254,1.524,10,0.254,3.048,0*ADD59M59*%
%AMM60*7,0,0,2.54,1.905,1.016,0*ADD60M60*%
%AMM61*7,0.508,1.27,2.54,1.905,1.016,0*ADD61M61*%
%AMM62*7,0,0,2.54,1.905,1.016,20*ADD62M62*%
%AMM63*1,1,5.08,0,0*1,0,2.54,0,0*ADD63M63*%
%AMM64*1,1,5.08,0,0*1,0,2.54,0.508,1.27*ADD64M64*%
%AMM65*1,1,5.08,0,0*2,0,0.254,0,0,1.27,2.54,0*ADD65M65*%
%AMM66*1,1,5.08,0,0*2,0,0.254,0,0,1.27,2.54,90*ADD66M66*%
%AMM67*1,1,5.08,0,0*20,0,0.254,0,0,1.27,2.54,0*ADD67M67*%
%AMM68*1,1,5.08,0,0*20,0,0.254,0,0,1.27,2.54,20*ADD68M68*%
%AMM69*1,1,5.08,0,0*21,0,2.54,0.254,0,0,0*ADD69M69*%
%AMM70*1,1,5.08,0,0*21,0,2.54,0.254,0.508,1.27,0*ADD70M70*%
%AMM71*1,1,5.08,0,0*21,0,2.54,0.254,0,0,20*ADD71M71*%
%AMM72*1,1,5.08,0,0*21,0,2.54,0.254,0.508,1.27,20*ADD72M72*%
%AMM73*1,1,5.08,0,0*22,0,2.54,0.254,0,0,0*ADD73M73*%
%AMM74*1,1,5.08,0,0*22,0,2.54,0.254,0.508,1.27,0*ADD74M74*%
%AMM75*1,1,5.08,0,0*22,0,2.54,0.254,0,0,20*ADD75M75*%
%AMM76*1,1,5.08,0,0*22,0,2.54,0.254,0.508,1.27,20*ADD76M76*%
%AMM77*1,1,5.08,0,0*4,0,4,0.00,0.254,1.016,1.524,1.778,1.016,1.524,0.00,0.00,0.254,0*ADD77M77*%
%AMM78*1,1,5.08,0,0*4,0,4,0.00,0.254,1.016,1.524,1.778,1.016,1.524,0.00,0.00,0.254,90*ADD78M78*%
%AMM79*1,1,5.08,0,0*5,0,3,0,0,2.54,0*ADD79M79*%
%AMM80*1,1,5.08,0,0*5,0,3,0.508,1.27,2.54,0*ADD80M80*%
%AMM81*1,1,5.08,0,0*5,0,3,0,0,2.54,20*ADD81M81*%
%AMM82*1,1,5.08,0,0*5,0,4,0,0,2.54,0*ADD82M82*%
%AMM83*1,1,5.08,0,0*5,0,5,0,0,2.54,0*ADD83M83*%
%AMM84*1,1,5.08,0,0*5,0,6,0,0,2.54,0*ADD84M84*%
%AMM85*1,1,5.08,0,0*5,0,7,0,0,2.54,0*ADD85M85*%
%AMOVERLAP*
0 a simple square*
21,1,3.81,3.81,0,0,0*
0 a moire on top shouldn't cut holes*
6,0,0,5.08,0.254,0.381,2,0.508,5.588,0*
ADD98OVERLAP*%
%AMCOMPLEX*
0 a complex macro:*
$OD=5.08*
$ID=$ODx0.75*
$ANGLE=20*
0 an offset circle*
1,1,5.08,7.62,0*
0 an offset moire*
6,3.81,3.81,$OD,0.254,0.381,2,0.508,5.588,0*
0 an offset thermal*
7,3.81,0-3.81,$OD,$ID,2.032,0*
0 a rotated thermal*
7,0,0,$OD,$ID,2.032,$ANGLE*
0 a rotated moire*
6,0,0,2.54,0.127,0.381,2,0.508,$ODx1.1,$ANGLE*
0 a polygon hole covering the other primitives*
5,0,8,3.81,0,$OD,0*
ADD99COMPLEX*%
D10*X05080Y05080D03*
D11*X10160Y05080D03*
D12*X15240Y05080D03*
D13*X20320Y05080D03*
D14*X25400Y05080D03*
D15*X30480Y05080D03*
D16*X35560Y05080D03*
D17*X40640Y05080D03*
D18*X45720Y05080D03*
D19*X50800Y05080D03*
D20*X55880Y05080D03*
D21*X60960Y05080D03*
D22*X66040Y05080D03*
D23*X71120Y05080D03*
D24*X05080Y15240D03*
D25*X10160Y15240D03*
D26*X15240Y15240D03*
D27*X20320Y15240D03*
D28*X25400Y15240D03*
D29*X30480Y15240D03*
D30*X35560Y15240D03*
D31*X40640Y15240D03*
D32*X45720Y15240D03*
D33*X50800Y15240D03*
D34*X55880Y15240D03*
D35*X60960Y15240D03*
D36*X66040Y15240D03*
D37*X71120Y15240D03*
D38*X05080Y25400D03*
D39*X10160Y25400D03*
D40*X15240Y25400D03*
D41*X20320Y25400D03*
D42*X25400Y25400D03*
D43*X30480Y25400D03*
D44*X35560Y25400D03*
D45*X40640Y25400D03*
D46*X45720Y25400D03*
D47*X50800Y25400D03*
D48*X55880Y25400D03*
D49*X60960Y25400D03*
D50*X66040Y25400D03*
D51*X71120Y25400D03*
D52*X05080Y35560D03*
D53*X10160Y35560D03*
D54*X15240Y35560D03*
D55*X20320Y35560D03*
D56*X25400Y35560D03*
D57*X30480Y35560D03*
D58*X35560Y35560D03*
D59*X40640Y35560D03*
D60*X45720Y35560D03*
D61*X50800Y35560D03*
D62*X55880Y35560D03*
D63*X60960Y35560D03*
D64*X66040Y35560D03*
D65*X71120Y35560D03*
D66*X05080Y45720D03*
D67*X10160Y45720D03*
D68*X15240Y45720D03*
D69*X20320Y45720D03*
D70*X25400Y45720D03*
D71*X30480Y45720D03*
D72*X35560Y45720D03*
D73*X40640Y45720D03*
D74*X45720Y45720D03*
D75*X50800Y45720D03*
D76*X55880Y45720D03*
D77*X60960Y45720D03*
D78*X66040Y45720D03*
D79*X71120Y45720D03*
D80*X05080Y55880D03*
D81*X10160Y55880D03*
D82*X15240Y55880D03*
D83*X20320Y55880D03*
D84*X25400Y55880D03*
D85*X30480Y55880D03*
D10*X35560Y55880D03*
D10*X40640Y55880D03*
D98*X45720Y55880D03*
D10*X50800Y55880D03*
D10*X55880Y55880D03*
D99*X60960Y55880D03*
D10*X66040Y55880D03*
D10*X71120Y55880D03*
D10*X05080Y66040D03*
D10*X10160Y66040D03*
D10*X15240Y66040D03*
D10*X20320Y66040D03*
D10*X25400Y66040D03*
D10*X30480Y66040D03*
D10*X35560Y66040D03*
D10*X40640Y66040D03*
D10*X45720Y66040D03*
D10*X50800Y66040D03*
D10*X55880Y66040D03*
D10*X60960Y66040D03*
M02*
