M48
;Layer_Color=9474304
;FILE_FORMAT=2:5
INCH,LZ
;TYPE=PLATED
T1F00S00C0.01181
T2F00S00C0.02362
T3F00S00C0.03937
T4F00S00C0.07874
%
T01
X0019685Y0004921
X0023228Y0032677
Y0044094
X0011811Y0047244
Y003937
X0003937Y0022638
Y0056102
X0075787Y0020669
Y0024606
Y0034449
X007185Y0061024
X0076772
X0081693
X0086614
Y0065945
Y0069882
X0081693
Y0065945
X0014764Y0067913
X0019685Y0073819
T02
X0035433Y0009843
X0055118
T03
X0015748Y0025591
Y0035433
Y0043307
Y005315
T04
X0007874Y0015748
Y0062992
M30
