M48
;Layer_Color=9474304
;FILE_FORMAT=2:4
INCH,LZ
;TYPE=PLATED
T1F00S00C0.0118
T2F00S00C0.0236
T3F00S00C0.0276
T4F00S00C0.0315
T5F00S00C0.0394
T6F00S00C0.0551
T7F00S00C0.0748
%
T01
X001476Y000295
X00187Y003445
X002264
X002657
X002953
X003248
X009252Y025984
X010039
X010827
X011614
Y025
X010827
X012795Y025197
X014764
X014636Y024281
T02
X002953Y000886
Y001673
X024508Y018602
X023524
X020965
X01998
T03
X007559Y002323
X008189
X007874Y002795
X007244
X008504
T04
X024606Y009843
X022638
X019488
X01752
X01437
X012402
T05
X004528Y002937
Y003937
X024803Y005315
Y006339
T06
X006457Y000591
Y002441
X009291
Y000591
T07
X016567Y002854
X018126
X019685
X021244
X022803
M30
