%
M48
M72
T01C0.0120
T02C0.0276
T03C0.0354
T04C0.0472
T05C0.0945
%
T01
X9631Y5061
X11391Y5061
X13071Y5061
X13391Y3861
X18031Y3861
X18591Y3381
T02
X8359Y845
X8359Y1345
X8359Y1845
X8359Y2345
X9859Y2345
X9859Y1845
X9859Y1345
X9859Y845
T03
X10922Y952
X12922Y952
X14268Y952
X16268Y952
X16268Y2952
X14268Y2952
X12922Y2952
X10922Y2952
T04
X10717Y8904
X9717Y8904
T05
X9170Y7625
X11170Y7625
M30
