M48
;Layer_Color=9474304
;FILE_FORMAT=2:5
INCH,LZ
;TYPE=PLATED
T1F00S00C0.01500
T2F00S00C0.01800
T3F00S00C0.02500
T4F00S00C0.02800
T5F00S00C0.03800
T6F00S00C0.05200
T7F00S00C0.08600
;TYPE=NON_PLATED
T8F00S00C0.12500
%
T01
X00844Y0029
X00945Y0035
X00975Y00375
X0107Y00405
X01195
X01201Y00466
X01137Y0048
X01284Y00465
X01393Y00467
Y00528
X01345Y004
X01509Y00312
X01524Y00283
X01552Y00266
X01583Y00254
X01614Y00242
X01642Y00226
X0162Y0012
X016Y00346
Y00377
X01633Y00376
T02
X0016Y0031
X0069Y0029
X00755Y00305
X00895Y01735
Y01845
X003Y01085
T03
X01545Y0093
T04
X01545Y0098905
T05
X001Y002
X002
X006
X00975Y001
X01075
X02075
X021Y005
X02
X02175Y001
Y02
X02405Y01862
X02505
X02605
X02075Y02
X01975
X02Y016
X021
Y015
Y014
Y013
T06
X0028Y0049496
X0039811Y0068
X0016189
T07
X00355Y013
Y0182
T08
X026Y0015
X0015Y01975
M30
