%
T01C0.025000
X6000Y12100
X17500Y12500
X8700Y14000
X6000Y14400
X17500Y14700
X8700Y17600
X12500Y3500
X15750Y4450
X16500Y5150
X37300Y7600
X29600Y13300
X32800Y14400
T02C0.032000
X3200Y3600
X4200Y3600
X3500Y5050
X4700Y5050
X2300Y5200
X2300Y8200
X3500Y8550
X4700Y8550
X12500Y13500
X13500Y13500
X14500Y13500
X15500Y13500
X18900Y14900
X18900Y15900
X12500Y16500
T03C0.040000
X1700Y1700
X2700Y1700
X3700Y1700
X4700Y1700
X1700Y3250
X1700Y4250
X2000Y12400
X2000Y13400
X3700Y13400
X4700Y13400
X21000Y14000
T04C0.045000
X2200Y9900
X3200Y9900
M30
