M48
FMAT,2
T1C0.0118
T2C0.0256
T3C0.0276
T4C0.0315
T5C0.0394
%
T1
X000028982Y000042215
X000030557
X000033509Y000042117
X000036659
X000038116Y000042353
X00004158Y000042736
X000042565Y000042707
X000046243Y000042215
X00004642Y000042619
X000047978Y000042707
X000051324Y000042806
Y00004192
X000053982Y000042215
X000028982Y000047727
Y000044774
X000034393Y00004718
X000035281Y000046152
X00003538Y000047727
X000036364Y000045168
X000036561Y000046743
X000038824Y000045168
X000038923Y000046152
X000038974Y000047753
X000039455Y000047742
X000039513Y000043593
X000039907Y000044351
X00004036Y000045726
X00004083Y000047742
X00004092Y000044258
X000040934Y000044971
X000041134Y00004553
X00004133Y000047742
X000041384Y000044471
X000042088Y00004401
X000042336Y000045614
X000043155Y000043593
X000043549Y000047727
X000043898Y00004636
X000044533Y000046152
X000044998Y000044925
X000045123Y0000443
X000045222Y000044774
X00004556Y000043113
X000046205Y000044535
X000046305Y000045463
X00004679Y000044431
X000047683Y000045266
X000047913Y000043396
X000048372Y000047727
X00004847Y000046152
X000050439Y000043162
X0000505Y0000477
X000053982Y000043495
X000054179Y000046743
X000028982Y000050778
X000034494Y000050188
X000034986Y000052255
X000035783Y000050639
X000035844Y000051086
X000036263Y000052577
X000036475Y000052197
X000037234Y000052863
X00003725Y000051467
X000037551Y00004973
X00003758Y000052867
X000037643Y000051467
X000038205Y000052805
X00003823Y00004963
X00003834Y000050528
X000038455Y00005243
X000038555Y000050874
X00003858Y00004963
X00003883Y000052805
X000038923Y000052255
X00003913Y00004968
X000039415Y000051467
X00003943Y00004958
X000039591Y000052431
X000039938Y000052427
X00004008Y00004958
X000040278Y000052206
X00004043Y00004973
X00004103
X000041302Y000052686
X000041922Y000052855
X00004318Y00005283
X000043254Y000050089
X00004353Y00005278
X000043869Y00005145
X000043955Y00005243
Y00005193
X000044143Y00005218
X000044205Y00005168
X000044883Y000049567
X000045253Y00004994
X000045535Y000049609
X000046294Y000050233
X000046647Y000049629
X000046957Y000049218
X000048225Y000049604
X000048569Y000050175
X000049713Y000049242
X00005408Y000049695
X000054179Y000052747
X000028982Y000053731
X0000341Y00005501
X000034395Y000055207
X000034887Y000055503
X00003733Y000053992
X000038143Y000054305
X000038868Y000053967
X000039969Y000054444
X000040441
X000040643Y000055617
X000040955
X000041032Y000054444
X000041504
X000041965Y000055485
X000042084Y00005415
X000042439Y000054511
X00004284Y000055581
X000042893Y000053992
X000043068Y000055353
X000043205Y000053992
X000043313Y000055581
X000043504Y000054217
X000043594Y000055009
X000044129Y00005467
X000044141Y000054005
X000044274Y000054986
X000044559Y000055204
X000044785Y000054654
X000045005Y000055073
X000045423Y00005393
X000045442Y000055133
X000046298Y000053812
X000046497Y000054031
X000046705Y000054305
X000047018Y00005443
X00004721Y000054755
X000047268Y00005388
X00004763Y00005343
X00004793Y00005368
X00004823Y00005398
X00004843Y00005428
X00004853Y00005473
X00004868Y00005518
X000028982Y000056782
X000033903Y000056192
X00003453Y00005583
X000034986Y000056192
X000036143Y00005718
X000036768Y00005668
X000037348Y000056782
X000038018Y000058117
X00003833Y000057555
X000039815Y000057703
X00004075Y00005759
X00004158Y000057555
X00004183Y000056367
X000041893Y000057555
X000043483Y000058028
X000043759Y000057709
X000044001Y000058057
X000044244Y000057647
X00004453Y000058021
X000045319Y000056516
X00004633Y000057492
Y000056617
X00004658Y00005566
X000046994Y000056881
X00004883Y00005568
X00004903Y00005623
X00004918Y00005723
Y00005678
X00004928Y00005768
X000049607Y00005818
X000054179Y000055798
X000028982Y000059735
X00003334Y00005943
X00003403Y00005993
X00003408Y00006063
X00003413Y00005843
Y00005918
X00003798Y00005963
X00003803Y00005868
Y000058975
X00003828Y000059683
X00003858Y000059611
X000038647Y000059059
X000038957Y000059689
X000039218Y000058909
X000039729Y000058971
X000039753Y000058648
X000040063Y000058432
X000040242Y000059006
X00004086Y000059321
X000041147Y000059479
X000041265Y000058774
X000041505Y000059536
X000041908Y000058212
X000042141Y000058572
X000042533Y000059643
X000042822Y00005881
X000042869Y000059637
X000043222Y00005852
X00004411Y000059447
X000044422Y000059256
X000044656Y000059477
X000044669Y000059018
X000044947Y00005969
X00004519Y000059439
X00004669Y000059451
X000047565Y000059325
X000048273Y000059243
X000048372Y000058652
X00004953Y00005868
X00004968Y00005933
X00004993Y00005963
X00005034Y000059932
X000054179Y000058849
X000028982Y000065837
Y000062786
X000033155Y000064361
X000034232Y000064433
X000034297Y000062195
X00003528Y00006548
X00003538Y00006218
X000036152Y000065175
X000036206Y000061436
X000036659Y000062156
X000036856Y000065739
X00003807Y000063553
X00003818Y00006238
X00003858Y00006168
X00003863Y00006238
X000038744Y000063273
X00003898Y00006228
X00003908Y00006193
X000039198Y000064126
X000039299Y000063724
X000039326Y000064838
X00003953Y00006398
X000040068Y000064125
X00004034Y00006168
X00004043Y00006253
X000040527Y000063273
X000040618Y00006223
X00004088Y00006263
X000041274Y000064456
X000041522Y000064827
X000041768Y000064644
X000042073Y000064497
X000042266Y000061934
X000042368Y000064841
X000042646Y000062618
X0000427Y000062913
X000042761Y000061605
X000042808Y000064041
X000042847Y000064841
X000043196Y000064811
X000043474Y000064604
X000043796Y00006453
X000044214Y000063885
X000044249Y000061447
X000044262Y000062311
X000044593Y000064841
X000044641Y000064265
X000044813Y000062302
X00004493Y00006364
X000044969Y000062737
X000045005Y000064804
X000045169Y000064323
X000045513Y000065416
X000046441Y000064786
X000046455Y00006198
X000046462Y000064318
X000046948Y000062027
X000047604Y000065171
X00004788Y000065424
X000048018Y000061742
X000048155Y000065669
X000048273Y000064558
X000049159Y000064853
X000054179Y000061703
Y00006377
X000028982Y000068692
X000034198Y000065936
X000034205Y000067492
X000034415Y000070384
X00003458Y000069055
X000034588Y000067576
X000034887Y000070384
X000034893Y000069117
X000035205Y000067576
X00003528Y00006598
X00003536Y000070384
X00003583Y000067555
X000035832Y000070384
X000036216Y000069089
X000036311Y000067817
X000036393Y000069492
X00003653Y00006598
X000036768Y000069055
X000036893Y000066055
X000037268Y000069492
X000037393Y00006918
X000037505Y000067146
X00003784Y000069676
X00003788Y00007048
X000038205Y000069555
X00003912Y000067314
X00003938Y00006958
X000039643Y000070805
X00003971Y000070168
X00004099Y000068396
X00004113Y00006743
X000041521Y000066418
X00004158Y00006743
X000041777Y000069184
X00004203Y00006748
X000042053Y000066264
X000043284Y000066051
X00004373Y00006688
X00004418
X000044238Y000070403
X00004428Y00006781
X000044427Y000067374
X000045049Y000070408
X000045369Y000070758
X00004583Y000065903
X000045955Y000069519
X000046758Y000068626
X000047122Y000065923
X000047231Y000068637
X000047722Y000068613
X000047978Y000065936
X000048155Y000068219
Y000068613
X000048628Y000070778
X00004874Y00006819
X000048864Y000065936
X000049179Y000069125
X00004924Y000068111
X000049415Y000070503
X000049887Y000069676
X000052899Y000066723
X000028982Y000071743
Y000074695
X000033635Y000076001
X000033903Y000074695
X000035393Y000073805
X000035478Y000074695
X000035872Y00007377
X000036226Y000071251
X000036659Y000072038
X000037447Y000071251
X000037643Y000074695
X000037768Y000073805
X000039503Y00007353
X000039907Y000073416
X000040106Y000074582
X000040315Y000074143
X000040498Y000072038
X000041384Y000071283
X000041388Y00007513
X000041679Y000076073
Y000073908
X000042466Y000076073
X000043253Y000074586
X000043254Y000073514
X00004336Y000071196
X000043832Y000074589
X000043844Y000072629
X000044041Y000071152
X000044109Y000073794
X000044443Y00007215
X0000447Y000071675
X00004538Y000071747
X000045414Y000071255
X000045773Y000072587
X000045813Y000073908
X000046797Y000074991
X000047047Y000072657
X00004721Y000071054
X000047604Y000072629
X000047761Y000073967
X000048234Y000072629
X000048371Y00007427
X000048759Y000072673
X000048982Y000071132
X000049454Y000075778
Y000072629
X000049553Y000074105
X000049848Y000072314
X000049966Y000071605
X000050242Y000071881
X00002908Y000078829
X00003036Y00007942
Y00007755
X000031895Y000077314
X000032922Y00008018
X000032992Y000081172
X000033017Y000076172
X000033223Y000079173
X000033706Y000080699
X000034494Y000079321
X000036561
X000037257Y000079051
X00003758Y000080585
X000037762Y000079058
X000038351Y000077999
X000038407Y000080243
X000038828Y00007791
X000038836Y000079458
X000039378Y000080585
X000039494Y000077077
X000039516Y000079553
X000039905Y000080472
X00004014Y000079353
X000040695Y000078632
X000040747Y000080475
X000041176Y000079632
X000041187Y000078071
X000042146Y000080797
X000042896Y000080803
X000043594Y000079619
X000043797Y00007619
X000046286Y000077195
X000046845
X000047453Y000077432
X000047769Y000077786
X000048175Y000079223
X000048864Y00007755
X000051718Y000079125
X000052998Y000078436
X00002908Y000082077
X000029868Y000085621
X00003036Y000083554
X000032929Y000083172
X000033608Y000082176
X000033628Y000084912
X000033658Y000086339
X000034986Y000084833
X00003538Y000082131
X00003658Y000086218
X000036954Y000084735
X00003733Y000086316
X00003758Y000085043
X00003758Y000081759
X00003808Y000085043
X000038779Y000082497
X00003883Y000084991
X0000391Y000085936
X00003912Y000081881
X000039136Y000084194
X000039193Y000083727
X000039391Y000082974
X000039704Y000082959
X000039958Y000084666
X00004058Y000083816
X00004058Y000081778
X000040793Y000082766
X00004108Y000083816
X00004108Y000081748
X00004138Y000082362
X00004138Y000083355
X00004258Y000083293
X000042916Y000082443
X0000431Y00008131
X000043908Y00008443
X000043943Y000082176
X000044041Y000083652
X000044753Y00008318
X000044868Y00008468
X000045203Y000084166
X000045206Y000086084
X00004558
X000045954
X000046895Y000085129
X000046994Y000082471
X000047736Y00008343
Y00008243
X000047757Y00008143
X00005155Y000083421
X00005408Y000082963
X00002908Y000086703
X000029769Y000087983
X000032033Y000087097
X000032821Y000088081
X00003558Y000087293
X000037348Y000087884
X000040949Y000086477
X000041187Y000087392
X000041974
X00004433Y000086642
X000044336Y000087884
X000045958Y000087693
X000046293Y00008718
X000046994Y000086506
X00004788Y000088081
X000050635Y000087983
X00005408Y000087589
X000045203Y000088166
T2
X000040704Y000043524
X000042456
T3
X000041356Y000069678
X000043356
X000036082Y000081176
Y000083176
T4
X000039937Y000042176G85X000039937Y000042491
X000043224Y000042176G85X000043224Y000042491
T5
X00003108Y00004518
Y00004418
X00003208Y00004518
Y00004418
X00005108Y00004518
Y00004418
X00005208Y00004518
Y00004418
X00003108Y00004618
Y00005018
Y00004918
Y00004818
Y00004718
X00003208
Y00004618
Y00005018
Y00004918
Y00004818
X00005108
Y00004718
Y00004618
Y00005018
Y00004918
X00005208
Y00004818
Y00004718
Y00004618
Y00005018
X00003108Y00005118
Y00005518
Y00005418
Y00005318
Y00005218
X00003208
Y00005118
Y00005518
Y00005418
Y00005318
X00005108
Y00005218
Y00005118
Y00005518
Y00005418
X00005208
Y00005318
Y00005218
Y00005118
Y00005518
X00003108Y00005618
Y00006018
Y00005918
Y00005818
Y00005718
X00003208
Y00005618
Y00006018
Y00005918
Y00005818
X00005108
Y00005718
Y00005618
Y00006018
Y00005918
X00005208
Y00005818
Y00005718
Y00005618
Y00006018
X00003108Y00006118
Y00006518
Y00006418
Y00006318
Y00006218
X00003208
Y00006118
Y00006518
Y00006418
Y00006318
X00005108
Y00006218
Y00006118
Y00006518
Y00006418
X00005208
Y00006318
Y00006218
Y00006118
Y00006518
X00003108Y00006618
Y00007018
Y00006918
Y00006818
Y00006718
X00003208
Y00006618
Y00007018
Y00006918
Y00006818
X00005108
Y00006718
Y00006618
Y00007018
Y00006918
X00005208
Y00006818
Y00006718
Y00006618
Y00007018
X00003108Y00007118
Y00007518
Y00007418
Y00007318
Y00007218
X00003208
Y00007118
Y00007518
Y00007418
Y00007318
X00005108
Y00007218
Y00007118
Y00007518
Y00007418
X00005208
Y00007318
Y00007218
Y00007118
Y00007518
X00003108Y00008318
Y00008218
Y00008018
Y00008118
Y00007918
Y00007768
Y00007668
X00003508Y00007818
X00003608
X00004508Y00007918
Y00008018
Y00008118
Y00007818
X00003108Y00008618
Y00008718
Y00008418
X00005208Y00008618
Y00008718
M30
