M48
INCH,TZ
T1C0.025
T2C0.028
T3C0.028
T4C0.031
T5C0.039
T6C0.039
T7C0.040
T8C0.059
%
G90
G05
T1
X19150Y-18300
X22550Y-18800
X23550Y-15450
X25450Y-28650
X27800Y-17000
T2
X43320Y-14100
X43635Y-13628
X43950Y-14100
X44265Y-13628
X44580Y-14100
T3
X12175Y-33050
X16175Y-33050
T4
X10900Y-18000
X10900Y-19000
X25563Y-19469
X25625Y-15125
X25625Y-15625
X25625Y-16125
T5
X13500Y-23250
X13500Y-30750
X14500Y-23250
X14500Y-30750
X16000Y-39500
T6
X12069Y-24500
X12119Y-31975
X16069Y-24500
X16119Y-31975
X17100Y-38031
X17100Y-42031
X19369Y-28200
X19469Y-35700
X19469Y-43200
T7
X19700Y-13000
X19700Y-14000
X20700Y-13000
X20700Y-14000
X21700Y-13000
T8
X12000Y-39000
X12500Y-20250
X12500Y-27750
X13000Y-41500
X15000Y-19250
X15000Y-26750
X20000Y-16500
X20000Y-24000
T0
M30
