%
T01C.01F095S3
X03035Y0305
X03115Y0305
X0307Y0305
X03115Y0308
X03035Y0308
X0307Y0308
X03255Y0314
X03255Y03165
X031791Y032913
X032539Y03313
X03149Y03322
X03225Y034646
X0315Y0348
X0315Y03507
X03192Y03558
X032736Y035591
X032441Y037224
X031555Y037343
X031555Y037559
X032441Y037717
X0325Y038
X0325Y0382
X032736Y03888
X030531Y039272
X030807Y039272
X031693Y039331
X03258Y03975
X03252Y04029
X03183Y0407
X03261Y04112
X03179Y04113
X030925Y041181
X03176Y04151
T02C.02756F197S55
X038807Y04065
X038807Y04265
T03C.0315F197S55
X034517Y04887
X03373Y04887
T04C.035F197S55
X0305Y0315
X03501Y031656
X034223Y031656
X03501Y032444
X034223Y032444
X0305Y0325
X0305Y0335
X0395Y0325
X035797Y032444
X035797Y031656
X0395Y0315
T05C.03543F197S55
X0305Y0465
X0305Y0475
M30
