%
M48
INCH,TZ
;FILE_FORMAT=2:5
T01C0.02400
T02C0.03200
T03C0.03622
%
T01
X199456Y171426
T02
X196456Y161026
X216456Y161026
X236456Y176026
X241456Y183526
X246456Y176026
X266456Y176026
X271456Y183526
X276456Y176026
X266456Y196026
X246456Y196026
X216456Y201026
X216456Y216026
X206456Y216026
X196456Y216026
X186456Y216026
X176456Y216026
X166456Y216026
X156456Y216026
X146456Y216026
X136456Y216026
X126456Y216026
X116456Y216026
X106456Y216026
X96456Y216026
X86456Y216026
X86456Y246026
X96456Y246026
X106456Y246026
X116456Y246026
X126456Y246026
X136456Y246026
T03
X52125Y65947
X59999Y65947
X59999Y56105
X52125Y56105
M30
