M48
;Layer_Color=9474304
;FILE_FORMAT=4:4
METRIC,LZ
;TYPE=PLATED
T1F00S00C0.3000
T2F00S00C0.5000
T3F00S00C0.7000
T4F00S00C0.7620
T5F00S00C1.0000
T7F00S00C1.2000
T8F00S00C1.4000
;TYPE=NON_PLATED
T14F00S00C0.6000
T15F00S00C3.5000
%
T01
X00489123Y00235536
Y00242902
Y0024976
X0047561Y0025036
X00477075Y00292393
X00499745Y00310108
X00525745Y00310108
X00526207Y00285602
X00533573Y00292968
X00540939Y00285602
X00551353Y00295254
X00568625Y00298302
X00576245Y00311256
Y00323956
X0057Y003323
X006025Y003448
X00619425Y00346054
Y00359382
X00619531Y00372082
X00610789Y00371454
X00635935Y0038009
X00643301Y003585
Y00346562
T02
X000675Y003573
X00115
X002825Y003848
X003025
X003205
X00345Y003373
X0035Y003173
Y002848
X00312453Y00277172
X00305001Y00304801
X004225Y001298
Y000923
X0044
X004575
Y001298
X00579953Y00197172
T03
X013937Y001813
Y001973
Y002133
X014057Y002053
Y001893
X01361284Y007367
Y007527
Y007687
X01349284Y007607
Y007447
X013937Y010163
Y010323
Y010483
X014057Y010403
Y010243
X01361284Y015717
Y015877
Y016037
X01349284Y015957
Y015797
T04
X0004995Y00103
Y001157
Y001284
Y001411
Y001538
X0008305Y0007
X0009575
X0010845Y0007025
T05
X008225Y000873
Y001127
Y001381
Y001635
Y001889
X02023984Y001177
X02049384
X02074784
X02100184
X02125584
X02150984
X01932484Y007611
T07
X00172253Y00151372
X00197653
Y00176772
Y00202172
Y00227572
Y00252972
X00172253
Y00227572
Y00202172
Y00176772
X00440609Y0027595
T08
X02495031Y00105328
Y00160328
X02660031
Y00105328
X00259953Y00789672
T14
X02287234Y008502
X02342734
Y016852
X02287234
T15
X01598984Y003202
X02084984
X02570984Y006
X01598984
X01156Y006298
X0067
X01598984Y011552
X02084984
X02570984Y01435
X01598984
X01156Y014648
Y01185
M30
