%FSTAX24Y24*%
%MOMM*%
%LPD*%
G36*
X0979Y0442D02*
G74*
G03*
X096637Y043988J003866D01*
X095951Y043526I000526J001522D01*
X095633Y042961I001193J001044D01*
X0955Y0421I00272J000861D01*
G01*
Y03226D01*
G02*
X094348Y030887I013128J009846D01*
X09283Y02941I016707J015652D01*
X09116Y028117I010482J011821D01*
X08908Y02689I01152J017142D01*
X086869Y025912I009481J01845D01*
X08419Y02506I009835J026282D01*
X081435Y024536I005106J019362D01*
X0781Y02434I003335J028205D01*
X073381Y024763J02651D01*
X06931Y02593I003771J020845D01*
X065966Y027609I008051J020204D01*
X063161Y029712I009999J016255D01*
X062812Y030037I012797J014144D01*
X06247Y03037I013179J013854D01*
X062225Y03062I013361J013361D01*
X061985Y030873I013588J013094D01*
X059782Y033758I013837J012848D01*
X05803Y03724I0185J011492D01*
X056867Y041341I019792J007828D01*
X05644Y04618I027206J004839D01*
X056867Y051019I027633D01*
X05803Y05512I020955J003727D01*
X059736Y058534I020489J008104D01*
X061877Y061393I016449J010087D01*
X06217Y06171I0143J012938D01*
X06247Y06202I014035J013282D01*
X063095Y062623I013532J013391D01*
X063744Y063195I0128J013878D01*
X066305Y065008I012155J014455D01*
X06928Y06646I010683J018114D01*
X073319Y067603I007743J019655D01*
X07804Y06802I004721J026509D01*
X0829Y067667J033661D01*
X08647Y06679I002766J018959D01*
X089895Y065383I011631J033191D01*
X09274Y06382I011577J024439D01*
G01*
X094Y05476D01*
X09262D01*
G03*
X09108Y058535I016013J004333D01*
X088949Y061313I010669J005977D01*
X088247Y061946I008513J008728D01*
X08749Y06253I008J009588D01*
X087475Y06254I007515J010554D01*
X087461Y062551I0075J010565D01*
X083481Y064453I007529J010637D01*
X0781Y0652I005381J019011D01*
X074735Y064869J017274D01*
X071778Y063944I002825J014223D01*
X071639Y063883I005776J013285D01*
X0715Y06382I005918J01323D01*
X069928Y062984I006464J014053D01*
X068503Y061998I007604J012506D01*
X067396Y061037I009028J011519D01*
X06637Y05995I010546J010986D01*
X064533Y057294I012003J010268D01*
X06307Y05395I017686J009727D01*
X062217Y050389I020058J006686D01*
X0619Y04612I028566J004269D01*
X062224Y041914I027451D01*
X0631Y03838I020214J003134D01*
X064589Y035067I019044J006567D01*
X06646Y03241I014048J007906D01*
X067461Y031356I012209J010591D01*
X068536Y030412I010842J011265D01*
X070003Y029371I009768J01221D01*
X07162Y02848I008746J013961D01*
X072126Y028249I006467J013474D01*
X072638Y028037I005928J013629D01*
X075261Y02728I005419J013848D01*
X07816Y02698I003186J016642D01*
X079963Y027089I000345J020688D01*
X081722Y027352I002082J019947D01*
X083429Y027763I003841J019684D01*
X08512Y02833I00572J019868D01*
X088326Y029876I007722J020114D01*
X09088Y03172I008563J01455D01*
G01*
Y04204D01*
G03*
X090752Y042878I002807D01*
X090443Y043437I001522J000476D01*
X08974Y043917I001236J001055D01*
X08842Y04414I00132J003801D01*
G01*
X08752D01*
Y04552D01*
X09874D01*
Y04414D01*
X0979Y0442D01*
G37*
G36*
X12826Y0247D02*
X10372D01*
Y02626D01*
X10504D01*
G03*
X105789Y026347J003271D01*
X106408Y026582I000578J002459D01*
X106724Y026784I001195J00222D01*
X10702Y02704I001648J0022D01*
X107328Y0274I00214J00214D01*
X107561Y027784I002201J001601D01*
X107764Y02833I002436J001218D01*
X10786Y02896I003147J0008D01*
G01*
Y05668D01*
G03*
X107814Y057174I002673D01*
X107684Y057615I00225J000423D01*
X107432Y058074I002121J000864D01*
X10705Y05851I002282J001617D01*
X106756Y058748I00196J002117D01*
X106445Y058938I001549J00219D01*
X105805Y059174I00124J002384D01*
X10504Y05926I000765J003339D01*
G01*
X10372D01*
Y06082D01*
X1213D01*
G03*
X122138Y060847J013022D01*
X12316Y06094I001254J019434D01*
X124178Y061076I003863J032838D01*
X12517Y06124I004685J031391D01*
X126156Y061436I005368J029526D01*
X12697Y06163I004394J020281D01*
X127775Y061856I005257J020277D01*
X12826Y06202I002274J007521D01*
G01*
Y05416D01*
X12664D01*
Y05554D01*
G03*
X126587Y05608I002773D01*
X126438Y056555I002284J000454D01*
X126234Y056927I002134J000928D01*
X12595Y05728I002196J001479D01*
X125693Y057514I001874J001796D01*
X125418Y057704I0015J001882D01*
X124858Y057945I001226J002075D01*
X12418Y05806I000848J002949D01*
G01*
X1126D01*
Y04426D01*
X12208D01*
G03*
X122871Y04443I000169J002708D01*
X123395Y044758I000559J001478D01*
X123459Y044822I001072J001139D01*
X12352Y04489I001152J00109D01*
X123696Y045131I001623J001366D01*
X123829Y045384I001653J001034D01*
X123955Y045784I001788J000782D01*
X124Y04624I002284J000456D01*
G01*
Y0475D01*
X12562D01*
Y03832D01*
X124D01*
Y03958D01*
G03*
X123937Y040126I0024D01*
X123767Y040578I001813J000423D01*
X123668Y040743I001639J000874D01*
X12355Y0409I001607J001084D01*
X123521Y040934I001233J001028D01*
X12349Y040968I0012J001059D01*
X122983Y041333I001181J001103D01*
X1222Y04156I001147J002497D01*
G01*
X11266D01*
Y02776D01*
X12124D01*
G03*
X123195Y027953I000437J014416D01*
X12463Y02833I001365J00812D01*
X12598Y028945I003157J008727D01*
X12706Y02968I003494J006289D01*
X127997Y030593I004979J006046D01*
X12883Y03172I006791J005892D01*
X129532Y032945I015653J009783D01*
X13018Y0343I018497J009679D01*
G01*
X13186D01*
X12826Y0247D01*
G37*
G36*
X1507Y06094D02*
G02*
X156079Y060084I000425J019991D01*
X1597Y05821I003252J010722D01*
X160912Y057081I005683J007316D01*
X161827Y05584I00598J005366D01*
X162722Y053685I006913J004135D01*
X16306Y05098I010663J002705D01*
X162955Y049509I010352D01*
X162651Y04813I009396J001349D01*
X16256Y047844I00909J002727D01*
X16246Y04756I009035J003025D01*
X162116Y046744I009461J003504D01*
X161708Y045973I008834J004186D01*
X161261Y045281I008425J004956D01*
X16075Y04462I008207J00581D01*
X160444Y044271I008255J006942D01*
X160124Y043938I00789J007237D01*
X159191Y043107I007571J007571D01*
X15814Y04237I007004J008865D01*
X158036Y042306I005548J008948D01*
X15793Y042243I005441J009007D01*
X156468Y041529I005337J009073D01*
X15484Y04102I004254J010746D01*
X155699Y040257I007002J008752D01*
X1567Y03919I012758J012967D01*
X157634Y03806I024523J021209D01*
X15838Y03706I018422J01453D01*
G01*
Y03712D01*
G03*
X159177Y035992I037549J025691D01*
X16Y0349I036058J026313D01*
X160733Y03395I034721J026041D01*
X16162Y03286I046651J037046D01*
X162527Y031786I07776J0648D01*
X16342Y03076I071953J061674D01*
X164274Y029813I031088J027202D01*
X16504Y02902I022607J021047D01*
X165852Y028279I008578J008578D01*
X16666Y02767I006575J00789D01*
X166909Y027509I003747J005522D01*
X167164Y02736I00347J005638D01*
X167805Y027048I003215J005787D01*
X16849Y0268I002695J006385D01*
X169492Y026583I001841J006077D01*
X17074Y0265I001248J009358D01*
G01*
Y02494D01*
X16846D01*
G02*
X16596Y025087J02132D01*
X16414Y02545I001374J011637D01*
X162383Y02606I004375J015441D01*
X16102Y02674I004112J009945D01*
X159762Y027597I005997J010149D01*
X15883Y02845I004996J006398D01*
X15797Y029389I046034J043064D01*
X15724Y03022I035391J031792D01*
X156966Y030541I001909J001909D01*
X15604Y03187I03211J023353D01*
G03*
X155123Y033208I054135J03609D01*
X15412Y0346I059533J04187D01*
G01*
X15148Y03832D01*
G03*
X151427Y038387I012589J009852D01*
X151374Y038454I012535J009918D01*
X150271Y039695I012482J009986D01*
X14902Y04084I011876J011716D01*
X147504Y041603I00243J002941D01*
X1444Y04198I003104J012581D01*
G01*
Y02926D01*
G03*
X144468Y028771I002999J000167D01*
X144609Y028327I002604J000583D01*
X144866Y027851I002464J001027D01*
X14524Y0274I002585J00176D01*
X145536Y027144I001944J001944D01*
X145852Y026942I001511J002018D01*
X146471Y026707I001197J002224D01*
X14722Y02662I000749J003184D01*
G01*
X14854D01*
Y02506D01*
X13558D01*
Y02662D01*
X1369D01*
G03*
X137694Y026715J003374D01*
X138342Y026969I000602J002485D01*
X138619Y027149I001246J002226D01*
X13888Y02737I001628J002186D01*
X13923Y027774I002053J002136D01*
X139481Y028204I002078J001497D01*
X139643Y028673I002328J001067D01*
X13972Y0292I002878J000692D01*
G01*
Y05686D01*
G03*
X139633Y057421I002911J000162D01*
X139451Y05791I002375J000608D01*
X139209Y058298I002192J001096D01*
X13888Y05866I002231J001699D01*
X138656Y058845I001834J001987D01*
X13842Y059001I001536J002071D01*
X137743Y059277I001303J002233D01*
X1369Y05938I000843J00338D01*
G01*
X13564D01*
Y061D01*
X1507Y06094D01*
G37*
G36*
X18688Y061D02*
G02*
X188496Y060936J020583D01*
X19069Y0607I00301J03823D01*
X192126Y060426I001889J013789D01*
X193493Y06001I003177J012911D01*
X194167Y059744I004544J012495D01*
X19483Y05944I00528J012374D01*
X195331Y059173I003858J007837D01*
X195809Y058876I004285J007441D01*
X197032Y057888I004766J007149D01*
X19813Y05662I006818J007014D01*
X199085Y054632I004985J003618D01*
X19948Y0517I010685J002932D01*
X199364Y050401I00732D01*
X199035Y049231I006255J001128D01*
X198602Y048332I005924J002297D01*
X19801Y04747I006046J003518D01*
X196972Y046345I008679J006972D01*
X195833Y045415I007051J007471D01*
X195185Y044995I005911J0084D01*
X1945Y04462I005383J009021D01*
X197449Y043498I00356J013794D01*
X199767Y041915I005148J010022D01*
X200172Y041538I007452J008424D01*
X20056Y04114I007933J008125D01*
X201677Y039676I00699J006491D01*
X202412Y038153I006843J004244D01*
X202773Y036772I007576J002719D01*
X2029Y03526I008968J001512D01*
X20253Y032371I011454D01*
X20161Y03031I006659J001735D01*
X200793Y029233I00876J005795D01*
X199876Y028305I007408J006409D01*
X199141Y027716I006489J007336D01*
X19834Y02719I00597J00822D01*
X196289Y026207I006681J011307D01*
X19396Y02554I005248J013932D01*
X191549Y025174I005097J025486D01*
X18934Y02506I002209J021258D01*
G01*
X1744D01*
Y02662D01*
X1756D01*
G03*
X176425Y026716J003606D01*
X177108Y026975I000637J002711D01*
X177413Y027165I001318J002447D01*
X1777Y0274I001732J00241D01*
X178145Y027912I002149J002315D01*
X178429Y02845I002086J00145D01*
X178544Y028838I002368J000911D01*
X1786Y02926I002743J000577D01*
G01*
Y0568D01*
G03*
X178503Y05741I002949J000155D01*
X178298Y057928I002326J000624D01*
X178043Y058309I002119J001141D01*
X1777Y05866I002145J00175D01*
X177493Y058822I001911J00223D01*
X177276Y058962I001649J002315D01*
X176529Y059266I001436J002462D01*
X1756Y05938I000929J003727D01*
G01*
X1744D01*
Y061D01*
X18688D01*
G37*
G36*
X2317Y0247D02*
X20716D01*
Y02626D01*
X20848D01*
G03*
X209229Y026347J003271D01*
X209848Y026582I000578J002459D01*
X210164Y026784I001195J00222D01*
X21046Y02704I001648J0022D01*
X210768Y0274I00214J00214D01*
X211001Y027784I002201J001601D01*
X211204Y02833I002436J001218D01*
X2113Y02896I003147J0008D01*
G01*
Y05668D01*
G03*
X211254Y057174I002673D01*
X211124Y057615I00225J000423D01*
X210872Y058074I002121J000864D01*
X21049Y05851I002282J001617D01*
X210196Y058748I00196J002117D01*
X209885Y058938I001549J00219D01*
X209245Y059174I00124J002384D01*
X20848Y05926I000765J003339D01*
G01*
X20716D01*
Y06082D01*
X22474D01*
G03*
X225578Y060847J013022D01*
X2266Y06094I001254J019434D01*
X227618Y061076I003863J032838D01*
X22861Y06124I004685J031391D01*
X229596Y061436I005368J029526D01*
X23041Y06163I004394J020281D01*
X231215Y061856I005257J020277D01*
X2317Y06202I002274J007521D01*
G01*
Y05416D01*
X23008D01*
Y05554D01*
G03*
X230027Y05608I002773D01*
X229878Y056555I002284J000454D01*
X229674Y056927I002134J000928D01*
X22939Y05728I002196J001479D01*
X229133Y057514I001874J001796D01*
X228858Y057704I0015J001882D01*
X228298Y057945I001226J002075D01*
X22762Y05806I000848J002949D01*
G01*
X21604D01*
Y04426D01*
X22552D01*
G03*
X226311Y04443I000169J002708D01*
X226835Y044758I000559J001478D01*
X226899Y044822I001072J001139D01*
X22696Y04489I001152J00109D01*
X227136Y045131I001623J001366D01*
X227269Y045384I001653J001034D01*
X227395Y045784I001788J000782D01*
X22744Y04624I002284J000456D01*
G01*
Y0475D01*
X22906D01*
Y03832D01*
X22744D01*
Y03958D01*
G03*
X227377Y040126I0024D01*
X227207Y040578I001813J000423D01*
X227108Y040743I001639J000874D01*
X22699Y0409I001607J001084D01*
X226961Y040934I001233J001028D01*
X22693Y040968I0012J001059D01*
X226423Y041333I001181J001103D01*
X22564Y04156I001147J002497D01*
G01*
X2161D01*
Y02776D01*
X22468D01*
G03*
X226635Y027953I000437J014416D01*
X22807Y02833I001365J00812D01*
X22942Y028945I003157J008727D01*
X2305Y02968I003494J006289D01*
X231437Y030593I004979J006046D01*
X23227Y03172I006791J005892D01*
X232972Y032945I015653J009783D01*
X23362Y0343I018497J009679D01*
G01*
X2353D01*
X2317Y0247D01*
G37*
G36*
X25414Y06094D02*
G02*
X259519Y060084I000425J019991D01*
X26314Y05821I003252J010722D01*
X264352Y057081I005683J007316D01*
X265267Y05584I00598J005366D01*
X266162Y053685I006913J004135D01*
X2665Y05098I010663J002705D01*
X266395Y049509I010352D01*
X266091Y04813I009396J001349D01*
X266Y047844I00909J002727D01*
X2659Y04756I009035J003025D01*
X265556Y046744I009461J003504D01*
X265148Y045973I008834J004186D01*
X264701Y045281I008425J004956D01*
X26419Y04462I008207J00581D01*
X263884Y044271I008255J006942D01*
X263564Y043938I00789J007237D01*
X262631Y043107I007571J007571D01*
X26158Y04237I007004J008865D01*
X261476Y042306I005548J008948D01*
X26137Y042243I005441J009007D01*
X259908Y041529I005337J009073D01*
X25828Y04102I004254J010746D01*
X259139Y040257I007002J008752D01*
X26014Y03919I012758J012967D01*
X261074Y03806I024523J021209D01*
X26182Y03706I018422J01453D01*
G01*
Y03712D01*
G03*
X262617Y035992I037549J025691D01*
X26344Y0349I036058J026313D01*
X264173Y03395I034721J026041D01*
X26506Y03286I046651J037046D01*
X265967Y031786I07776J0648D01*
X26686Y03076I071953J061674D01*
X267714Y029813I031088J027202D01*
X26848Y02902I022607J021047D01*
X269292Y028279I008578J008578D01*
X2701Y02767I006575J00789D01*
X270349Y027509I003747J005522D01*
X270604Y02736I00347J005638D01*
X271245Y027048I003215J005787D01*
X27193Y0268I002695J006385D01*
X272932Y026583I001841J006077D01*
X27418Y0265I001248J009358D01*
G01*
Y02494D01*
X2719D01*
G02*
X2694Y025087J02132D01*
X26758Y02545I001374J011637D01*
X265823Y02606I004375J015441D01*
X26446Y02674I004112J009945D01*
X263202Y027597I005997J010149D01*
X26227Y02845I004996J006398D01*
X26141Y029389I046034J043064D01*
X26068Y03022I035391J031792D01*
X260406Y030541I001909J001909D01*
X25948Y03187I03211J023353D01*
G03*
X258563Y033208I054135J03609D01*
X25756Y0346I059533J04187D01*
G01*
X25492Y03832D01*
G03*
X254867Y038387I012589J009852D01*
X254814Y038454I012535J009918D01*
X253711Y039695I012482J009986D01*
X25246Y04084I011876J011716D01*
X250944Y041603I00243J002941D01*
X24784Y04198I003104J012581D01*
G01*
Y02926D01*
G03*
X247908Y028771I002999J000167D01*
X248049Y028327I002604J000583D01*
X248306Y027851I002464J001027D01*
X24868Y0274I002585J00176D01*
X248976Y027144I001944J001944D01*
X249292Y026942I001511J002018D01*
X249911Y026707I001197J002224D01*
X25066Y02662I000749J003184D01*
G01*
X25198D01*
Y02506D01*
X23902D01*
Y02662D01*
X24034D01*
G03*
X241134Y026715J003374D01*
X241782Y026969I000602J002485D01*
X242059Y027149I001246J002226D01*
X24232Y02737I001628J002186D01*
X24267Y027774I002053J002136D01*
X242921Y028204I002078J001497D01*
X243083Y028673I002328J001067D01*
X24316Y0292I002878J000692D01*
G01*
Y05686D01*
G03*
X243073Y057421I002911J000162D01*
X242891Y05791I002375J000608D01*
X242649Y058298I002192J001096D01*
X24232Y05866I002231J001699D01*
X242096Y058845I001834J001987D01*
X24186Y059001I001536J002071D01*
X241183Y059277I001303J002233D01*
X24034Y05938I000843J00338D01*
G01*
X23908D01*
Y061D01*
X25414Y06094D01*
G37*
G36*
X2779Y04372D02*
X2959D01*
X29626Y0424D01*
X2959Y04108D01*
X2779D01*
X27754Y04246D01*
X2779Y04372D01*
G37*
G36*
X32842Y03412D02*
X32488Y02488D01*
X30034D01*
Y02644D01*
X30166D01*
G03*
X302409Y026527J003271D01*
X303028Y026762I000578J002459D01*
X303344Y026964I001195J00222D01*
X30364Y02722I001648J0022D01*
X303948Y02758I00214J00214D01*
X304181Y027964I002201J001601D01*
X304384Y02851I002436J001218D01*
X30448Y02914I003147J0008D01*
G01*
Y05668D01*
G03*
X304429Y057073I002707J00015D01*
X304325Y057436I002424J000496D01*
X304029Y058I002324J000861D01*
X30355Y05854I002602J001828D01*
X303138Y058854I002155J002403D01*
X302704Y059082I001558J002429D01*
X30213Y059257I001125J002659D01*
X30148Y05932I00065J003347D01*
G01*
X30028D01*
Y06094D01*
X31336D01*
Y05932D01*
X31216D01*
G03*
X31151Y059257J003409D01*
X310936Y059082I00055J002834D01*
X310502Y058854I001124J002657D01*
X31009Y05854I001742J002717D01*
X309611Y058I002122J002367D01*
X309315Y057436I002028J001425D01*
X309211Y057073I00232J000859D01*
X30916Y05668I002656J000543D01*
G01*
Y02776D01*
X31774D01*
G03*
X319635Y027951I000431J013776D01*
X32107Y02833I001412J008252D01*
X322419Y028947I003076J008506D01*
X32353Y02971I003655J006515D01*
X323839Y029978I005592J00675D01*
X324133Y030259I00585J006425D01*
X324765Y030963I006144J006144D01*
X32533Y03175I007101J005701D01*
X326023Y03295I012589J00807D01*
X32668Y03436I016743J00866D01*
G01*
X32842Y03412D01*
G37*
G36*
X35068Y06106D02*
G03*
X351518Y061087J013022D01*
X35254Y06118I001254J019434D01*
X353558Y061316I003863J032838D01*
X35455Y06148I004685J031391D01*
X355537Y061675I005974J032857D01*
X35638Y06187I005154J024183D01*
X357215Y062097I00496J019839D01*
X3577Y06226I002029J006869D01*
G01*
Y0544D01*
X35608D01*
Y05578D01*
G03*
X356027Y05632I002773D01*
X355878Y056795I002284J000454D01*
X355674Y057167I002134J000928D01*
X35539Y05752I002196J001479D01*
X355133Y057754I001874J001796D01*
X354858Y057944I0015J001882D01*
X354298Y058185I001226J002075D01*
X35362Y0583I000848J002949D01*
G01*
X3436D01*
Y0292D01*
G03*
X343656Y028778I002798J000155D01*
X343771Y02839I002483J000523D01*
X344055Y027852I002371J000912D01*
X3445Y02734I002594J001802D01*
X344869Y027047I002084J002244D01*
X345258Y026827I001548J00229D01*
X345853Y026631I00116J002512D01*
X34654Y02656I000687J003293D01*
G01*
X34774D01*
Y025D01*
X33472D01*
Y02656D01*
X33592D01*
G03*
X33664Y026639J003318D01*
X337249Y026855I000574J002583D01*
X3376Y027066I001182J002364D01*
X33793Y02734I001683J002364D01*
X338269Y027723I002256J002343D01*
X338528Y028132I002332J001761D01*
X338741Y02866I002592J001352D01*
X33886Y02926I003246J000955D01*
G01*
Y0583D01*
X32878D01*
G03*
X328076Y058176I000167J003008D01*
X327511Y057917I000659J002184D01*
X327267Y057737I001222J00192D01*
X32704Y05752I001572J001866D01*
X32679Y057202I001942J00178D01*
X326604Y056866I001979J00132D01*
X326439Y056361I002168J000985D01*
X32638Y05578I002821J000581D01*
G01*
Y0544D01*
X3247D01*
Y06226D01*
G03*
X325185Y062097I002515J006706D01*
X32602Y06187I005794J019611D01*
X326863Y061675I005997J023988D01*
X32785Y06148I006961J032663D01*
X328842Y061316I005678J031226D01*
X32986Y06118I004881J032702D01*
X330882Y061087I002275J019341D01*
X33172Y06106I000838J012995D01*
G01*
X35068D01*
G37*
G36*
X37882Y06184D02*
G02*
X382954Y06148J023908D01*
X38668Y06046I003582J0204D01*
X389707Y05904I007562J020057D01*
X392326Y057252I00953J016773D01*
X392717Y056926I012146J01498D01*
X3931Y05659I012571J014695D01*
X394074Y055643I012232J013559D01*
X394965Y054638I012912J012331D01*
X396314Y052756I013804J011327D01*
X39745Y05065I01619J010091D01*
X398618Y047107I01496J006895D01*
X39904Y043I019762J004107D01*
X398618Y038893I020184D01*
X39745Y03535I016128J003352D01*
X396314Y033244I017326J007985D01*
X394965Y031362I015154J009445D01*
X394074Y030357I013803J011325D01*
X3931Y02941I013206J012612D01*
X392717Y029074I012954J014359D01*
X392326Y028748I012537J014654D01*
X389707Y02696I01215J014985D01*
X38668Y02554I010589J018637D01*
X382954Y02452I007307J01938D01*
X37882Y02416I004134J023548D01*
X374727Y024511J024017D01*
X371007Y025511I003598J020801D01*
X370968Y025526I007314J01979D01*
X37093Y02554I007352J019776D01*
X367735Y027045I007518J020104D01*
X365007Y028952I009517J016522D01*
X364742Y029178I01224J014609D01*
X36448Y02941I012522J014401D01*
X363506Y030357I012232J013559D01*
X362615Y031362I012912J012331D01*
X361266Y033244I013804J011327D01*
X36013Y03535I01619J010091D01*
X358962Y038893I01496J006895D01*
X35854Y043I019762J004107D01*
X358962Y047107I020184D01*
X36013Y05065I016128J003352D01*
X361266Y052756I017326J007985D01*
X362615Y054638I015154J009445D01*
X363506Y055643I013803J011325D01*
X36448Y05659I013206J012612D01*
X364742Y056822I012783J01417D01*
X365007Y057048I012505J014382D01*
X367735Y058955I012245J014615D01*
X37093Y06046I010713J018599D01*
X370968Y060474I007391J019762D01*
X371007Y060489I007352J019776D01*
X374727Y061489I007318J019801D01*
X37882Y06184I004093J023666D01*
G37*
G36*
X42358D02*
X427714Y06148J023908D01*
X43144Y06046I003582J0204D01*
X434467Y05904I007562J020057D01*
X437086Y057252I00953J016773D01*
X437477Y056926I012146J01498D01*
X43786Y05659I012571J014695D01*
X438834Y055643I012232J013559D01*
X439725Y054638I012912J012331D01*
X441074Y052756I013804J011327D01*
X44221Y05065I01619J010091D01*
X443378Y047107I01496J006895D01*
X4438Y043I019762J004107D01*
X443378Y038893I020184D01*
X44221Y03535I016128J003352D01*
X441074Y033244I017326J007985D01*
X439725Y031362I015154J009445D01*
X438834Y030357I013803J011325D01*
X43786Y02941I013206J012612D01*
X437477Y029074I012954J014359D01*
X437086Y028748I012537J014654D01*
X434467Y02696I01215J014985D01*
X43144Y02554I010589J018637D01*
X427714Y02452I007307J01938D01*
X42358Y02416I004134J023548D01*
X419487Y024511J024017D01*
X415767Y025511I003598J020801D01*
X415728Y025526I007314J01979D01*
X41569Y02554I007352J019776D01*
X412495Y027045I007518J020104D01*
X409767Y028952I009517J016522D01*
X409502Y029178I01224J014609D01*
X40924Y02941I012522J014401D01*
X408266Y030357I012232J013559D01*
X407375Y031362I012912J012331D01*
X406026Y033244I013804J011327D01*
X40489Y03535I01619J010091D01*
X403722Y038893I01496J006895D01*
X4033Y043I019762J004107D01*
X403722Y047107I020184D01*
X40489Y05065I016128J003352D01*
X406026Y052756I017326J007985D01*
X407375Y054638I015154J009445D01*
X408266Y055643I013803J011325D01*
X40924Y05659I013206J012612D01*
X409502Y056822I012783J01417D01*
X409767Y057048I012505J014382D01*
X412495Y058955I012245J014615D01*
X41569Y06046I010713J018599D01*
X415728Y060474I007391J019762D01*
X415767Y060489I007352J019776D01*
X419487Y061489I007318J019801D01*
X42358Y06184I004093J023666D01*
G37*
G36*
X47644Y03412D02*
G01*
X4729Y02488D01*
X44836D01*
Y02644D01*
X44968D01*
G03*
X450429Y026527J003271D01*
X451048Y026762I000578J002459D01*
X451364Y026964I001195J00222D01*
X45166Y02722I001648J0022D01*
X451968Y02758I00214J00214D01*
X452201Y027964I002201J001601D01*
X452404Y02851I002436J001218D01*
X4525Y02914I003147J0008D01*
G01*
Y05668D01*
G03*
X452449Y057073I002707J00015D01*
X452345Y057436I002424J000496D01*
X452049Y058I002324J000861D01*
X45157Y05854I002602J001828D01*
X451158Y058854I002155J002403D01*
X450724Y059082I001558J002429D01*
X45015Y059257I001125J002659D01*
X4495Y05932I00065J003347D01*
G01*
X4483D01*
Y06094D01*
X46138D01*
Y05932D01*
X46018D01*
G03*
X45953Y059257J003409D01*
X458956Y059082I00055J002834D01*
X458522Y058854I001124J002657D01*
X45811Y05854I001742J002717D01*
X457631Y058I002122J002367D01*
X457335Y057436I002028J001425D01*
X457231Y057073I00232J000859D01*
X45718Y05668I002656J000543D01*
G01*
Y02776D01*
X46576D01*
G03*
X467655Y027951I000431J013776D01*
X46909Y02833I001412J008252D01*
X470439Y028947I003076J008506D01*
X47155Y02971I003655J006515D01*
X471859Y029978I005592J00675D01*
X472153Y030259I00585J006425D01*
X472785Y030963I006144J006144D01*
X47335Y03175I007101J005701D01*
X474043Y03295I012589J00807D01*
X4747Y03436I016743J00866D01*
G01*
X47644Y03412D01*
G37*
G36*
X50026Y04072D02*
G02*
X500699Y040321I004403J005284D01*
X501095Y039892I004697J004739D01*
X501807Y038871I005096J004312D01*
X50236Y03766I006645J003765D01*
X502877Y035773I012578J004463D01*
X50308Y034I010893J002143D01*
X503Y032785I009227D01*
X502766Y031634I008497J001129D01*
X502524Y030891I008262J002279D01*
X50221Y03016I008289J003124D01*
X501723Y029264I009598J004639D01*
X501162Y028435I008773J00533D01*
X500554Y027699I008212J006159D01*
X49987Y02701I00787J007136D01*
X49982Y026964I007046J007672D01*
X49977Y026919I006994J007716D01*
X49824Y025784I006948J007765D01*
X49642Y02488I006167J010131D01*
X496021Y024732I004068J010326D01*
X495618Y024599I003648J010413D01*
X493977Y024228I003246J010548D01*
X49222Y0241I001757J011959D01*
X490903Y024142J020683D01*
X4894Y02428I001726J027044D01*
X487909Y024508I002806J023386D01*
X48649Y02482I003987J021485D01*
X485101Y025239I004215J016509D01*
X48382Y02575I00506J014528D01*
X482616Y026405I003858J008529D01*
X48172Y0271I003469J005397D01*
X481618Y027583I006372J001593D01*
X48154Y02815I00869J00149D01*
X481496Y028721I010144J001068D01*
X48148Y02938I013513J000659D01*
X481533Y030636I01481D01*
X48172Y0322I023171J001972D01*
X482027Y033743I017776J002735D01*
X48244Y03514I014965J003665D01*
G01*
X48406D01*
G03*
X484003Y0346I049139J00546D01*
X48397Y03424I021748J002175D01*
X483946Y03388I010843J000904D01*
X48394Y03364I004795J00024D01*
X484244Y031416I008276D01*
X485024Y029752I005345J001491D01*
X485461Y0292I004541J003138D01*
X48598Y02869I004376J003936D01*
X486293Y028434I004471J005153D01*
X486618Y0282I0041J005333D01*
X488615Y027278I003793J005595D01*
X49126Y02692I002645J009595D01*
G01*
X49168D01*
G03*
X494938Y027476I000434J012357D01*
X49705Y0286I001933J00618D01*
X497757Y029276I003456J004319D01*
X49829Y030017I003622J00317D01*
X498806Y031284I004165J002435D01*
X499Y03286I006314J001576D01*
X498926Y033808I006078D01*
X498712Y034684I005399J000853D01*
X498636Y034898I005184J001728D01*
X49855Y03511I005143J001956D01*
X49798Y036071I003954J001695D01*
X49702Y03706I005156J004045D01*
G01*
X49708D01*
X48538Y04606D01*
G02*
X483873Y047716I006043J00701D01*
X48304Y04936I005113J003626D01*
X482563Y051182I01364J004547D01*
X48238Y05278I010289J001986D01*
X482434Y053746I008646D01*
X482593Y054674I008156J000917D01*
X482831Y055503I007997J001845D01*
X48316Y05632I008105J002793D01*
X483661Y05725I008102J003762D01*
X484251Y058088I00717J004425D01*
X484756Y058664I006579J005263D01*
X48532Y0592I006277J006033D01*
X486786Y060258I00657J007555D01*
X48856Y06112I006079J010259D01*
X490455Y061651I003704J00957D01*
X49258Y06184I002125J011863D01*
X494558Y061796J044739D01*
X49597Y06169I001014J022912D01*
X497374Y061503I002819J026496D01*
X4984Y0613I002305J014359D01*
G01*
X50074D01*
X50092Y05398D01*
X49924D01*
G03*
X499002Y055709I006388D01*
X498392Y056995I004088J001149D01*
X498091Y057376I00346J002422D01*
X49774Y05773I003328J002953D01*
X496076Y058654I00284J003156D01*
X49306Y05908I003016J010457D01*
X491696Y058978J009124D01*
X49048Y05869I001139J007534D01*
X489327Y05821I002403J007394D01*
X48838Y05761I002868J005576D01*
X487562Y056849I003561J004644D01*
X48697Y05602I003636J003225D01*
X486813Y055712I003443J001951D01*
X486685Y055396I00349J001592D01*
X486518Y054748I003619J001277D01*
X48646Y05404I004261J000708D01*
X486559Y053039I005106D01*
X48688Y05194I006477J001295D01*
X487442Y050964I003469J001349D01*
X48856Y04984I005754J004603D01*
G01*
X50026Y04072D01*
G37*
%LPC*%
G36*
X14794Y04354D02*
G03*
X1486Y043546J034981D01*
X14953Y04357I001312J069519D01*
X150459Y043611I001248J038693D01*
X15166Y04369I003642J064651D01*
X152579Y043815I000571J007613D01*
X153448Y044046I001401J007039D01*
X153695Y044133I002269J006808D01*
X15394Y04423I00253J006757D01*
X154949Y044784I002074J004978D01*
X15592Y04561I003781J005424D01*
X156678Y046627I003555J00344D01*
X15742Y04828I008797J004942D01*
X157723Y049441I005776J002128D01*
X15784Y05092I009297J001479D01*
X157818Y051275I00286D01*
X15778Y0514I000384J000048D01*
X157436Y053612I008327J000163D01*
X156629Y055268I005408J001609D01*
X156245Y055751I004578J003249D01*
X1558Y0562I004399J003915D01*
X155771Y056226I004329J004777D01*
X155742Y056252I0043J004802D01*
X153647Y057495I004308J00487D01*
X15058Y05812I003652J010089D01*
X14938Y058165I002466J049326D01*
X14824Y05818I00114J044446D01*
G01*
X1444D01*
Y04354D01*
X14794D01*
G37*
G36*
X18934Y02776D02*
G03*
X191063Y027878J012639D01*
X19261Y02821I001446J010509D01*
X194066Y028798I002269J007714D01*
X19525Y02959I003065J005863D01*
X195385Y029706I004094J004886D01*
X195516Y029825I004215J004755D01*
X19634Y030767I004349J004639D01*
X19702Y03193I006006J004293D01*
X197496Y033381I005726J00268D01*
X19768Y03526I00948J001879D01*
X197323Y03778I009084D01*
X19645Y03952I005107J001475D01*
X196057Y039998I006339J004813D01*
X195633Y040438I005802J005162D01*
X194556Y041302I005381J005605D01*
X19327Y04201I004865J007313D01*
X191275Y042717I005443J0122D01*
X18889Y04318I00454J016996D01*
X186455Y043396I004353J035256D01*
X18334Y04348I003115J057624D01*
G01*
Y02776D01*
X18934D01*
G37*
G36*
X18754Y04522D02*
G03*
X189305Y045582I001705J012787D01*
X19087Y04615I002962J010605D01*
X191704Y046599I002793J006194D01*
X192435Y047138I003339J005289D01*
X192935Y047617I00407J004748D01*
X19339Y04816I004796J004481D01*
X194089Y049577I003428J002571D01*
X19438Y0517I007591J002123D01*
X193939Y054473I008951D01*
X192909Y056214I004415J001439D01*
X192665Y056455I003334J003132D01*
X1924Y05668I00316J00345D01*
X190257Y057769I003794J004815D01*
X18682Y05824I003437J012293D01*
G01*
X18334D01*
Y04504D01*
G03*
X185737Y045091J055992D01*
X18754Y04522I001362J03177D01*
G37*
G36*
X25138Y04354D02*
X25204Y043546J034981D01*
X25297Y04357I001312J069519D01*
X253899Y043611I001248J038693D01*
X2551Y04369I003642J064651D01*
X256019Y043815I000571J007613D01*
X256888Y044046I001401J007039D01*
X257135Y044133I002269J006808D01*
X25738Y04423I00253J006757D01*
X258389Y044784I002074J004978D01*
X25936Y04561I003781J005424D01*
X260118Y046627I003555J00344D01*
X26086Y04828I008797J004942D01*
X261163Y049441I005776J002128D01*
X26128Y05092I009297J001479D01*
X261258Y051275I00286D01*
X26122Y0514I000384J000048D01*
X260876Y053612I008327J000163D01*
X260069Y055268I005408J001609D01*
X259685Y055751I004578J003249D01*
X25924Y0562I004399J003915D01*
X259211Y056226I004329J004777D01*
X259182Y056252I0043J004802D01*
X257087Y057495I004308J00487D01*
X25402Y05812I003652J010089D01*
X25282Y058165I002466J049326D01*
X25168Y05818I00114J044446D01*
G01*
X24784D01*
Y04354D01*
X25138D01*
G37*
G36*
X37882Y02692D02*
G03*
X381428Y027138J015683D01*
X383809Y027761I002308J013687D01*
X384227Y027919I004687J013058D01*
X38464Y02809I005126J012954D01*
X386152Y02885I005948J013725D01*
X38753Y029753I007073J012293D01*
X388467Y030512I00845J011389D01*
X38935Y03136I009661J01094D01*
X391105Y033622I009981J009553D01*
X3925Y03643I014081J008748D01*
X393335Y039457I015079J005788D01*
X39364Y043I020421J003543D01*
X393335Y046543I020727D01*
X3925Y04957I015914J002761D01*
X391105Y052378I015476J00594D01*
X38935Y05464I011736J007291D01*
X388467Y055488I010544J010092D01*
X38753Y056247I009388J01063D01*
X386152Y05715I008451J01139D01*
X38464Y05791I00746J012966D01*
X384227Y058081I005539J012783D01*
X383809Y058239I005105J0129D01*
X381428Y058862I00469J013064D01*
X37882Y05908I002608J015465D01*
X376355Y058887J015803D01*
X374078Y058331I002217J014039D01*
X37352Y058132I004493J013478D01*
X37297Y05791I005085J013372D01*
X371298Y057066I005912J013794D01*
X369796Y056051I007103J01213D01*
X368991Y055379I008604J011114D01*
X36823Y05464I00962J010675D01*
X366475Y052378I009981J009553D01*
X36508Y04957I014081J008748D01*
X364245Y046543I015079J005788D01*
X36394Y043I020421J003543D01*
X364245Y039457I020727D01*
X36508Y03643I015914J002761D01*
X366475Y033622I015476J00594D01*
X36823Y03136I011736J007291D01*
X368991Y030621I010381J009936D01*
X369796Y029949I009409J010441D01*
X371298Y028934I008605J011115D01*
X37297Y02809I007584J01295D01*
X37352Y027868I005635J013149D01*
X374078Y027669I00505J01328D01*
X376355Y027113I004494J013483D01*
X37882Y02692I002465J015609D01*
G37*
G36*
X42358D02*
X426188Y027138J015683D01*
X428569Y027761I002308J013687D01*
X428987Y027919I004687J013058D01*
X4294Y02809I005126J012954D01*
X430912Y02885I005948J013725D01*
X43229Y029753I007073J012293D01*
X433227Y030512I00845J011389D01*
X43411Y03136I009661J01094D01*
X435865Y033622I009981J009553D01*
X43726Y03643I014081J008748D01*
X438095Y039457I015079J005788D01*
X4384Y043I020421J003543D01*
X438095Y046543I020727D01*
X43726Y04957I015914J002761D01*
X435865Y052378I015476J00594D01*
X43411Y05464I011736J007291D01*
X433227Y055488I010544J010092D01*
X43229Y056247I009388J01063D01*
X430912Y05715I008451J01139D01*
X4294Y05791I00746J012966D01*
X428987Y058081I005539J012783D01*
X428569Y058239I005105J0129D01*
X426188Y058862I00469J013064D01*
X42358Y05908I002608J015465D01*
X421115Y058887J015803D01*
X418838Y058331I002217J014039D01*
X41828Y058132I004493J013478D01*
X41773Y05791I005085J013372D01*
X416058Y057066I005912J013794D01*
X414556Y056051I007103J01213D01*
X413751Y055379I008604J011114D01*
X41299Y05464I00962J010675D01*
X411235Y052378I009981J009553D01*
X40984Y04957I014081J008748D01*
X409005Y046543I015079J005788D01*
X4087Y043I020421J003543D01*
X409005Y039457I020727D01*
X40984Y03643I015914J002761D01*
X411235Y033622I015476J00594D01*
X41299Y03136I011736J007291D01*
X413751Y030621I010381J009936D01*
X414556Y029949I009409J010441D01*
X416058Y028934I008605J011115D01*
X41773Y02809I007584J01295D01*
X41828Y027868I005635J013149D01*
X418838Y027669I00505J01328D01*
X421115Y027113I004494J013483D01*
X42358Y02692I002465J015609D01*
G37*
M02*
