%FSLAX21Y21*%
%MOMM*%
%ADD10C,4*%
%ADD11C,2*%
%ADD12C,0.5*%
%LPD*%
D10*
X120Y240D02*
G01*
X260D01*
D11*
X110Y110D02*
X120D01*
X245D01*
X315D02*
X440D01*
D12*
X260Y100D03*
Y120D03*
X270Y100D03*
Y120D03*
X280Y100D03*
Y120D03*
X290Y100D03*
Y120D03*
X300Y100D03*
Y120D03*
D11*
X440Y110D02*
X450D01*
X110Y370D02*
X120D01*
X245D01*
X315D02*
X440D01*
D12*
X260Y360D03*
Y380D03*
X270Y360D03*
Y380D03*
X280Y360D03*
Y380D03*
X290Y360D03*
Y380D03*
X300Y360D03*
Y380D03*
D11*
X440Y370D02*
X450D01*
X110Y-10D02*
Y0D01*
Y15D01*
Y85D02*
Y100D01*
D12*
X100Y30D03*
X120D03*
X100Y40D03*
X120D03*
X100Y50D03*
X120D03*
X100Y60D03*
X120D03*
X100Y70D03*
X120D03*
D11*
X110Y100D02*
Y120D01*
Y135D01*
Y205D02*
Y220D01*
D12*
X100Y150D03*
X120D03*
X100Y160D03*
X120D03*
X100Y170D03*
X120D03*
X100Y180D03*
X120D03*
X100Y190D03*
X120D03*
D11*
X110Y220D02*
Y260D01*
Y275D01*
Y345D02*
Y360D01*
D12*
X100Y290D03*
X120D03*
X100Y300D03*
X120D03*
X100Y310D03*
X120D03*
X100Y320D03*
X120D03*
X100Y330D03*
X120D03*
D11*
X110Y360D02*
Y380D01*
Y395D01*
Y465D02*
Y480D01*
D12*
X100Y410D03*
X120D03*
X100Y420D03*
X120D03*
X100Y430D03*
X120D03*
X100Y440D03*
X120D03*
X100Y450D03*
X120D03*
D11*
X110Y480D02*
Y490D01*
X450Y-10D02*
Y0D01*
Y15D01*
Y85D02*
Y100D01*
D12*
X440Y30D03*
X460D03*
X440Y40D03*
X460D03*
X440Y50D03*
X460D03*
X440Y60D03*
X460D03*
X440Y70D03*
X460D03*
D11*
X450Y100D02*
Y120D01*
Y205D01*
Y275D02*
Y360D01*
D12*
X440Y220D03*
X460D03*
X440Y230D03*
X460D03*
X440Y240D03*
X460D03*
X440Y250D03*
X460D03*
X440Y260D03*
X460D03*
D11*
X450Y360D02*
Y380D01*
Y395D01*
Y465D02*
Y480D01*
D12*
X440Y410D03*
X460D03*
X440Y420D03*
X460D03*
X440Y430D03*
X460D03*
X440Y440D03*
X460D03*
X440Y450D03*
X460D03*
D11*
X450Y480D02*
Y490D01*
M02*
