%FSTAX24Y24*%
%MOMM*%
%LPD*%
G36*
X0979Y0442D02*
G01*
X097609Y044192D01*
X097338Y044167D01*
X097084Y044126D01*
X09685Y044069D01*
X096634Y043995D01*
X096438Y043905D01*
X096259Y043798D01*
X0961Y043675D01*
X095959Y043536D01*
X095838Y04338D01*
X095734Y043207D01*
X09565Y043019D01*
X095584Y042814D01*
X095538Y042592D01*
X095509Y042354D01*
X0955Y0421D01*
Y03226D01*
X095363Y03208D01*
X095222Y0319D01*
X095077Y031721D01*
X094928Y031542D01*
X094775Y031363D01*
X094618Y031184D01*
X094457Y031006D01*
X094293Y030828D01*
X094124Y030649D01*
X093951Y030472D01*
X093774Y030294D01*
X093593Y030117D01*
X093408Y02994D01*
X09322Y029763D01*
X093027Y029586D01*
X09283Y02941D01*
X092629Y029235D01*
X092424Y029062D01*
X092214Y028892D01*
X091999Y028724D01*
X091781Y028558D01*
X091557Y028395D01*
X09133Y028234D01*
X091098Y028075D01*
X090861Y027919D01*
X09062Y027765D01*
X090374Y027613D01*
X090124Y027464D01*
X08987Y027317D01*
X089611Y027172D01*
X089348Y02703D01*
X08908Y02689D01*
X088808Y026753D01*
X088531Y026619D01*
X08825Y026487D01*
X087964Y026359D01*
X087674Y026234D01*
X08738Y026112D01*
X087081Y025993D01*
X086778Y025878D01*
X08647Y025765D01*
X086157Y025655D01*
X085841Y025548D01*
X085519Y025444D01*
X085194Y025344D01*
X084864Y025246D01*
X084529Y025152D01*
X08419Y02506D01*
X083846Y024973D01*
X083498Y024891D01*
X083144Y024815D01*
X082786Y024745D01*
X082422Y02468D01*
X082054Y024621D01*
X081681Y024568D01*
X081303Y02452D01*
X080919Y024478D01*
X080531Y024441D01*
X080138Y02441D01*
X079741Y024385D01*
X079338Y024365D01*
X07893Y024351D01*
X078518Y024343D01*
X0781Y02434D01*
X077503Y024346D01*
X076913Y024365D01*
X076328Y024396D01*
X075751Y024439D01*
X075179Y024495D01*
X074614Y024564D01*
X074055Y024644D01*
X073503Y024738D01*
X072956Y024843D01*
X072416Y024961D01*
X071883Y025092D01*
X071356Y025234D01*
X070835Y02539D01*
X07032Y025557D01*
X069812Y025737D01*
X06931Y02593D01*
X068816Y026134D01*
X06833Y026347D01*
X067854Y026571D01*
X067386Y026804D01*
X066928Y027047D01*
X066478Y0273D01*
X066037Y027562D01*
X065605Y027835D01*
X065182Y028117D01*
X064768Y02841D01*
X064363Y028712D01*
X063966Y029024D01*
X063579Y029346D01*
X0632Y029677D01*
X062831Y030019D01*
X06247Y03037D01*
X062119Y030731D01*
X061777Y031101D01*
X061446Y03148D01*
X061124Y031868D01*
X060812Y032266D01*
X06051Y032672D01*
X060217Y033088D01*
X059935Y033513D01*
X059662Y033946D01*
X0594Y03439D01*
X059147Y034842D01*
X058904Y035303D01*
X058671Y035774D01*
X058447Y036253D01*
X058234Y036742D01*
X05803Y03724D01*
X057837Y037746D01*
X057657Y038259D01*
X05749Y038779D01*
X057334Y039306D01*
X057192Y03984D01*
X057061Y040382D01*
X056943Y04093D01*
X056838Y041485D01*
X056744Y042047D01*
X056664Y042617D01*
X056595Y043193D01*
X056539Y043776D01*
X056496Y044367D01*
X056465Y044964D01*
X056446Y045569D01*
X05644Y04618D01*
X056446Y046791D01*
X056465Y047396D01*
X056496Y047993D01*
X056539Y048584D01*
X056595Y049167D01*
X056664Y049743D01*
X056744Y050313D01*
X056838Y050875D01*
X056943Y05143D01*
X057061Y051978D01*
X057192Y05252D01*
X057334Y053054D01*
X05749Y053581D01*
X057657Y054101D01*
X057837Y054614D01*
X05803Y05512D01*
X058234Y055618D01*
X058447Y056107D01*
X058671Y056587D01*
X058904Y057059D01*
X059147Y057521D01*
X0594Y057975D01*
X059662Y058419D01*
X059935Y058855D01*
X060217Y059282D01*
X06051Y0597D01*
X060812Y060109D01*
X061124Y060509D01*
X061446Y0609D01*
X061777Y061282D01*
X062119Y061656D01*
X06247Y06202D01*
X062831Y062375D01*
X0632Y062719D01*
X063578Y063054D01*
X063964Y063378D01*
X06436Y063691D01*
X064764Y063994D01*
X065176Y064287D01*
X065598Y06457D01*
X066027Y064842D01*
X066466Y065104D01*
X066913Y065356D01*
X067369Y065598D01*
X067834Y065829D01*
X068307Y066049D01*
X068789Y06626D01*
X06928Y06646D01*
X069778Y066649D01*
X070283Y066826D01*
X070795Y06699D01*
X071313Y067143D01*
X071837Y067283D01*
X072368Y067411D01*
X072906Y067526D01*
X07345Y06763D01*
X074001Y067721D01*
X074558Y067801D01*
X075122Y067868D01*
X075693Y067923D01*
X07627Y067965D01*
X076853Y067996D01*
X077443Y068014D01*
X07804Y06802D01*
X078649Y068015D01*
X079248Y068001D01*
X079835Y067977D01*
X080412Y067943D01*
X080977Y0679D01*
X081532Y067847D01*
X082075Y067785D01*
X082608Y067713D01*
X083129Y067631D01*
X083639Y06754D01*
X084139Y067439D01*
X084627Y067328D01*
X085104Y067208D01*
X08557Y067078D01*
X086026Y066939D01*
X08647Y06679D01*
X086906Y066634D01*
X087336Y066475D01*
X08776Y066311D01*
X088178Y066143D01*
X088591Y065971D01*
X088997Y065796D01*
X089398Y065616D01*
X089793Y065433D01*
X090181Y065245D01*
X090565Y065053D01*
X090942Y064858D01*
X091313Y064658D01*
X091679Y064455D01*
X092038Y064247D01*
X092392Y064036D01*
X09274Y06382D01*
X094Y05476D01*
X09262D01*
X092438Y055388D01*
X092238Y055997D01*
X092019Y056587D01*
X091782Y057158D01*
X091526Y05771D01*
X091252Y058243D01*
X090959Y058757D01*
X090648Y059253D01*
X090318Y059729D01*
X089969Y060186D01*
X089602Y060624D01*
X089217Y061043D01*
X088813Y061443D01*
X08839Y061825D01*
X087949Y062187D01*
X08749Y06253D01*
X087014Y062853D01*
X086523Y063156D01*
X086017Y063437D01*
X085497Y063698D01*
X084962Y063938D01*
X084412Y064157D01*
X083847Y064355D01*
X083268Y064533D01*
X082673Y064689D01*
X082064Y064825D01*
X08144Y064939D01*
X080802Y065033D01*
X080149Y065106D01*
X07948Y065158D01*
X078798Y06519D01*
X0781Y0652D01*
X077652Y065195D01*
X077209Y065178D01*
X076771Y065151D01*
X076338Y065114D01*
X075909Y065065D01*
X075484Y065006D01*
X075065Y064936D01*
X07465Y064855D01*
X07424Y064763D01*
X073834Y064661D01*
X073434Y064548D01*
X073038Y064424D01*
X072646Y064289D01*
X072259Y064143D01*
X071877Y063987D01*
X0715Y06382D01*
X071128Y063643D01*
X070764Y063458D01*
X070406Y063263D01*
X070054Y063061D01*
X06971Y062849D01*
X069372Y062629D01*
X069042Y0624D01*
X068718Y062163D01*
X0684Y061916D01*
X06809Y061661D01*
X067786Y061398D01*
X067489Y061126D01*
X067199Y060845D01*
X066916Y060555D01*
X06664Y060257D01*
X06637Y05995D01*
X066108Y059635D01*
X065853Y059312D01*
X065605Y05898D01*
X065365Y058641D01*
X065133Y058294D01*
X064908Y057939D01*
X06469Y057576D01*
X06448Y057205D01*
X064278Y056826D01*
X064083Y056439D01*
X063895Y056044D01*
X063715Y055641D01*
X063543Y05523D01*
X063378Y054812D01*
X06322Y054385D01*
X06307Y05395D01*
X062928Y053508D01*
X062796Y05306D01*
X062672Y052605D01*
X062558Y052144D01*
X062453Y051677D01*
X062357Y051204D01*
X06227Y050724D01*
X062193Y050238D01*
X062124Y049745D01*
X062065Y049246D01*
X062014Y048741D01*
X061973Y048229D01*
X061941Y047712D01*
X061918Y047187D01*
X061905Y046657D01*
X0619Y04612D01*
X061905Y045591D01*
X061919Y045067D01*
X061942Y04455D01*
X061975Y044039D01*
X062017Y043534D01*
X062069Y043035D01*
X06213Y042542D01*
X0622Y042055D01*
X06228Y041574D01*
X062369Y0411D01*
X062467Y040631D01*
X062575Y040169D01*
X062692Y039712D01*
X062819Y039262D01*
X062955Y038818D01*
X0631Y03838D01*
X063254Y037949D01*
X063415Y037525D01*
X063584Y03711D01*
X06376Y036702D01*
X063944Y036302D01*
X064135Y035909D01*
X064334Y035524D01*
X06454Y035148D01*
X064754Y034778D01*
X064975Y034417D01*
X065204Y034063D01*
X06544Y033717D01*
X065684Y033379D01*
X065935Y033048D01*
X066194Y032725D01*
X06646Y03241D01*
X066733Y032103D01*
X067013Y031804D01*
X0673Y031513D01*
X067593Y031231D01*
X067892Y030956D01*
X068198Y03069D01*
X068511Y030432D01*
X06883Y030183D01*
X069156Y029941D01*
X069488Y029708D01*
X069827Y029483D01*
X070173Y029266D01*
X070525Y029057D01*
X070883Y028856D01*
X071248Y028664D01*
X07162Y02848D01*
X071997Y028305D01*
X072378Y028142D01*
X072764Y027989D01*
X073154Y027846D01*
X073548Y027715D01*
X073946Y027594D01*
X074348Y027484D01*
X074755Y027385D01*
X075166Y027297D01*
X075581Y027219D01*
X076Y027152D01*
X076424Y027096D01*
X076851Y027051D01*
X077283Y027017D01*
X07772Y026993D01*
X07816Y02698D01*
X078609Y026992D01*
X079056Y027014D01*
X079502Y027046D01*
X079945Y027087D01*
X080387Y027138D01*
X080826Y027198D01*
X081264Y027268D01*
X0817Y027348D01*
X082134Y027437D01*
X082566Y027535D01*
X082997Y027644D01*
X083425Y027762D01*
X083852Y027889D01*
X084276Y028027D01*
X084699Y028174D01*
X08512Y02833D01*
X085536Y028494D01*
X085945Y028665D01*
X086346Y028842D01*
X08674Y029026D01*
X087126Y029215D01*
X087505Y029411D01*
X087876Y029614D01*
X08824Y029823D01*
X088596Y030038D01*
X088945Y030259D01*
X089286Y030487D01*
X08962Y030721D01*
X089946Y030961D01*
X090265Y031208D01*
X090576Y031461D01*
X09088Y03172D01*
Y04204D01*
X09087Y042294D01*
X090842Y042532D01*
X090794Y042754D01*
X090726Y042959D01*
X09064Y043147D01*
X090534Y04332D01*
X090409Y043476D01*
X090265Y043615D01*
X090102Y043738D01*
X089919Y043845D01*
X089717Y043935D01*
X089496Y044009D01*
X089256Y044066D01*
X088997Y044107D01*
X088718Y044132D01*
X08842Y04414D01*
X08752D01*
Y04552D01*
X09874D01*
Y04414D01*
X0979Y0442D01*
G37*
G36*
X12826Y0247D02*
X10372D01*
Y02626D01*
X10504D01*
X105188Y026263D01*
X105333Y026272D01*
X105475Y026287D01*
X105614Y026309D01*
X105749Y026336D01*
X105881Y02637D01*
X10601Y026409D01*
X106135Y026455D01*
X106257Y026507D01*
X106376Y026565D01*
X106491Y026629D01*
X106604Y026699D01*
X106713Y026775D01*
X106818Y026857D01*
X106921Y026946D01*
X10702Y02704D01*
X107115Y027139D01*
X107204Y027241D01*
X107287Y027345D01*
X107365Y027453D01*
X107437Y027563D01*
X107504Y027676D01*
X107565Y027791D01*
X10762Y02791D01*
X10767Y028031D01*
X107714Y028156D01*
X107752Y028283D01*
X107785Y028413D01*
X107812Y028545D01*
X107834Y028681D01*
X10785Y028819D01*
X10786Y02896D01*
Y05668D01*
X107857Y056814D01*
X107847Y056945D01*
X107832Y057073D01*
X107809Y057199D01*
X107781Y057323D01*
X107746Y057444D01*
X107705Y057562D01*
X107658Y057678D01*
X107604Y057791D01*
X107544Y057901D01*
X107477Y058009D01*
X107404Y058114D01*
X107325Y058217D01*
X10724Y058317D01*
X107148Y058415D01*
X10705Y05851D01*
X106947Y058601D01*
X106841Y058686D01*
X106733Y058765D01*
X106621Y058838D01*
X106506Y058906D01*
X106388Y058967D01*
X106267Y059023D01*
X106143Y059073D01*
X106015Y059116D01*
X105885Y059155D01*
X105752Y059187D01*
X105616Y059213D01*
X105476Y059234D01*
X105334Y059248D01*
X105188Y059257D01*
X10504Y05926D01*
X10372D01*
Y06082D01*
X1213D01*
X121406Y06082D01*
X121513Y060822D01*
X121621Y060824D01*
X121731Y060828D01*
X121843Y060832D01*
X121955Y060837D01*
X122069Y060843D01*
X122185Y06085D01*
X122302Y060858D01*
X12242Y060867D01*
X12254Y060877D01*
X122661Y060888D01*
X122784Y060899D01*
X122908Y060912D01*
X123033Y060925D01*
X12316Y06094D01*
X123287Y060955D01*
X123415Y060971D01*
X123541Y060987D01*
X123668Y061004D01*
X123795Y061021D01*
X123921Y061038D01*
X124047Y061056D01*
X124173Y061075D01*
X124298Y061094D01*
X124423Y061113D01*
X124548Y061133D01*
X124673Y061154D01*
X124798Y061175D01*
X124922Y061196D01*
X125046Y061218D01*
X12517Y06124D01*
X125293Y061263D01*
X125415Y061285D01*
X125535Y061309D01*
X125654Y061332D01*
X125771Y061355D01*
X125887Y061379D01*
X126002Y061403D01*
X126115Y061428D01*
X126227Y061452D01*
X126337Y061477D01*
X126446Y061502D01*
X126554Y061527D01*
X12666Y061552D01*
X126765Y061578D01*
X126868Y061604D01*
X12697Y06163D01*
X12707Y061656D01*
X127167Y061682D01*
X127262Y061708D01*
X127354Y061733D01*
X127444Y061758D01*
X127531Y061783D01*
X127616Y061808D01*
X127698Y061833D01*
X127777Y061857D01*
X127854Y061881D01*
X127928Y061905D01*
X127999Y061928D01*
X128068Y061951D01*
X128135Y061975D01*
X128199Y061997D01*
X12826Y06202D01*
Y05416D01*
X12664D01*
Y05554D01*
X126637Y055666D01*
X126629Y05579D01*
X126616Y055912D01*
X126597Y056031D01*
X126573Y056148D01*
X126543Y056263D01*
X126508Y056375D01*
X126468Y056485D01*
X126422Y056593D01*
X12637Y056698D01*
X126314Y056801D01*
X126252Y056901D01*
X126184Y056999D01*
X126112Y057095D01*
X126034Y057189D01*
X12595Y05728D01*
X125862Y057367D01*
X125771Y05745D01*
X125678Y057527D01*
X125581Y057599D01*
X125481Y057666D01*
X125378Y057727D01*
X125272Y057784D01*
X125163Y057835D01*
X12505Y057881D01*
X124935Y057922D01*
X124817Y057958D01*
X124696Y057989D01*
X124571Y058014D01*
X124444Y058035D01*
X124313Y05805D01*
X12418Y05806D01*
X1126D01*
Y04426D01*
X12208D01*
X122198Y044269D01*
X122313Y044283D01*
X122423Y0443D01*
X12253Y044322D01*
X122633Y044347D01*
X122733Y044377D01*
X122828Y04441D01*
X12292Y044448D01*
X123008Y044489D01*
X123093Y044534D01*
X123173Y044584D01*
X12325Y044637D01*
X123323Y044694D01*
X123393Y044755D01*
X123458Y044821D01*
X12352Y04489D01*
X123578Y044962D01*
X123633Y045036D01*
X123683Y045111D01*
X12373Y045188D01*
X123773Y045267D01*
X123813Y045347D01*
X123848Y045429D01*
X12388Y045513D01*
X123908Y045598D01*
X123933Y045685D01*
X123953Y045773D01*
X12397Y045863D01*
X123983Y045955D01*
X123993Y046048D01*
X123998Y046143D01*
X124Y04624D01*
Y0475D01*
X12562D01*
Y03832D01*
X124D01*
Y03958D01*
X123998Y039677D01*
X123993Y039771D01*
X123984Y039864D01*
X123972Y039955D01*
X123956Y040044D01*
X123937Y040131D01*
X123914Y040217D01*
X123888Y0403D01*
X123858Y040382D01*
X123824Y040461D01*
X123787Y040539D01*
X123747Y040615D01*
X123703Y040689D01*
X123655Y040761D01*
X123604Y040832D01*
X12355Y0409D01*
X123492Y040966D01*
X12343Y041028D01*
X123365Y041088D01*
X123297Y041144D01*
X123225Y041196D01*
X123149Y041246D01*
X12307Y041292D01*
X122988Y041335D01*
X122901Y041375D01*
X122812Y041411D01*
X122719Y041444D01*
X122622Y041474D01*
X122522Y0415D01*
X122418Y041523D01*
X122311Y041543D01*
X1222Y04156D01*
X11266D01*
Y02776D01*
X12124D01*
X121485Y027769D01*
X121726Y027782D01*
X121962Y027798D01*
X122194Y027818D01*
X122422Y027841D01*
X122645Y027868D01*
X122863Y027899D01*
X123078Y027933D01*
X123287Y02797D01*
X123492Y028011D01*
X123693Y028055D01*
X123889Y028103D01*
X124081Y028155D01*
X124269Y02821D01*
X124452Y028268D01*
X12463Y02833D01*
X124805Y028395D01*
X124976Y028463D01*
X125145Y028533D01*
X125311Y028606D01*
X125473Y028681D01*
X125633Y028759D01*
X125789Y028839D01*
X125943Y028923D01*
X126093Y029008D01*
X12624Y029096D01*
X126384Y029187D01*
X126526Y029281D01*
X126664Y029377D01*
X126799Y029475D01*
X126931Y029576D01*
X12706Y02968D01*
X127186Y029786D01*
X127311Y029896D01*
X127433Y030008D01*
X127553Y030123D01*
X127671Y03024D01*
X127787Y030361D01*
X127901Y030484D01*
X128013Y03061D01*
X128122Y030739D01*
X12823Y030871D01*
X128335Y031005D01*
X128438Y031143D01*
X128539Y031283D01*
X128638Y031426D01*
X128735Y031571D01*
X12883Y03172D01*
X128923Y031871D01*
X129015Y032023D01*
X129106Y032176D01*
X129196Y032331D01*
X129284Y032488D01*
X129371Y032645D01*
X129458Y032804D01*
X129543Y032965D01*
X129626Y033127D01*
X129709Y03329D01*
X12979Y033455D01*
X129871Y033621D01*
X12995Y033789D01*
X130028Y033958D01*
X130104Y034128D01*
X13018Y0343D01*
X13186D01*
X12826Y0247D01*
G37*
G36*
X1507Y06094D02*
X151396Y060915D01*
X152074Y060871D01*
X152735Y060807D01*
X153378Y060724D01*
X154002Y060622D01*
X154609Y0605D01*
X155199Y060358D01*
X15577Y060198D01*
X156324Y060017D01*
X156859Y059817D01*
X157377Y059598D01*
X157878Y059359D01*
X15836Y059101D01*
X158824Y058824D01*
X159271Y058527D01*
X1597Y05821D01*
X160107Y057876D01*
X160488Y057526D01*
X160842Y057161D01*
X16117Y056779D01*
X161472Y056382D01*
X161748Y05597D01*
X161997Y055542D01*
X16222Y055098D01*
X162417Y054638D01*
X162588Y054162D01*
X162732Y053671D01*
X16285Y053164D01*
X162942Y052642D01*
X163008Y052104D01*
X163047Y05155D01*
X16306Y05098D01*
X163058Y050756D01*
X163051Y050533D01*
X163039Y050311D01*
X163023Y050091D01*
X163001Y049873D01*
X162976Y049655D01*
X162945Y049439D01*
X16291Y049225D01*
X16287Y049012D01*
X162826Y0488D01*
X162776Y04859D01*
X162723Y048381D01*
X162664Y048174D01*
X162601Y047968D01*
X162533Y047763D01*
X16246Y04756D01*
X162383Y047359D01*
X162302Y04716D01*
X162217Y046963D01*
X162128Y046769D01*
X162035Y046577D01*
X161938Y046387D01*
X161837Y0462D01*
X161733Y046015D01*
X161624Y045832D01*
X161511Y045652D01*
X161394Y045474D01*
X161273Y045299D01*
X161148Y045126D01*
X16102Y044955D01*
X160887Y044786D01*
X16075Y04462D01*
X16061Y044457D01*
X160466Y044296D01*
X16032Y044139D01*
X160171Y043984D01*
X160018Y043833D01*
X159863Y043685D01*
X159704Y04354D01*
X159543Y043398D01*
X159378Y043258D01*
X15921Y043122D01*
X159039Y042989D01*
X158866Y042859D01*
X158689Y042732D01*
X158509Y042609D01*
X158326Y042488D01*
X15814Y04237D01*
X157951Y042256D01*
X15776Y042145D01*
X157567Y042039D01*
X157371Y041937D01*
X157173Y041839D01*
X156973Y041744D01*
X15677Y041654D01*
X156565Y041568D01*
X156358Y041485D01*
X156148Y041407D01*
X155936Y041332D01*
X155721Y041262D01*
X155504Y041195D01*
X155285Y041133D01*
X155064Y041074D01*
X15484Y04102D01*
X154953Y040928D01*
X155066Y040834D01*
X15518Y040736D01*
X155294Y040636D01*
X155408Y040532D01*
X155523Y040425D01*
X155639Y040315D01*
X155755Y040203D01*
X155871Y040087D01*
X155988Y039968D01*
X156106Y039846D01*
X156224Y039721D01*
X156342Y039593D01*
X156461Y039461D01*
X15658Y039327D01*
X1567Y03919D01*
X156819Y039052D01*
X156936Y038914D01*
X157052Y038777D01*
X157165Y038641D01*
X157277Y038505D01*
X157386Y03837D01*
X157494Y038236D01*
X1576Y038103D01*
X157704Y03797D01*
X157806Y037838D01*
X157907Y037706D01*
X158005Y037576D01*
X158102Y037446D01*
X158196Y037316D01*
X158289Y037188D01*
X15838Y03706D01*
Y03712D01*
X158478Y036978D01*
X158576Y036836D01*
X158675Y036695D01*
X158774Y036554D01*
X158873Y036413D01*
X158973Y036273D01*
X159074Y036134D01*
X159175Y035995D01*
X159276Y035856D01*
X159378Y035718D01*
X159481Y035581D01*
X159584Y035444D01*
X159687Y035307D01*
X159791Y035171D01*
X159895Y035035D01*
X16Y0349D01*
X160091Y03478D01*
X160183Y034658D01*
X160276Y034536D01*
X160371Y034413D01*
X160468Y034288D01*
X160565Y034163D01*
X160664Y034037D01*
X160765Y03391D01*
X160867Y033782D01*
X16097Y033653D01*
X161075Y033523D01*
X161181Y033393D01*
X161289Y033261D01*
X161398Y033128D01*
X161508Y032995D01*
X16162Y03286D01*
X161733Y032725D01*
X161845Y032591D01*
X161958Y032457D01*
X16207Y032324D01*
X162183Y032191D01*
X162295Y032058D01*
X162408Y031926D01*
X16252Y031795D01*
X162633Y031664D01*
X162745Y031533D01*
X162858Y031403D01*
X16297Y031274D01*
X163083Y031145D01*
X163195Y031016D01*
X163308Y030888D01*
X16342Y03076D01*
X163525Y030641D01*
X163629Y030523D01*
X163733Y030406D01*
X163836Y030291D01*
X163939Y030178D01*
X164042Y030065D01*
X164144Y029954D01*
X164245Y029845D01*
X164346Y029737D01*
X164447Y02963D01*
X164547Y029525D01*
X164646Y029421D01*
X164745Y029319D01*
X164844Y029218D01*
X164942Y029118D01*
X16504Y02902D01*
X165138Y028923D01*
X165236Y028828D01*
X165335Y028735D01*
X165434Y028643D01*
X165533Y028553D01*
X165633Y028465D01*
X165734Y028378D01*
X165835Y028293D01*
X165936Y028209D01*
X166038Y028127D01*
X166141Y028047D01*
X166244Y027968D01*
X166347Y027891D01*
X166451Y027816D01*
X166555Y027742D01*
X16666Y02767D01*
X166766Y0276D01*
X166872Y027532D01*
X16698Y027466D01*
X167089Y027402D01*
X1672Y02734D01*
X167311Y02728D01*
X167424Y027223D01*
X167538Y027168D01*
X167652Y027114D01*
X167769Y027063D01*
X167886Y027014D01*
X168004Y026967D01*
X168124Y026922D01*
X168245Y026879D01*
X168367Y026839D01*
X16849Y0268D01*
X168615Y026764D01*
X168742Y02673D01*
X168871Y026698D01*
X169002Y026669D01*
X169135Y026642D01*
X16927Y026617D01*
X169408Y026595D01*
X169548Y026575D01*
X169689Y026557D01*
X169833Y026542D01*
X169979Y026529D01*
X170127Y026519D01*
X170277Y026511D01*
X170429Y026505D01*
X170584Y026501D01*
X17074Y0265D01*
Y02494D01*
X16846D01*
X168148Y024942D01*
X167841Y024948D01*
X16754Y024958D01*
X167245Y024972D01*
X166955Y02499D01*
X166671Y025012D01*
X166393Y025038D01*
X16612Y025068D01*
X165853Y025101D01*
X165591Y025139D01*
X165335Y025181D01*
X165085Y025227D01*
X16484Y025277D01*
X164601Y02533D01*
X164368Y025388D01*
X16414Y02545D01*
X163917Y025515D01*
X163698Y025582D01*
X163482Y025651D01*
X16327Y025722D01*
X163062Y025795D01*
X162858Y02587D01*
X162657Y025948D01*
X16246Y026028D01*
X162267Y026109D01*
X162078Y026193D01*
X161892Y026279D01*
X16171Y026367D01*
X161532Y026457D01*
X161358Y026549D01*
X161187Y026644D01*
X16102Y02674D01*
X160857Y026838D01*
X160697Y026937D01*
X160541Y027038D01*
X160388Y027139D01*
X160239Y027242D01*
X160093Y027346D01*
X159951Y027451D01*
X159813Y027558D01*
X159677Y027665D01*
X159546Y027774D01*
X159418Y027883D01*
X159293Y027994D01*
X159172Y028107D01*
X159055Y02822D01*
X158941Y028334D01*
X15883Y02845D01*
X158722Y028566D01*
X158615Y028681D01*
X158509Y028796D01*
X158404Y028909D01*
X158301Y029022D01*
X158199Y029135D01*
X158097Y029247D01*
X157998Y029358D01*
X157899Y029468D01*
X157801Y029577D01*
X157705Y029686D01*
X157609Y029794D01*
X157515Y029902D01*
X157422Y030009D01*
X157331Y030115D01*
X15724Y03022D01*
X1572Y030262D01*
X157156Y030311D01*
X157106Y030369D01*
X157053Y030436D01*
X156994Y03051D01*
X156931Y030593D01*
X156863Y030683D01*
X15679Y030783D01*
X156713Y03089D01*
X156631Y031005D01*
X156544Y031129D01*
X156453Y031261D01*
X156356Y031401D01*
X156256Y031549D01*
X15615Y031705D01*
X15604Y03187D01*
X155927Y032039D01*
X155813Y032208D01*
X155698Y032377D01*
X155583Y032547D01*
X155466Y032717D01*
X155348Y032887D01*
X15523Y033057D01*
X15511Y033228D01*
X15499Y033398D01*
X154868Y033569D01*
X154746Y03374D01*
X154623Y033912D01*
X154498Y034084D01*
X154373Y034255D01*
X154247Y034428D01*
X15412Y0346D01*
X15148Y03832D01*
X151344Y038492D01*
X151205Y038661D01*
X151064Y038829D01*
X150921Y038995D01*
X150776Y039159D01*
X150628Y039321D01*
X150478Y039482D01*
X150325Y03964D01*
X15017Y039797D01*
X150013Y039951D01*
X149853Y040104D01*
X149691Y040255D01*
X149527Y040404D01*
X14936Y040551D01*
X149191Y040697D01*
X14902Y04084D01*
X14884Y040978D01*
X148646Y041107D01*
X148437Y041227D01*
X148214Y041339D01*
X147976Y041441D01*
X147723Y041535D01*
X147456Y041619D01*
X147175Y041695D01*
X146879Y041762D01*
X146568Y04182D01*
X146243Y041869D01*
X145904Y041909D01*
X14555Y04194D01*
X145181Y041962D01*
X144798Y041976D01*
X1444Y04198D01*
Y02926D01*
X14441Y029126D01*
X144426Y028995D01*
X144448Y028866D01*
X144475Y028739D01*
X144508Y028614D01*
X144546Y028492D01*
X14459Y028372D01*
X14464Y028255D01*
X144695Y02814D01*
X144756Y028027D01*
X144823Y027917D01*
X144895Y027809D01*
X144973Y027703D01*
X145056Y0276D01*
X145145Y027499D01*
X14524Y0274D01*
X145339Y027306D01*
X145442Y027217D01*
X145547Y027135D01*
X145656Y027059D01*
X145769Y026989D01*
X145884Y026925D01*
X146003Y026867D01*
X146125Y026815D01*
X14625Y026769D01*
X146379Y02673D01*
X146511Y026696D01*
X146646Y026669D01*
X146785Y026647D01*
X146927Y026632D01*
X147072Y026623D01*
X14722Y02662D01*
X14854D01*
Y02506D01*
X13558D01*
Y02662D01*
X1369D01*
X137048Y026623D01*
X137193Y026632D01*
X137335Y026646D01*
X137474Y026667D01*
X137609Y026693D01*
X137741Y026725D01*
X13787Y026764D01*
X137995Y026808D01*
X138117Y026857D01*
X138236Y026913D01*
X138351Y026974D01*
X138464Y027042D01*
X138573Y027115D01*
X138678Y027194D01*
X138781Y027279D01*
X13888Y02737D01*
X138975Y027465D01*
X139064Y027563D01*
X139147Y027663D01*
X139225Y027766D01*
X139297Y027871D01*
X139364Y027979D01*
X139425Y028089D01*
X13948Y028203D01*
X13953Y028318D01*
X139574Y028436D01*
X139612Y028557D01*
X139645Y028681D01*
X139672Y028807D01*
X139694Y028935D01*
X13971Y029066D01*
X13972Y0292D01*
Y05686D01*
X13971Y056994D01*
X139694Y057124D01*
X139672Y057252D01*
X139645Y057378D01*
X139612Y0575D01*
X139574Y057619D01*
X13953Y057736D01*
X13948Y05785D01*
X139425Y057961D01*
X139364Y058069D01*
X139297Y058175D01*
X139225Y058278D01*
X139147Y058377D01*
X139064Y058474D01*
X138975Y058569D01*
X13888Y05866D01*
X138781Y058747D01*
X138678Y058829D01*
X138573Y058905D01*
X138464Y058975D01*
X138351Y05904D01*
X138236Y059099D01*
X138117Y059152D01*
X137995Y0592D01*
X13787Y059242D01*
X137741Y059279D01*
X137609Y05931D01*
X137474Y059335D01*
X137335Y059355D01*
X137193Y059369D01*
X137048Y059377D01*
X1369Y05938D01*
X13564D01*
Y061D01*
X1507Y06094D01*
G37*
G36*
X18688Y061D02*
X187085Y060999D01*
X187294Y060995D01*
X187508Y060989D01*
X187726Y060981D01*
X187948Y060971D01*
X188175Y060958D01*
X188407Y060943D01*
X188643Y060925D01*
X188883Y060905D01*
X189128Y060883D01*
X189377Y060858D01*
X189631Y060831D01*
X189889Y060802D01*
X190151Y06077D01*
X190418Y060736D01*
X19069Y0607D01*
X190963Y06066D01*
X191234Y060615D01*
X191503Y060564D01*
X19177Y060509D01*
X192035Y060448D01*
X192299Y060382D01*
X19256Y060311D01*
X19282Y060235D01*
X193078Y060154D01*
X193334Y060067D01*
X193588Y059976D01*
X19384Y059879D01*
X19409Y059777D01*
X194339Y05967D01*
X194585Y059557D01*
X19483Y05944D01*
X195071Y059316D01*
X195308Y059186D01*
X19554Y059048D01*
X195768Y058904D01*
X19599Y058752D01*
X196208Y058593D01*
X196421Y058428D01*
X19663Y058255D01*
X196834Y058075D01*
X197033Y057888D01*
X197228Y057695D01*
X197418Y057494D01*
X197603Y057286D01*
X197783Y057071D01*
X197959Y056849D01*
X19813Y05662D01*
X198293Y056383D01*
X198446Y056136D01*
X198589Y05588D01*
X198721Y055615D01*
X198842Y05534D01*
X198953Y055056D01*
X199053Y054763D01*
X199143Y05446D01*
X199222Y054148D01*
X19929Y053826D01*
X199348Y053495D01*
X199396Y053155D01*
X199433Y052805D01*
X199459Y052446D01*
X199475Y052078D01*
X19948Y0517D01*
X199474Y051402D01*
X199457Y051109D01*
X199428Y05082D01*
X199388Y050536D01*
X199336Y050256D01*
X199273Y04998D01*
X199199Y049709D01*
X199113Y049443D01*
X199015Y04918D01*
X198906Y048923D01*
X198785Y048669D01*
X198653Y048421D01*
X19851Y048176D01*
X198355Y047936D01*
X198188Y047701D01*
X19801Y04747D01*
X197824Y047244D01*
X197634Y047025D01*
X197439Y046812D01*
X197239Y046606D01*
X197036Y046405D01*
X196827Y046211D01*
X196615Y046024D01*
X196398Y045843D01*
X196176Y045668D01*
X19595Y045499D01*
X195719Y045337D01*
X195484Y045181D01*
X195245Y045031D01*
X195001Y044888D01*
X194753Y044751D01*
X1945Y04462D01*
X19496Y044494D01*
X195408Y044356D01*
X195846Y044205D01*
X196274Y044043D01*
X19669Y043868D01*
X197096Y043681D01*
X197491Y043481D01*
X197875Y04327D01*
X198248Y043046D01*
X198611Y042811D01*
X198963Y042563D01*
X199304Y042303D01*
X199634Y04203D01*
X199953Y041746D01*
X200262Y041449D01*
X20056Y04114D01*
X200843Y040822D01*
X201108Y040497D01*
X201355Y040165D01*
X201584Y039828D01*
X201794Y039483D01*
X201986Y039132D01*
X20216Y038774D01*
X202315Y03841D01*
X202452Y038039D01*
X202571Y037662D01*
X202671Y037278D01*
X202754Y036888D01*
X202818Y03649D01*
X202863Y036087D01*
X202891Y035677D01*
X2029Y03526D01*
X202895Y034889D01*
X20288Y034526D01*
X202855Y034172D01*
X202819Y033826D01*
X202774Y033488D01*
X202719Y033158D01*
X202653Y032836D01*
X202578Y032523D01*
X202492Y032217D01*
X202396Y03192D01*
X20229Y031631D01*
X202174Y031351D01*
X202048Y031078D01*
X201912Y030814D01*
X201766Y030558D01*
X20161Y03031D01*
X201446Y030069D01*
X201277Y029835D01*
X201102Y029606D01*
X200922Y029384D01*
X200736Y029167D01*
X200545Y028957D01*
X200349Y028753D01*
X200148Y028555D01*
X19994Y028363D01*
X199728Y028177D01*
X19951Y027997D01*
X199287Y027824D01*
X199058Y027656D01*
X198824Y027495D01*
X198585Y027339D01*
X19834Y02719D01*
X198091Y027046D01*
X197838Y026908D01*
X197583Y026776D01*
X197324Y026648D01*
X197061Y026526D01*
X196796Y02641D01*
X196527Y026298D01*
X196255Y026193D01*
X19598Y026092D01*
X195701Y025997D01*
X195419Y025907D01*
X195134Y025823D01*
X194845Y025744D01*
X194553Y025671D01*
X194258Y025603D01*
X19396Y02554D01*
X193661Y025482D01*
X193363Y025428D01*
X193066Y025377D01*
X192771Y02533D01*
X192478Y025287D01*
X192185Y025248D01*
X191894Y025212D01*
X191605Y02518D01*
X191317Y025152D01*
X19103Y025128D01*
X190745Y025107D01*
X190461Y02509D01*
X190179Y025077D01*
X189898Y025068D01*
X189618Y025062D01*
X18934Y02506D01*
X1744D01*
Y02662D01*
X1756D01*
X175756Y026623D01*
X175908Y026632D01*
X176058Y026647D01*
X176204Y026669D01*
X176346Y026696D01*
X176486Y02673D01*
X176622Y026769D01*
X176755Y026815D01*
X176885Y026867D01*
X177011Y026925D01*
X177134Y026989D01*
X177254Y027059D01*
X17737Y027135D01*
X177483Y027217D01*
X177593Y027306D01*
X1777Y0274D01*
X177802Y027499D01*
X177898Y0276D01*
X177988Y027703D01*
X178071Y027809D01*
X178149Y027917D01*
X17822Y028027D01*
X178286Y02814D01*
X178345Y028255D01*
X178398Y028372D01*
X178445Y028492D01*
X178486Y028614D01*
X178521Y028739D01*
X17855Y028866D01*
X178573Y028995D01*
X178589Y029126D01*
X1786Y02926D01*
Y0568D01*
X178589Y056941D01*
X178573Y057078D01*
X17855Y057213D01*
X178521Y057344D01*
X178486Y057471D01*
X178445Y057596D01*
X178398Y057717D01*
X178345Y057835D01*
X178286Y05795D01*
X17822Y058061D01*
X178149Y058169D01*
X178071Y058274D01*
X177988Y058375D01*
X177898Y058473D01*
X177802Y058568D01*
X1777Y05866D01*
X177593Y058747D01*
X177483Y058829D01*
X17737Y058905D01*
X177254Y058975D01*
X177134Y05904D01*
X177011Y059099D01*
X176885Y059152D01*
X176755Y0592D01*
X176622Y059242D01*
X176486Y059279D01*
X176346Y05931D01*
X176204Y059335D01*
X176058Y059355D01*
X175908Y059369D01*
X175756Y059377D01*
X1756Y05938D01*
X1744D01*
Y061D01*
X18688D01*
G37*
G36*
X2317Y0247D02*
X20716D01*
Y02626D01*
X20848D01*
X208628Y026263D01*
X208773Y026272D01*
X208915Y026287D01*
X209054Y026309D01*
X209189Y026336D01*
X209321Y02637D01*
X20945Y026409D01*
X209575Y026455D01*
X209697Y026507D01*
X209816Y026565D01*
X209931Y026629D01*
X210044Y026699D01*
X210153Y026775D01*
X210258Y026857D01*
X210361Y026946D01*
X21046Y02704D01*
X210555Y027139D01*
X210644Y027241D01*
X210727Y027345D01*
X210805Y027453D01*
X210877Y027563D01*
X210944Y027676D01*
X211005Y027791D01*
X21106Y02791D01*
X21111Y028031D01*
X211154Y028156D01*
X211192Y028283D01*
X211225Y028413D01*
X211252Y028545D01*
X211274Y028681D01*
X21129Y028819D01*
X2113Y02896D01*
Y05668D01*
X211297Y056814D01*
X211287Y056945D01*
X211272Y057073D01*
X211249Y057199D01*
X211221Y057323D01*
X211186Y057444D01*
X211145Y057562D01*
X211098Y057678D01*
X211044Y057791D01*
X210984Y057901D01*
X210917Y058009D01*
X210844Y058114D01*
X210765Y058217D01*
X21068Y058317D01*
X210588Y058415D01*
X21049Y05851D01*
X210387Y058601D01*
X210281Y058686D01*
X210173Y058765D01*
X210061Y058838D01*
X209946Y058906D01*
X209828Y058967D01*
X209707Y059023D01*
X209583Y059073D01*
X209455Y059116D01*
X209325Y059155D01*
X209192Y059187D01*
X209056Y059213D01*
X208916Y059234D01*
X208774Y059248D01*
X208628Y059257D01*
X20848Y05926D01*
X20716D01*
Y06082D01*
X22474D01*
X224846Y06082D01*
X224953Y060822D01*
X225061Y060824D01*
X225171Y060828D01*
X225283Y060832D01*
X225395Y060837D01*
X225509Y060843D01*
X225625Y06085D01*
X225742Y060858D01*
X22586Y060867D01*
X22598Y060877D01*
X226101Y060888D01*
X226224Y060899D01*
X226348Y060912D01*
X226473Y060925D01*
X2266Y06094D01*
X226727Y060955D01*
X226855Y060971D01*
X226981Y060987D01*
X227108Y061004D01*
X227235Y061021D01*
X227361Y061038D01*
X227487Y061056D01*
X227613Y061075D01*
X227738Y061094D01*
X227863Y061113D01*
X227988Y061133D01*
X228113Y061154D01*
X228238Y061175D01*
X228362Y061196D01*
X228486Y061218D01*
X22861Y06124D01*
X228733Y061263D01*
X228855Y061285D01*
X228975Y061309D01*
X229094Y061332D01*
X229211Y061355D01*
X229327Y061379D01*
X229442Y061403D01*
X229555Y061428D01*
X229667Y061452D01*
X229777Y061477D01*
X229886Y061502D01*
X229994Y061527D01*
X2301Y061552D01*
X230205Y061578D01*
X230308Y061604D01*
X23041Y06163D01*
X23051Y061656D01*
X230607Y061682D01*
X230702Y061708D01*
X230794Y061733D01*
X230884Y061758D01*
X230971Y061783D01*
X231056Y061808D01*
X231138Y061833D01*
X231217Y061857D01*
X231294Y061881D01*
X231368Y061905D01*
X231439Y061928D01*
X231508Y061951D01*
X231575Y061975D01*
X231639Y061997D01*
X2317Y06202D01*
Y05416D01*
X23008D01*
Y05554D01*
X230077Y055666D01*
X230069Y05579D01*
X230056Y055912D01*
X230037Y056031D01*
X230013Y056148D01*
X229983Y056263D01*
X229948Y056375D01*
X229908Y056485D01*
X229862Y056593D01*
X22981Y056698D01*
X229754Y056801D01*
X229692Y056901D01*
X229624Y056999D01*
X229552Y057095D01*
X229474Y057189D01*
X22939Y05728D01*
X229302Y057367D01*
X229211Y05745D01*
X229118Y057527D01*
X229021Y057599D01*
X228921Y057666D01*
X228818Y057727D01*
X228712Y057784D01*
X228603Y057835D01*
X22849Y057881D01*
X228375Y057922D01*
X228257Y057958D01*
X228136Y057989D01*
X228011Y058014D01*
X227884Y058035D01*
X227753Y05805D01*
X22762Y05806D01*
X21604D01*
Y04426D01*
X22552D01*
X225638Y044269D01*
X225753Y044283D01*
X225863Y0443D01*
X22597Y044322D01*
X226073Y044347D01*
X226173Y044377D01*
X226268Y04441D01*
X22636Y044448D01*
X226448Y044489D01*
X226533Y044534D01*
X226613Y044584D01*
X22669Y044637D01*
X226763Y044694D01*
X226833Y044755D01*
X226898Y044821D01*
X22696Y04489D01*
X227018Y044962D01*
X227073Y045036D01*
X227123Y045111D01*
X22717Y045188D01*
X227213Y045267D01*
X227253Y045347D01*
X227288Y045429D01*
X22732Y045513D01*
X227348Y045598D01*
X227373Y045685D01*
X227393Y045773D01*
X22741Y045863D01*
X227423Y045955D01*
X227433Y046048D01*
X227438Y046143D01*
X22744Y04624D01*
Y0475D01*
X22906D01*
Y03832D01*
X22744D01*
Y03958D01*
X227438Y039677D01*
X227433Y039771D01*
X227424Y039864D01*
X227412Y039955D01*
X227396Y040044D01*
X227377Y040131D01*
X227354Y040217D01*
X227328Y0403D01*
X227298Y040382D01*
X227264Y040461D01*
X227227Y040539D01*
X227187Y040615D01*
X227143Y040689D01*
X227095Y040761D01*
X227044Y040832D01*
X22699Y0409D01*
X226932Y040966D01*
X22687Y041028D01*
X226805Y041088D01*
X226737Y041144D01*
X226665Y041196D01*
X226589Y041246D01*
X22651Y041292D01*
X226428Y041335D01*
X226341Y041375D01*
X226252Y041411D01*
X226159Y041444D01*
X226062Y041474D01*
X225962Y0415D01*
X225858Y041523D01*
X225751Y041543D01*
X22564Y04156D01*
X2161D01*
Y02776D01*
X22468D01*
X224925Y027769D01*
X225166Y027782D01*
X225402Y027798D01*
X225634Y027818D01*
X225862Y027841D01*
X226085Y027868D01*
X226303Y027899D01*
X226518Y027933D01*
X226727Y02797D01*
X226932Y028011D01*
X227133Y028055D01*
X227329Y028103D01*
X227521Y028155D01*
X227709Y02821D01*
X227892Y028268D01*
X22807Y02833D01*
X228245Y028395D01*
X228416Y028463D01*
X228585Y028533D01*
X228751Y028606D01*
X228913Y028681D01*
X229073Y028759D01*
X229229Y028839D01*
X229383Y028923D01*
X229533Y029008D01*
X22968Y029096D01*
X229824Y029187D01*
X229966Y029281D01*
X230104Y029377D01*
X230239Y029475D01*
X230371Y029576D01*
X2305Y02968D01*
X230626Y029786D01*
X230751Y029896D01*
X230873Y030008D01*
X230993Y030123D01*
X231111Y03024D01*
X231227Y030361D01*
X231341Y030484D01*
X231453Y03061D01*
X231562Y030739D01*
X23167Y030871D01*
X231775Y031005D01*
X231878Y031143D01*
X231979Y031283D01*
X232078Y031426D01*
X232175Y031571D01*
X23227Y03172D01*
X232363Y031871D01*
X232455Y032023D01*
X232546Y032176D01*
X232636Y032331D01*
X232724Y032488D01*
X232811Y032645D01*
X232898Y032804D01*
X232983Y032965D01*
X233066Y033127D01*
X233149Y03329D01*
X23323Y033455D01*
X233311Y033621D01*
X23339Y033789D01*
X233468Y033958D01*
X233544Y034128D01*
X23362Y0343D01*
X2353D01*
X2317Y0247D01*
G37*
G36*
X25414Y06094D02*
X254836Y060915D01*
X255514Y060871D01*
X256175Y060807D01*
X256818Y060724D01*
X257442Y060622D01*
X258049Y0605D01*
X258639Y060358D01*
X25921Y060198D01*
X259764Y060017D01*
X260299Y059817D01*
X260817Y059598D01*
X261318Y059359D01*
X2618Y059101D01*
X262264Y058824D01*
X262711Y058527D01*
X26314Y05821D01*
X263547Y057876D01*
X263928Y057526D01*
X264282Y057161D01*
X26461Y056779D01*
X264912Y056382D01*
X265188Y05597D01*
X265437Y055542D01*
X26566Y055098D01*
X265857Y054638D01*
X266028Y054162D01*
X266172Y053671D01*
X26629Y053164D01*
X266382Y052642D01*
X266448Y052104D01*
X266487Y05155D01*
X2665Y05098D01*
X266498Y050756D01*
X266491Y050533D01*
X266479Y050311D01*
X266463Y050091D01*
X266441Y049873D01*
X266416Y049655D01*
X266385Y049439D01*
X26635Y049225D01*
X26631Y049012D01*
X266266Y0488D01*
X266216Y04859D01*
X266163Y048381D01*
X266104Y048174D01*
X266041Y047968D01*
X265973Y047763D01*
X2659Y04756D01*
X265823Y047359D01*
X265742Y04716D01*
X265657Y046963D01*
X265568Y046769D01*
X265475Y046577D01*
X265378Y046387D01*
X265277Y0462D01*
X265173Y046015D01*
X265064Y045832D01*
X264951Y045652D01*
X264834Y045474D01*
X264713Y045299D01*
X264588Y045126D01*
X26446Y044955D01*
X264327Y044786D01*
X26419Y04462D01*
X26405Y044457D01*
X263906Y044296D01*
X26376Y044139D01*
X263611Y043984D01*
X263458Y043833D01*
X263303Y043685D01*
X263144Y04354D01*
X262983Y043398D01*
X262818Y043258D01*
X26265Y043122D01*
X262479Y042989D01*
X262306Y042859D01*
X262129Y042732D01*
X261949Y042609D01*
X261766Y042488D01*
X26158Y04237D01*
X261391Y042256D01*
X2612Y042145D01*
X261007Y042039D01*
X260811Y041937D01*
X260613Y041839D01*
X260413Y041744D01*
X26021Y041654D01*
X260005Y041568D01*
X259798Y041485D01*
X259588Y041407D01*
X259376Y041332D01*
X259161Y041262D01*
X258944Y041195D01*
X258725Y041133D01*
X258504Y041074D01*
X25828Y04102D01*
X258393Y040928D01*
X258506Y040834D01*
X25862Y040736D01*
X258734Y040636D01*
X258848Y040532D01*
X258963Y040425D01*
X259079Y040315D01*
X259195Y040203D01*
X259311Y040087D01*
X259428Y039968D01*
X259546Y039846D01*
X259664Y039721D01*
X259782Y039593D01*
X259901Y039461D01*
X26002Y039327D01*
X26014Y03919D01*
X260259Y039052D01*
X260376Y038914D01*
X260492Y038777D01*
X260605Y038641D01*
X260717Y038505D01*
X260826Y03837D01*
X260934Y038236D01*
X26104Y038103D01*
X261144Y03797D01*
X261246Y037838D01*
X261347Y037706D01*
X261445Y037576D01*
X261542Y037446D01*
X261636Y037316D01*
X261729Y037188D01*
X26182Y03706D01*
Y03712D01*
X261918Y036978D01*
X262016Y036836D01*
X262115Y036695D01*
X262214Y036554D01*
X262313Y036413D01*
X262413Y036273D01*
X262514Y036134D01*
X262615Y035995D01*
X262716Y035856D01*
X262818Y035718D01*
X262921Y035581D01*
X263024Y035444D01*
X263127Y035307D01*
X263231Y035171D01*
X263335Y035035D01*
X26344Y0349D01*
X263531Y03478D01*
X263623Y034658D01*
X263716Y034536D01*
X263811Y034413D01*
X263908Y034288D01*
X264005Y034163D01*
X264104Y034037D01*
X264205Y03391D01*
X264307Y033782D01*
X26441Y033653D01*
X264515Y033523D01*
X264621Y033393D01*
X264729Y033261D01*
X264838Y033128D01*
X264948Y032995D01*
X26506Y03286D01*
X265173Y032725D01*
X265285Y032591D01*
X265398Y032457D01*
X26551Y032324D01*
X265623Y032191D01*
X265735Y032058D01*
X265848Y031926D01*
X26596Y031795D01*
X266073Y031664D01*
X266185Y031533D01*
X266298Y031403D01*
X26641Y031274D01*
X266523Y031145D01*
X266635Y031016D01*
X266748Y030888D01*
X26686Y03076D01*
X266965Y030641D01*
X267069Y030523D01*
X267173Y030406D01*
X267276Y030291D01*
X267379Y030178D01*
X267482Y030065D01*
X267584Y029954D01*
X267685Y029845D01*
X267786Y029737D01*
X267887Y02963D01*
X267987Y029525D01*
X268086Y029421D01*
X268185Y029319D01*
X268284Y029218D01*
X268382Y029118D01*
X26848Y02902D01*
X268578Y028923D01*
X268676Y028828D01*
X268775Y028735D01*
X268874Y028643D01*
X268973Y028553D01*
X269073Y028465D01*
X269174Y028378D01*
X269275Y028293D01*
X269376Y028209D01*
X269478Y028127D01*
X269581Y028047D01*
X269684Y027968D01*
X269787Y027891D01*
X269891Y027816D01*
X269995Y027742D01*
X2701Y02767D01*
X270206Y0276D01*
X270312Y027532D01*
X27042Y027466D01*
X270529Y027402D01*
X27064Y02734D01*
X270751Y02728D01*
X270864Y027223D01*
X270978Y027168D01*
X271092Y027114D01*
X271209Y027063D01*
X271326Y027014D01*
X271444Y026967D01*
X271564Y026922D01*
X271685Y026879D01*
X271807Y026839D01*
X27193Y0268D01*
X272055Y026764D01*
X272182Y02673D01*
X272311Y026698D01*
X272442Y026669D01*
X272575Y026642D01*
X27271Y026617D01*
X272848Y026595D01*
X272988Y026575D01*
X273129Y026557D01*
X273273Y026542D01*
X273419Y026529D01*
X273567Y026519D01*
X273717Y026511D01*
X273869Y026505D01*
X274024Y026501D01*
X27418Y0265D01*
Y02494D01*
X2719D01*
X271588Y024942D01*
X271281Y024948D01*
X27098Y024958D01*
X270685Y024972D01*
X270395Y02499D01*
X270111Y025012D01*
X269833Y025038D01*
X26956Y025068D01*
X269293Y025101D01*
X269031Y025139D01*
X268775Y025181D01*
X268525Y025227D01*
X26828Y025277D01*
X268041Y02533D01*
X267808Y025388D01*
X26758Y02545D01*
X267357Y025515D01*
X267138Y025582D01*
X266922Y025651D01*
X26671Y025722D01*
X266502Y025795D01*
X266298Y02587D01*
X266097Y025948D01*
X2659Y026028D01*
X265707Y026109D01*
X265518Y026193D01*
X265332Y026279D01*
X26515Y026367D01*
X264972Y026457D01*
X264798Y026549D01*
X264627Y026644D01*
X26446Y02674D01*
X264297Y026838D01*
X264137Y026937D01*
X263981Y027038D01*
X263828Y027139D01*
X263679Y027242D01*
X263533Y027346D01*
X263391Y027451D01*
X263253Y027558D01*
X263117Y027665D01*
X262986Y027774D01*
X262858Y027883D01*
X262733Y027994D01*
X262612Y028107D01*
X262495Y02822D01*
X262381Y028334D01*
X26227Y02845D01*
X262162Y028566D01*
X262055Y028681D01*
X261949Y028796D01*
X261844Y028909D01*
X261741Y029022D01*
X261639Y029135D01*
X261537Y029247D01*
X261438Y029358D01*
X261339Y029468D01*
X261241Y029577D01*
X261145Y029686D01*
X261049Y029794D01*
X260955Y029902D01*
X260862Y030009D01*
X260771Y030115D01*
X26068Y03022D01*
X26064Y030262D01*
X260596Y030311D01*
X260546Y030369D01*
X260493Y030436D01*
X260434Y03051D01*
X260371Y030593D01*
X260303Y030683D01*
X26023Y030783D01*
X260153Y03089D01*
X260071Y031005D01*
X259984Y031129D01*
X259893Y031261D01*
X259796Y031401D01*
X259696Y031549D01*
X25959Y031705D01*
X25948Y03187D01*
X259367Y032039D01*
X259253Y032208D01*
X259138Y032377D01*
X259023Y032547D01*
X258906Y032717D01*
X258788Y032887D01*
X25867Y033057D01*
X25855Y033228D01*
X25843Y033398D01*
X258308Y033569D01*
X258186Y03374D01*
X258063Y033912D01*
X257938Y034084D01*
X257813Y034255D01*
X257687Y034428D01*
X25756Y0346D01*
X25492Y03832D01*
X254784Y038492D01*
X254645Y038661D01*
X254504Y038829D01*
X254361Y038995D01*
X254216Y039159D01*
X254068Y039321D01*
X253918Y039482D01*
X253765Y03964D01*
X25361Y039797D01*
X253453Y039951D01*
X253293Y040104D01*
X253131Y040255D01*
X252967Y040404D01*
X2528Y040551D01*
X252631Y040697D01*
X25246Y04084D01*
X25228Y040978D01*
X252086Y041107D01*
X251877Y041227D01*
X251654Y041339D01*
X251416Y041441D01*
X251163Y041535D01*
X250896Y041619D01*
X250615Y041695D01*
X250319Y041762D01*
X250008Y04182D01*
X249683Y041869D01*
X249344Y041909D01*
X24899Y04194D01*
X248621Y041962D01*
X248238Y041976D01*
X24784Y04198D01*
Y02926D01*
X24785Y029126D01*
X247866Y028995D01*
X247888Y028866D01*
X247915Y028739D01*
X247948Y028614D01*
X247986Y028492D01*
X24803Y028372D01*
X24808Y028255D01*
X248135Y02814D01*
X248196Y028027D01*
X248263Y027917D01*
X248335Y027809D01*
X248413Y027703D01*
X248496Y0276D01*
X248585Y027499D01*
X24868Y0274D01*
X248779Y027306D01*
X248882Y027217D01*
X248987Y027135D01*
X249096Y027059D01*
X249209Y026989D01*
X249324Y026925D01*
X249443Y026867D01*
X249565Y026815D01*
X24969Y026769D01*
X249819Y02673D01*
X249951Y026696D01*
X250086Y026669D01*
X250225Y026647D01*
X250367Y026632D01*
X250512Y026623D01*
X25066Y02662D01*
X25198D01*
Y02506D01*
X23902D01*
Y02662D01*
X24034D01*
X240488Y026623D01*
X240633Y026632D01*
X240775Y026646D01*
X240914Y026667D01*
X241049Y026693D01*
X241181Y026725D01*
X24131Y026764D01*
X241435Y026808D01*
X241557Y026857D01*
X241676Y026913D01*
X241791Y026974D01*
X241904Y027042D01*
X242013Y027115D01*
X242118Y027194D01*
X242221Y027279D01*
X24232Y02737D01*
X242415Y027465D01*
X242504Y027563D01*
X242587Y027663D01*
X242665Y027766D01*
X242737Y027871D01*
X242804Y027979D01*
X242865Y028089D01*
X24292Y028203D01*
X24297Y028318D01*
X243014Y028436D01*
X243052Y028557D01*
X243085Y028681D01*
X243112Y028807D01*
X243134Y028935D01*
X24315Y029066D01*
X24316Y0292D01*
Y05686D01*
X24315Y056994D01*
X243134Y057124D01*
X243112Y057252D01*
X243085Y057378D01*
X243052Y0575D01*
X243014Y057619D01*
X24297Y057736D01*
X24292Y05785D01*
X242865Y057961D01*
X242804Y058069D01*
X242737Y058175D01*
X242665Y058278D01*
X242587Y058377D01*
X242504Y058474D01*
X242415Y058569D01*
X24232Y05866D01*
X242221Y058747D01*
X242118Y058829D01*
X242013Y058905D01*
X241904Y058975D01*
X241791Y05904D01*
X241676Y059099D01*
X241557Y059152D01*
X241435Y0592D01*
X24131Y059242D01*
X241181Y059279D01*
X241049Y05931D01*
X240914Y059335D01*
X240775Y059355D01*
X240633Y059369D01*
X240488Y059377D01*
X24034Y05938D01*
X23908D01*
Y061D01*
X25414Y06094D01*
G37*
G36*
X2779Y04372D02*
X2959D01*
X29626Y0424D01*
X2959Y04108D01*
X2779D01*
X27754Y04246D01*
X2779Y04372D01*
G37*
G36*
X32842Y03412D02*
X32488Y02488D01*
X30034D01*
Y02644D01*
X30166D01*
X301808Y026443D01*
X301953Y026452D01*
X302095Y026467D01*
X302234Y026489D01*
X302369Y026516D01*
X302501Y02655D01*
X30263Y026589D01*
X302755Y026635D01*
X302877Y026687D01*
X302996Y026745D01*
X303111Y026809D01*
X303224Y026879D01*
X303333Y026955D01*
X303438Y027037D01*
X303541Y027126D01*
X30364Y02722D01*
X303735Y027319D01*
X303824Y027421D01*
X303907Y027525D01*
X303985Y027633D01*
X304057Y027743D01*
X304124Y027856D01*
X304185Y027971D01*
X30424Y02809D01*
X30429Y028211D01*
X304334Y028336D01*
X304372Y028463D01*
X304405Y028593D01*
X304432Y028725D01*
X304454Y028861D01*
X30447Y028999D01*
X30448Y02914D01*
Y05668D01*
X304469Y056814D01*
X304452Y056945D01*
X304429Y057074D01*
X304399Y057201D01*
X304363Y057326D01*
X304321Y057448D01*
X304272Y057568D01*
X304218Y057685D01*
X304156Y0578D01*
X304089Y057913D01*
X304015Y058023D01*
X303934Y058131D01*
X303848Y058237D01*
X303755Y05834D01*
X303656Y058441D01*
X30355Y05854D01*
X30344Y058634D01*
X303327Y058723D01*
X303212Y058805D01*
X303094Y058881D01*
X302974Y058951D01*
X302851Y059015D01*
X302726Y059073D01*
X302598Y059125D01*
X302467Y059171D01*
X302334Y05921D01*
X302198Y059244D01*
X302059Y059271D01*
X301918Y059293D01*
X301775Y059308D01*
X301629Y059317D01*
X30148Y05932D01*
X30028D01*
Y06094D01*
X31336D01*
Y05932D01*
X31216D01*
X312011Y059317D01*
X311865Y059308D01*
X311722Y059293D01*
X311581Y059271D01*
X311442Y059244D01*
X311306Y05921D01*
X311173Y059171D01*
X311043Y059125D01*
X310914Y059073D01*
X310789Y059015D01*
X310666Y058951D01*
X310546Y058881D01*
X310428Y058805D01*
X310313Y058723D01*
X3102Y058634D01*
X31009Y05854D01*
X309984Y058441D01*
X309885Y05834D01*
X309792Y058237D01*
X309706Y058131D01*
X309625Y058023D01*
X309551Y057913D01*
X309484Y0578D01*
X309423Y057685D01*
X309368Y057568D01*
X309319Y057448D01*
X309277Y057326D01*
X309241Y057201D01*
X309211Y057074D01*
X309188Y056945D01*
X309171Y056814D01*
X30916Y05668D01*
Y02776D01*
X31774D01*
X317978Y027769D01*
X318212Y027782D01*
X318442Y027798D01*
X318668Y027818D01*
X31889Y027841D01*
X319108Y027868D01*
X319322Y027899D01*
X319533Y027933D01*
X319739Y02797D01*
X319941Y028011D01*
X320139Y028055D01*
X320333Y028103D01*
X320523Y028155D01*
X32071Y02821D01*
X320892Y028268D01*
X32107Y02833D01*
X321245Y028395D01*
X321417Y028463D01*
X321586Y028534D01*
X321753Y028608D01*
X321916Y028684D01*
X322077Y028763D01*
X322235Y028845D01*
X32239Y02893D01*
X322542Y029018D01*
X322692Y029108D01*
X322839Y029201D01*
X322983Y029298D01*
X323124Y029396D01*
X323262Y029498D01*
X323397Y029603D01*
X32353Y02971D01*
X32366Y02982D01*
X323788Y029932D01*
X323913Y030047D01*
X324036Y030164D01*
X324157Y030283D01*
X324275Y030405D01*
X324391Y030529D01*
X324505Y030655D01*
X324616Y030784D01*
X324725Y030915D01*
X324832Y031048D01*
X324936Y031184D01*
X325038Y031322D01*
X325138Y031462D01*
X325235Y031605D01*
X32533Y03175D01*
X325423Y031897D01*
X325515Y032047D01*
X325606Y032198D01*
X325696Y032352D01*
X325784Y032508D01*
X325871Y032665D01*
X325958Y032825D01*
X326043Y032988D01*
X326126Y033152D01*
X326209Y033318D01*
X32629Y033486D01*
X326371Y033657D01*
X32645Y033829D01*
X326528Y034004D01*
X326604Y034181D01*
X32668Y03436D01*
X32842Y03412D01*
G37*
G36*
X35068Y06106D02*
X350786Y06106D01*
X350893Y061062D01*
X351001Y061064D01*
X351111Y061068D01*
X351223Y061072D01*
X351335Y061077D01*
X351449Y061083D01*
X351565Y06109D01*
X351682Y061098D01*
X3518Y061107D01*
X35192Y061117D01*
X352041Y061128D01*
X352164Y061139D01*
X352288Y061152D01*
X352413Y061165D01*
X35254Y06118D01*
X352667Y061195D01*
X352795Y061211D01*
X352921Y061227D01*
X353048Y061244D01*
X353175Y061261D01*
X353301Y061278D01*
X353427Y061296D01*
X353553Y061315D01*
X353678Y061334D01*
X353803Y061353D01*
X353928Y061373D01*
X354053Y061394D01*
X354178Y061415D01*
X354302Y061436D01*
X354426Y061458D01*
X35455Y06148D01*
X354673Y061503D01*
X354795Y061525D01*
X354916Y061549D01*
X355036Y061572D01*
X355154Y061595D01*
X355271Y061619D01*
X355388Y061643D01*
X355503Y061668D01*
X355616Y061692D01*
X355729Y061717D01*
X35584Y061742D01*
X355951Y061767D01*
X35606Y061792D01*
X356168Y061818D01*
X356274Y061844D01*
X35638Y06187D01*
X356484Y061896D01*
X356584Y061922D01*
X356682Y061948D01*
X356778Y061973D01*
X35687Y061998D01*
X356959Y062023D01*
X357046Y062048D01*
X35713Y062073D01*
X357211Y062097D01*
X357289Y062121D01*
X357365Y062145D01*
X357438Y062168D01*
X357507Y062191D01*
X357574Y062215D01*
X357639Y062237D01*
X3577Y06226D01*
Y0544D01*
X35608D01*
Y05578D01*
X356077Y055906D01*
X356069Y05603D01*
X356056Y056152D01*
X356037Y056271D01*
X356013Y056388D01*
X355983Y056503D01*
X355948Y056615D01*
X355908Y056725D01*
X355862Y056833D01*
X35581Y056938D01*
X355754Y057041D01*
X355692Y057141D01*
X355624Y057239D01*
X355552Y057335D01*
X355474Y057429D01*
X35539Y05752D01*
X355302Y057607D01*
X355211Y05769D01*
X355118Y057767D01*
X355021Y057839D01*
X354921Y057906D01*
X354818Y057967D01*
X354712Y058024D01*
X354603Y058075D01*
X35449Y058121D01*
X354375Y058162D01*
X354257Y058198D01*
X354136Y058229D01*
X354011Y058254D01*
X353884Y058275D01*
X353753Y05829D01*
X35362Y0583D01*
X3436D01*
Y0292D01*
X343611Y029066D01*
X343627Y028935D01*
X34365Y028806D01*
X343679Y028679D01*
X343714Y028554D01*
X343755Y028432D01*
X343802Y028312D01*
X343855Y028195D01*
X343914Y02808D01*
X34398Y027967D01*
X344051Y027857D01*
X344129Y027749D01*
X344212Y027643D01*
X344302Y02754D01*
X344398Y027439D01*
X3445Y02734D01*
X344606Y027246D01*
X344716Y027157D01*
X344828Y027075D01*
X344943Y026999D01*
X34506Y026929D01*
X345181Y026865D01*
X345304Y026807D01*
X34543Y026755D01*
X345559Y026709D01*
X345691Y02667D01*
X345825Y026636D01*
X345963Y026609D01*
X346103Y026587D01*
X346246Y026572D01*
X346391Y026563D01*
X34654Y02656D01*
X34774D01*
Y025D01*
X33472D01*
Y02656D01*
X33592D01*
X336068Y026563D01*
X336214Y026572D01*
X336356Y026587D01*
X336496Y026609D01*
X336632Y026636D01*
X336765Y02667D01*
X336895Y026709D01*
X337023Y026755D01*
X337147Y026807D01*
X337268Y026865D01*
X337386Y026929D01*
X337501Y026999D01*
X337613Y027075D01*
X337721Y027157D01*
X337827Y027246D01*
X33793Y02734D01*
X338029Y027439D01*
X338122Y027541D01*
X338209Y027645D01*
X338292Y027753D01*
X338369Y027863D01*
X33844Y027976D01*
X338507Y028091D01*
X338568Y02821D01*
X338623Y028331D01*
X338673Y028456D01*
X338718Y028583D01*
X338757Y028713D01*
X338791Y028845D01*
X338819Y028981D01*
X338842Y029119D01*
X33886Y02926D01*
Y0583D01*
X32878D01*
X328647Y05829D01*
X328517Y058275D01*
X32839Y058254D01*
X328266Y058229D01*
X328146Y058198D01*
X328029Y058162D01*
X327915Y058121D01*
X327805Y058075D01*
X327698Y058024D01*
X327594Y057967D01*
X327494Y057906D01*
X327396Y057839D01*
X327302Y057767D01*
X327212Y05769D01*
X327124Y057607D01*
X32704Y05752D01*
X32696Y057429D01*
X326885Y057335D01*
X326816Y057239D01*
X326751Y057141D01*
X326692Y057041D01*
X326638Y056938D01*
X326589Y056833D01*
X326545Y056725D01*
X326506Y056615D01*
X326473Y056503D01*
X326444Y056388D01*
X326421Y056271D01*
X326403Y056152D01*
X32639Y05603D01*
X326383Y055906D01*
X32638Y05578D01*
Y0544D01*
X3247D01*
Y06226D01*
X324761Y062237D01*
X324826Y062215D01*
X324893Y062191D01*
X324963Y062168D01*
X325035Y062145D01*
X325111Y062121D01*
X325189Y062097D01*
X32527Y062073D01*
X325354Y062048D01*
X325441Y062023D01*
X32553Y061998D01*
X325623Y061973D01*
X325718Y061948D01*
X325816Y061922D01*
X325916Y061896D01*
X32602Y06187D01*
X326126Y061844D01*
X326232Y061818D01*
X32634Y061792D01*
X326449Y061767D01*
X32656Y061742D01*
X326671Y061717D01*
X326784Y061692D01*
X326898Y061668D01*
X327012Y061643D01*
X327129Y061619D01*
X327246Y061595D01*
X327364Y061572D01*
X327484Y061549D01*
X327605Y061525D01*
X327727Y061503D01*
X32785Y06148D01*
X327974Y061458D01*
X328098Y061436D01*
X328222Y061415D01*
X328347Y061394D01*
X328472Y061373D01*
X328597Y061353D01*
X328722Y061334D01*
X328848Y061315D01*
X328973Y061296D01*
X329099Y061278D01*
X329225Y061261D01*
X329352Y061244D01*
X329479Y061227D01*
X329605Y061211D01*
X329733Y061195D01*
X32986Y06118D01*
X329987Y061165D01*
X330112Y061152D01*
X330236Y061139D01*
X330359Y061128D01*
X33048Y061117D01*
X3306Y061107D01*
X330718Y061098D01*
X330835Y06109D01*
X330951Y061083D01*
X331065Y061077D01*
X331177Y061072D01*
X331289Y061068D01*
X331399Y061064D01*
X331507Y061062D01*
X331614Y06106D01*
X33172Y06106D01*
X35068D01*
G37*
G36*
X37882Y06184D02*
X379343Y061835D01*
X379862Y061818D01*
X380376Y061791D01*
X380886Y061754D01*
X381392Y061705D01*
X381894Y061646D01*
X382392Y061576D01*
X382885Y061495D01*
X383374Y061403D01*
X383859Y061301D01*
X38434Y061188D01*
X384816Y061064D01*
X385289Y060929D01*
X385757Y060783D01*
X38622Y060627D01*
X38668Y06046D01*
X387134Y060283D01*
X387581Y060098D01*
X388021Y059903D01*
X388454Y059701D01*
X38888Y059489D01*
X389298Y059269D01*
X38971Y05904D01*
X390115Y058803D01*
X390513Y058556D01*
X390903Y058301D01*
X391287Y058038D01*
X391664Y057766D01*
X392033Y057485D01*
X392396Y057195D01*
X392751Y056897D01*
X3931Y05659D01*
X39344Y056275D01*
X393772Y055953D01*
X394094Y055623D01*
X394407Y055285D01*
X394711Y05494D01*
X395005Y054588D01*
X395291Y054228D01*
X395568Y05386D01*
X395835Y053485D01*
X396093Y053103D01*
X396342Y052713D01*
X396582Y052315D01*
X396813Y05191D01*
X397034Y051498D01*
X397247Y051078D01*
X39745Y05065D01*
X397643Y050216D01*
X397823Y049776D01*
X39799Y04933D01*
X398146Y048878D01*
X398288Y048421D01*
X398419Y047957D01*
X398537Y047488D01*
X398643Y047013D01*
X398736Y046531D01*
X398816Y046045D01*
X398885Y045552D01*
X398941Y045053D01*
X398984Y044549D01*
X399015Y044038D01*
X399034Y043522D01*
X39904Y043D01*
X399034Y042478D01*
X399015Y041962D01*
X398984Y041451D01*
X398941Y040947D01*
X398885Y040448D01*
X398816Y039955D01*
X398736Y039469D01*
X398643Y038988D01*
X398537Y038512D01*
X398419Y038043D01*
X398288Y037579D01*
X398146Y037122D01*
X39799Y03667D01*
X397823Y036224D01*
X397643Y035784D01*
X39745Y03535D01*
X397247Y034923D01*
X397034Y034503D01*
X396813Y03409D01*
X396582Y033685D01*
X396342Y033288D01*
X396093Y032898D01*
X395835Y032515D01*
X395568Y03214D01*
X395291Y031773D01*
X395005Y031413D01*
X394711Y03106D01*
X394407Y030715D01*
X394094Y030378D01*
X393772Y030048D01*
X39344Y029725D01*
X3931Y02941D01*
X392751Y029103D01*
X392396Y028805D01*
X392033Y028515D01*
X391664Y028234D01*
X391287Y027962D01*
X390903Y027699D01*
X390513Y027444D01*
X390115Y027198D01*
X38971Y02696D01*
X389298Y026731D01*
X38888Y026511D01*
X388454Y026299D01*
X388021Y026097D01*
X387581Y025902D01*
X387134Y025717D01*
X38668Y02554D01*
X38622Y025373D01*
X385757Y025217D01*
X385289Y025071D01*
X384816Y024936D01*
X38434Y024812D01*
X383859Y024699D01*
X383374Y024597D01*
X382885Y024505D01*
X382392Y024424D01*
X381894Y024354D01*
X381392Y024295D01*
X380886Y024246D01*
X380376Y024209D01*
X379862Y024182D01*
X379343Y024165D01*
X37882Y02416D01*
X378297Y024165D01*
X377778Y024182D01*
X377263Y024209D01*
X376752Y024246D01*
X376245Y024295D01*
X375742Y024354D01*
X375243Y024424D01*
X374748Y024505D01*
X374256Y024597D01*
X373769Y024699D01*
X373286Y024812D01*
X372807Y024936D01*
X372332Y025071D01*
X37186Y025217D01*
X371393Y025373D01*
X37093Y02554D01*
X370472Y025717D01*
X370022Y025902D01*
X369579Y026097D01*
X369143Y026299D01*
X368715Y026511D01*
X368293Y026731D01*
X367879Y02696D01*
X367473Y027198D01*
X367073Y027444D01*
X366681Y027699D01*
X366296Y027962D01*
X365918Y028234D01*
X365548Y028515D01*
X365185Y028805D01*
X364829Y029103D01*
X36448Y02941D01*
X36414Y029725D01*
X363808Y030048D01*
X363486Y030378D01*
X363173Y030715D01*
X362869Y03106D01*
X362575Y031413D01*
X362289Y031773D01*
X362013Y03214D01*
X361745Y032515D01*
X361487Y032898D01*
X361238Y033288D01*
X360998Y033685D01*
X360767Y03409D01*
X360546Y034503D01*
X360333Y034923D01*
X36013Y03535D01*
X359937Y035784D01*
X359757Y036224D01*
X35959Y03667D01*
X359434Y037122D01*
X359292Y037579D01*
X359161Y038043D01*
X359043Y038512D01*
X358938Y038988D01*
X358844Y039469D01*
X358764Y039955D01*
X358695Y040448D01*
X358639Y040947D01*
X358596Y041451D01*
X358565Y041962D01*
X358546Y042478D01*
X35854Y043D01*
X358546Y043522D01*
X358565Y044038D01*
X358596Y044549D01*
X358639Y045053D01*
X358695Y045552D01*
X358764Y046045D01*
X358844Y046531D01*
X358938Y047013D01*
X359043Y047488D01*
X359161Y047957D01*
X359292Y048421D01*
X359434Y048878D01*
X35959Y04933D01*
X359757Y049776D01*
X359937Y050216D01*
X36013Y05065D01*
X360333Y051078D01*
X360546Y051498D01*
X360767Y05191D01*
X360998Y052315D01*
X361238Y052713D01*
X361487Y053103D01*
X361745Y053485D01*
X362013Y05386D01*
X362289Y054228D01*
X362575Y054588D01*
X362869Y05494D01*
X363173Y055285D01*
X363486Y055623D01*
X363808Y055953D01*
X36414Y056275D01*
X36448Y05659D01*
X364829Y056897D01*
X365185Y057195D01*
X365548Y057485D01*
X365918Y057766D01*
X366296Y058038D01*
X366681Y058301D01*
X367073Y058556D01*
X367473Y058803D01*
X367879Y05904D01*
X368293Y059269D01*
X368715Y059489D01*
X369143Y059701D01*
X369579Y059903D01*
X370022Y060098D01*
X370472Y060283D01*
X37093Y06046D01*
X371393Y060627D01*
X37186Y060783D01*
X372332Y060929D01*
X372807Y061064D01*
X373286Y061188D01*
X373769Y061301D01*
X374256Y061403D01*
X374748Y061495D01*
X375243Y061576D01*
X375742Y061646D01*
X376245Y061705D01*
X376752Y061754D01*
X377263Y061791D01*
X377778Y061818D01*
X378297Y061835D01*
X37882Y06184D01*
G37*
G36*
X42358D02*
X424103Y061835D01*
X424622Y061818D01*
X425136Y061791D01*
X425646Y061754D01*
X426152Y061705D01*
X426654Y061646D01*
X427152Y061576D01*
X427645Y061495D01*
X428134Y061403D01*
X428619Y061301D01*
X4291Y061188D01*
X429576Y061064D01*
X430049Y060929D01*
X430517Y060783D01*
X43098Y060627D01*
X43144Y06046D01*
X431894Y060283D01*
X432341Y060098D01*
X432781Y059903D01*
X433214Y059701D01*
X43364Y059489D01*
X434058Y059269D01*
X43447Y05904D01*
X434875Y058803D01*
X435273Y058556D01*
X435663Y058301D01*
X436047Y058038D01*
X436424Y057766D01*
X436793Y057485D01*
X437156Y057195D01*
X437511Y056897D01*
X43786Y05659D01*
X4382Y056275D01*
X438532Y055953D01*
X438854Y055623D01*
X439167Y055285D01*
X439471Y05494D01*
X439765Y054588D01*
X440051Y054228D01*
X440328Y05386D01*
X440595Y053485D01*
X440853Y053103D01*
X441102Y052713D01*
X441342Y052315D01*
X441573Y05191D01*
X441794Y051498D01*
X442007Y051078D01*
X44221Y05065D01*
X442403Y050216D01*
X442583Y049776D01*
X44275Y04933D01*
X442906Y048878D01*
X443048Y048421D01*
X443179Y047957D01*
X443297Y047488D01*
X443403Y047013D01*
X443496Y046531D01*
X443576Y046045D01*
X443645Y045552D01*
X443701Y045053D01*
X443744Y044549D01*
X443775Y044038D01*
X443794Y043522D01*
X4438Y043D01*
X443794Y042478D01*
X443775Y041962D01*
X443744Y041451D01*
X443701Y040947D01*
X443645Y040448D01*
X443576Y039955D01*
X443496Y039469D01*
X443403Y038988D01*
X443297Y038512D01*
X443179Y038043D01*
X443048Y037579D01*
X442906Y037122D01*
X44275Y03667D01*
X442583Y036224D01*
X442403Y035784D01*
X44221Y03535D01*
X442007Y034923D01*
X441794Y034503D01*
X441573Y03409D01*
X441342Y033685D01*
X441102Y033288D01*
X440853Y032898D01*
X440595Y032515D01*
X440328Y03214D01*
X440051Y031773D01*
X439765Y031413D01*
X439471Y03106D01*
X439167Y030715D01*
X438854Y030378D01*
X438532Y030048D01*
X4382Y029725D01*
X43786Y02941D01*
X437511Y029103D01*
X437156Y028805D01*
X436793Y028515D01*
X436424Y028234D01*
X436047Y027962D01*
X435663Y027699D01*
X435273Y027444D01*
X434875Y027198D01*
X43447Y02696D01*
X434058Y026731D01*
X43364Y026511D01*
X433214Y026299D01*
X432781Y026097D01*
X432341Y025902D01*
X431894Y025717D01*
X43144Y02554D01*
X43098Y025373D01*
X430517Y025217D01*
X430049Y025071D01*
X429576Y024936D01*
X4291Y024812D01*
X428619Y024699D01*
X428134Y024597D01*
X427645Y024505D01*
X427152Y024424D01*
X426654Y024354D01*
X426152Y024295D01*
X425646Y024246D01*
X425136Y024209D01*
X424622Y024182D01*
X424103Y024165D01*
X42358Y02416D01*
X423057Y024165D01*
X422538Y024182D01*
X422023Y024209D01*
X421512Y024246D01*
X421005Y024295D01*
X420502Y024354D01*
X420003Y024424D01*
X419508Y024505D01*
X419016Y024597D01*
X418529Y024699D01*
X418046Y024812D01*
X417567Y024936D01*
X417092Y025071D01*
X41662Y025217D01*
X416153Y025373D01*
X41569Y02554D01*
X415232Y025717D01*
X414782Y025902D01*
X414339Y026097D01*
X413903Y026299D01*
X413475Y026511D01*
X413053Y026731D01*
X412639Y02696D01*
X412233Y027198D01*
X411833Y027444D01*
X411441Y027699D01*
X411056Y027962D01*
X410678Y028234D01*
X410308Y028515D01*
X409945Y028805D01*
X409589Y029103D01*
X40924Y02941D01*
X4089Y029725D01*
X408568Y030048D01*
X408246Y030378D01*
X407933Y030715D01*
X407629Y03106D01*
X407335Y031413D01*
X407049Y031773D01*
X406773Y03214D01*
X406505Y032515D01*
X406247Y032898D01*
X405998Y033288D01*
X405758Y033685D01*
X405527Y03409D01*
X405306Y034503D01*
X405093Y034923D01*
X40489Y03535D01*
X404697Y035784D01*
X404517Y036224D01*
X40435Y03667D01*
X404194Y037122D01*
X404052Y037579D01*
X403921Y038043D01*
X403803Y038512D01*
X403698Y038988D01*
X403604Y039469D01*
X403524Y039955D01*
X403455Y040448D01*
X403399Y040947D01*
X403356Y041451D01*
X403325Y041962D01*
X403306Y042478D01*
X4033Y043D01*
X403306Y043522D01*
X403325Y044038D01*
X403356Y044549D01*
X403399Y045053D01*
X403455Y045552D01*
X403524Y046045D01*
X403604Y046531D01*
X403698Y047013D01*
X403803Y047488D01*
X403921Y047957D01*
X404052Y048421D01*
X404194Y048878D01*
X40435Y04933D01*
X404517Y049776D01*
X404697Y050216D01*
X40489Y05065D01*
X405093Y051078D01*
X405306Y051498D01*
X405527Y05191D01*
X405758Y052315D01*
X405998Y052713D01*
X406247Y053103D01*
X406505Y053485D01*
X406773Y05386D01*
X407049Y054228D01*
X407335Y054588D01*
X407629Y05494D01*
X407933Y055285D01*
X408246Y055623D01*
X408568Y055953D01*
X4089Y056275D01*
X40924Y05659D01*
X409589Y056897D01*
X409945Y057195D01*
X410308Y057485D01*
X410678Y057766D01*
X411056Y058038D01*
X411441Y058301D01*
X411833Y058556D01*
X412233Y058803D01*
X412639Y05904D01*
X413053Y059269D01*
X413475Y059489D01*
X413903Y059701D01*
X414339Y059903D01*
X414782Y060098D01*
X415232Y060283D01*
X41569Y06046D01*
X416153Y060627D01*
X41662Y060783D01*
X417092Y060929D01*
X417567Y061064D01*
X418046Y061188D01*
X418529Y061301D01*
X419016Y061403D01*
X419508Y061495D01*
X420003Y061576D01*
X420502Y061646D01*
X421005Y061705D01*
X421512Y061754D01*
X422023Y061791D01*
X422538Y061818D01*
X423057Y061835D01*
X42358Y06184D01*
G37*
G36*
X47644Y03412D02*
X4729Y02488D01*
X44836D01*
Y02644D01*
X44968D01*
X449828Y026443D01*
X449973Y026452D01*
X450115Y026467D01*
X450254Y026489D01*
X450389Y026516D01*
X450521Y02655D01*
X45065Y026589D01*
X450775Y026635D01*
X450897Y026687D01*
X451016Y026745D01*
X451131Y026809D01*
X451244Y026879D01*
X451353Y026955D01*
X451458Y027037D01*
X451561Y027126D01*
X45166Y02722D01*
X451755Y027319D01*
X451844Y027421D01*
X451927Y027525D01*
X452005Y027633D01*
X452077Y027743D01*
X452144Y027856D01*
X452205Y027971D01*
X45226Y02809D01*
X45231Y028211D01*
X452354Y028336D01*
X452392Y028463D01*
X452425Y028593D01*
X452452Y028725D01*
X452474Y028861D01*
X45249Y028999D01*
X4525Y02914D01*
Y05668D01*
X452489Y056814D01*
X452472Y056945D01*
X452449Y057074D01*
X452419Y057201D01*
X452383Y057326D01*
X452341Y057448D01*
X452292Y057568D01*
X452238Y057685D01*
X452176Y0578D01*
X452109Y057913D01*
X452035Y058023D01*
X451954Y058131D01*
X451868Y058237D01*
X451775Y05834D01*
X451676Y058441D01*
X45157Y05854D01*
X45146Y058634D01*
X451347Y058723D01*
X451232Y058805D01*
X451114Y058881D01*
X450994Y058951D01*
X450871Y059015D01*
X450746Y059073D01*
X450618Y059125D01*
X450487Y059171D01*
X450354Y05921D01*
X450218Y059244D01*
X450079Y059271D01*
X449938Y059293D01*
X449795Y059308D01*
X449649Y059317D01*
X4495Y05932D01*
X4483D01*
Y06094D01*
X46138D01*
Y05932D01*
X46018D01*
X460031Y059317D01*
X459885Y059308D01*
X459742Y059293D01*
X459601Y059271D01*
X459462Y059244D01*
X459326Y05921D01*
X459193Y059171D01*
X459063Y059125D01*
X458934Y059073D01*
X458809Y059015D01*
X458686Y058951D01*
X458566Y058881D01*
X458448Y058805D01*
X458333Y058723D01*
X45822Y058634D01*
X45811Y05854D01*
X458004Y058441D01*
X457905Y05834D01*
X457812Y058237D01*
X457726Y058131D01*
X457645Y058023D01*
X457571Y057913D01*
X457504Y0578D01*
X457443Y057685D01*
X457388Y057568D01*
X457339Y057448D01*
X457297Y057326D01*
X457261Y057201D01*
X457231Y057074D01*
X457208Y056945D01*
X457191Y056814D01*
X45718Y05668D01*
Y02776D01*
X46576D01*
X465998Y027769D01*
X466232Y027782D01*
X466462Y027798D01*
X466688Y027818D01*
X46691Y027841D01*
X467128Y027868D01*
X467342Y027899D01*
X467553Y027933D01*
X467759Y02797D01*
X467961Y028011D01*
X468159Y028055D01*
X468353Y028103D01*
X468543Y028155D01*
X46873Y02821D01*
X468912Y028268D01*
X46909Y02833D01*
X469265Y028395D01*
X469437Y028463D01*
X469606Y028534D01*
X469773Y028608D01*
X469936Y028684D01*
X470097Y028763D01*
X470255Y028845D01*
X47041Y02893D01*
X470562Y029018D01*
X470712Y029108D01*
X470859Y029201D01*
X471003Y029298D01*
X471144Y029396D01*
X471282Y029498D01*
X471417Y029603D01*
X47155Y02971D01*
X47168Y02982D01*
X471808Y029932D01*
X471933Y030047D01*
X472056Y030164D01*
X472177Y030283D01*
X472295Y030405D01*
X472411Y030529D01*
X472525Y030655D01*
X472636Y030784D01*
X472745Y030915D01*
X472852Y031048D01*
X472956Y031184D01*
X473058Y031322D01*
X473158Y031462D01*
X473255Y031605D01*
X47335Y03175D01*
X473443Y031897D01*
X473535Y032047D01*
X473626Y032198D01*
X473716Y032352D01*
X473804Y032508D01*
X473891Y032665D01*
X473978Y032825D01*
X474063Y032988D01*
X474146Y033152D01*
X474229Y033318D01*
X47431Y033486D01*
X474391Y033657D01*
X47447Y033829D01*
X474548Y034004D01*
X474624Y034181D01*
X4747Y03436D01*
X47644Y03412D01*
G37*
G36*
X50026Y04072D02*
X500437Y040567D01*
X500608Y04041D01*
X500773Y040247D01*
X500931Y040079D01*
X501084Y039906D01*
X50123Y039727D01*
X501371Y039544D01*
X501505Y039355D01*
X501633Y039161D01*
X501755Y038962D01*
X501871Y038758D01*
X501981Y038549D01*
X502085Y038334D01*
X502183Y038115D01*
X502274Y03789D01*
X50236Y03766D01*
X50244Y037428D01*
X502516Y037196D01*
X502586Y036965D01*
X502653Y036734D01*
X502714Y036503D01*
X502771Y036273D01*
X502823Y036044D01*
X50287Y035815D01*
X502913Y035586D01*
X502951Y035358D01*
X502984Y035131D01*
X503013Y034904D01*
X503036Y034677D01*
X503056Y034451D01*
X50307Y034225D01*
X50308Y034D01*
X503077Y033746D01*
X503066Y033494D01*
X503049Y033243D01*
X503026Y032995D01*
X502995Y032748D01*
X502958Y032504D01*
X502913Y032261D01*
X502863Y03202D01*
X502805Y031781D01*
X50274Y031544D01*
X502669Y031308D01*
X502591Y031075D01*
X502506Y030843D01*
X502414Y030614D01*
X502315Y030386D01*
X50221Y03016D01*
X502099Y029937D01*
X501983Y029717D01*
X501863Y029501D01*
X501738Y029288D01*
X501608Y029079D01*
X501473Y028873D01*
X501334Y028671D01*
X50119Y028473D01*
X501041Y028277D01*
X500888Y028086D01*
X50073Y027898D01*
X500568Y027713D01*
X5004Y027532D01*
X500228Y027355D01*
X500051Y027181D01*
X49987Y02701D01*
X499684Y026843D01*
X499495Y026681D01*
X499301Y026524D01*
X499103Y026371D01*
X498901Y026222D01*
X498696Y026078D01*
X498486Y025938D01*
X498273Y025803D01*
X498055Y025672D01*
X497833Y025545D01*
X497608Y025423D01*
X497378Y025306D01*
X497145Y025193D01*
X496907Y025084D01*
X496666Y02498D01*
X49642Y02488D01*
X496172Y024786D01*
X495921Y024697D01*
X495669Y024615D01*
X495415Y024539D01*
X495159Y024469D01*
X494901Y024405D01*
X494642Y024347D01*
X49438Y024295D01*
X494117Y024249D01*
X493851Y02421D01*
X493584Y024176D01*
X493315Y024149D01*
X493044Y024127D01*
X492771Y024112D01*
X492497Y024103D01*
X49222Y0241D01*
X492054Y024101D01*
X491887Y024103D01*
X491719Y024106D01*
X491549Y024111D01*
X491377Y024118D01*
X491205Y024125D01*
X491031Y024134D01*
X490855Y024145D01*
X490678Y024157D01*
X4905Y02417D01*
X49032Y024185D01*
X490139Y024201D01*
X489956Y024219D01*
X489772Y024238D01*
X489587Y024258D01*
X4894Y02428D01*
X489213Y024303D01*
X489026Y024328D01*
X488841Y024354D01*
X488656Y024381D01*
X488471Y02441D01*
X488288Y02444D01*
X488105Y024472D01*
X487923Y024505D01*
X487741Y024539D01*
X48756Y024575D01*
X48738Y024613D01*
X487201Y024651D01*
X487022Y024691D01*
X486844Y024733D01*
X486667Y024776D01*
X48649Y02482D01*
X486314Y024866D01*
X48614Y024913D01*
X485967Y024962D01*
X485794Y025013D01*
X485623Y025066D01*
X485454Y02512D01*
X485285Y025175D01*
X485118Y025233D01*
X484951Y025291D01*
X484786Y025352D01*
X484622Y025414D01*
X484459Y025478D01*
X484298Y025544D01*
X484137Y025611D01*
X483978Y02568D01*
X48382Y02575D01*
X483664Y025822D01*
X483512Y025896D01*
X483362Y025971D01*
X483216Y026048D01*
X483074Y026127D01*
X482934Y026207D01*
X482798Y026289D01*
X482665Y026373D01*
X482535Y026458D01*
X482409Y026545D01*
X482286Y026633D01*
X482166Y026723D01*
X48205Y026815D01*
X481937Y026908D01*
X481827Y027003D01*
X48172Y0271D01*
X481705Y02716D01*
X481691Y027221D01*
X481677Y027283D01*
X481664Y027346D01*
X481651Y027409D01*
X481638Y027473D01*
X481626Y027537D01*
X481615Y027603D01*
X481604Y027668D01*
X481593Y027735D01*
X481583Y027803D01*
X481574Y027871D01*
X481565Y027939D01*
X481556Y028009D01*
X481548Y028079D01*
X48154Y02815D01*
X481533Y028222D01*
X481526Y028294D01*
X48152Y028367D01*
X481514Y028441D01*
X481508Y028515D01*
X481503Y02859D01*
X481499Y028666D01*
X481495Y028743D01*
X481491Y02882D01*
X481488Y028898D01*
X481486Y028976D01*
X481484Y029056D01*
X481482Y029136D01*
X481481Y029216D01*
X48148Y029298D01*
X48148Y02938D01*
X481481Y029539D01*
X481484Y0297D01*
X481488Y029863D01*
X481495Y030029D01*
X481503Y030197D01*
X481514Y030367D01*
X481526Y03054D01*
X48154Y030715D01*
X481556Y030892D01*
X481574Y031072D01*
X481593Y031254D01*
X481615Y031439D01*
X481638Y031626D01*
X481664Y031815D01*
X481691Y032006D01*
X48172Y0322D01*
X481751Y032394D01*
X481784Y032587D01*
X481818Y032779D01*
X481855Y032969D01*
X481893Y033157D01*
X481934Y033345D01*
X481976Y033531D01*
X48202Y033715D01*
X482066Y033898D01*
X482114Y03408D01*
X482163Y03426D01*
X482215Y034439D01*
X482268Y034616D01*
X482324Y034792D01*
X482381Y034967D01*
X48244Y03514D01*
X48406D01*
X484053Y035073D01*
X484045Y035008D01*
X484039Y034944D01*
X484032Y034881D01*
X484025Y03482D01*
X484019Y03476D01*
X484013Y034702D01*
X484008Y034645D01*
X484002Y034589D01*
X483997Y034535D01*
X483992Y034483D01*
X483987Y034431D01*
X483982Y034381D01*
X483978Y034333D01*
X483974Y034286D01*
X48397Y03424D01*
X483966Y034195D01*
X483963Y034152D01*
X48396Y034109D01*
X483957Y034068D01*
X483954Y034027D01*
X483952Y033987D01*
X483949Y033948D01*
X483948Y03391D01*
X483946Y033873D01*
X483944Y033837D01*
X483943Y033802D01*
X483942Y033768D01*
X483941Y033734D01*
X48394Y033702D01*
X48394Y03367D01*
X48394Y03364D01*
X483948Y033248D01*
X483972Y032867D01*
X484012Y032497D01*
X484068Y032138D01*
X484139Y03179D01*
X484227Y031453D01*
X48433Y031127D01*
X48445Y030813D01*
X484585Y030509D01*
X484737Y030216D01*
X484904Y029934D01*
X485088Y029663D01*
X485287Y029403D01*
X485502Y029155D01*
X485733Y028917D01*
X48598Y02869D01*
X48624Y028476D01*
X486509Y028275D01*
X486787Y028088D01*
X487075Y027916D01*
X487372Y027757D01*
X487679Y027611D01*
X487995Y02748D01*
X48832Y027363D01*
X488655Y027259D01*
X488999Y027169D01*
X489352Y027093D01*
X489715Y027031D01*
X490087Y026982D01*
X490469Y026948D01*
X49086Y026927D01*
X49126Y02692D01*
X49168D01*
X492102Y026941D01*
X492512Y026973D01*
X492911Y027016D01*
X493298Y02707D01*
X493674Y027136D01*
X494038Y027213D01*
X494391Y027301D01*
X494733Y0274D01*
X495062Y027511D01*
X495381Y027633D01*
X495688Y027766D01*
X495983Y02791D01*
X496267Y028066D01*
X49654Y028233D01*
X496801Y028411D01*
X49705Y0286D01*
X497286Y028799D01*
X497507Y029008D01*
X497713Y029225D01*
X497903Y029451D01*
X498078Y029686D01*
X498238Y02993D01*
X498383Y030183D01*
X498513Y030445D01*
X498627Y030716D01*
X498726Y030995D01*
X49881Y031284D01*
X498878Y031581D01*
X498931Y031888D01*
X49897Y032203D01*
X498992Y032527D01*
X499Y03286D01*
X498998Y033009D01*
X498993Y033158D01*
X498984Y033305D01*
X498972Y033451D01*
X498956Y033595D01*
X498937Y033739D01*
X498914Y033881D01*
X498888Y034023D01*
X498858Y034163D01*
X498824Y034301D01*
X498787Y034439D01*
X498747Y034576D01*
X498703Y034711D01*
X498655Y034845D01*
X498604Y034978D01*
X49855Y03511D01*
X498491Y035241D01*
X498428Y03537D01*
X498359Y035498D01*
X498286Y035626D01*
X498207Y035752D01*
X498124Y035876D01*
X498036Y036D01*
X497943Y036123D01*
X497844Y036244D01*
X497741Y036364D01*
X497633Y036483D01*
X497521Y036601D01*
X497403Y036717D01*
X49728Y036833D01*
X497153Y036947D01*
X49702Y03706D01*
X49708D01*
X48538Y04606D01*
X485167Y046249D01*
X484963Y04644D01*
X484768Y046633D01*
X484581Y046829D01*
X484404Y047027D01*
X484235Y047227D01*
X484076Y04743D01*
X483925Y047635D01*
X483783Y047842D01*
X48365Y048052D01*
X483526Y048264D01*
X483411Y048479D01*
X483305Y048696D01*
X483208Y048915D01*
X483119Y049136D01*
X48304Y04936D01*
X482967Y049584D01*
X482898Y049807D01*
X482834Y050029D01*
X482774Y050249D01*
X482718Y050467D01*
X482666Y050685D01*
X482618Y050901D01*
X482575Y051115D01*
X482536Y051328D01*
X482501Y05154D01*
X48247Y05175D01*
X482444Y051959D01*
X482421Y052166D01*
X482403Y052372D01*
X48239Y052577D01*
X48238Y05278D01*
X482383Y053012D01*
X482392Y053242D01*
X482407Y053471D01*
X482429Y053699D01*
X482456Y053925D01*
X48249Y05415D01*
X482529Y054373D01*
X482575Y054595D01*
X482627Y054816D01*
X482685Y055035D01*
X482749Y055252D01*
X482819Y055469D01*
X482895Y055684D01*
X482977Y055897D01*
X483066Y056109D01*
X48316Y05632D01*
X48326Y056528D01*
X483364Y056733D01*
X483474Y056933D01*
X483588Y05713D01*
X483706Y057323D01*
X483829Y057513D01*
X483957Y057698D01*
X48409Y05788D01*
X484227Y058058D01*
X484369Y058233D01*
X484516Y058403D01*
X484668Y05857D01*
X484824Y058733D01*
X484984Y058893D01*
X48515Y059048D01*
X48532Y0592D01*
X485494Y059348D01*
X485673Y059493D01*
X485854Y059633D01*
X48604Y05977D01*
X486229Y059903D01*
X486423Y060033D01*
X486619Y060158D01*
X48682Y06028D01*
X487024Y060398D01*
X487233Y060513D01*
X487444Y060623D01*
X48766Y06073D01*
X487879Y060833D01*
X488103Y060933D01*
X488329Y061028D01*
X48856Y06112D01*
X488794Y061207D01*
X48903Y061289D01*
X489268Y061365D01*
X489509Y061435D01*
X489752Y0615D01*
X489997Y061559D01*
X490245Y061612D01*
X490495Y06166D01*
X490747Y061702D01*
X491002Y061739D01*
X491259Y06177D01*
X491519Y061795D01*
X491781Y061815D01*
X492045Y061829D01*
X492311Y061837D01*
X49258Y06184D01*
X492825Y061839D01*
X493066Y061838D01*
X493302Y061835D01*
X493534Y061831D01*
X493762Y061825D01*
X493985Y061819D01*
X494203Y061811D01*
X494418Y061803D01*
X494627Y061793D01*
X494832Y061781D01*
X495033Y061769D01*
X495229Y061756D01*
X495421Y061741D01*
X495609Y061725D01*
X495792Y061708D01*
X49597Y06169D01*
X496145Y061671D01*
X496316Y061651D01*
X496485Y061631D01*
X496651Y061609D01*
X496813Y061587D01*
X496973Y061565D01*
X497129Y061542D01*
X497283Y061518D01*
X497433Y061493D01*
X49758Y061467D01*
X497724Y061441D01*
X497866Y061414D01*
X498004Y061387D01*
X498139Y061359D01*
X498271Y06133D01*
X4984Y0613D01*
X50074D01*
X50092Y05398D01*
X49924D01*
X499234Y054276D01*
X499217Y054564D01*
X499187Y054843D01*
X499146Y055114D01*
X499094Y055377D01*
X499029Y055632D01*
X498953Y055879D01*
X498865Y056118D01*
X498765Y056348D01*
X498654Y05657D01*
X498531Y056784D01*
X498396Y056989D01*
X49825Y057187D01*
X498092Y057376D01*
X497922Y057557D01*
X49774Y05773D01*
X497546Y057893D01*
X497339Y058046D01*
X497118Y058189D01*
X496885Y058321D01*
X496638Y058442D01*
X496379Y058553D01*
X496106Y058653D01*
X49582Y058743D01*
X495521Y058822D01*
X495209Y05889D01*
X494883Y058948D01*
X494545Y058996D01*
X494193Y059033D01*
X493829Y059059D01*
X493451Y059075D01*
X49306Y05908D01*
X492888Y059078D01*
X492718Y059074D01*
X492549Y059066D01*
X492381Y059056D01*
X492215Y059042D01*
X49205Y059025D01*
X491887Y059005D01*
X491725Y058983D01*
X491564Y058957D01*
X491405Y058928D01*
X491248Y058896D01*
X491091Y058861D01*
X490936Y058823D01*
X490783Y058781D01*
X490631Y058737D01*
X49048Y05869D01*
X490331Y05864D01*
X490185Y058588D01*
X490041Y058533D01*
X489899Y058476D01*
X489759Y058417D01*
X489622Y058355D01*
X489487Y058291D01*
X489355Y058225D01*
X489225Y058156D01*
X489097Y058085D01*
X488972Y058012D01*
X488849Y057936D01*
X488728Y057858D01*
X48861Y057778D01*
X488494Y057695D01*
X48838Y05761D01*
X488269Y057523D01*
X488161Y057434D01*
X488056Y057344D01*
X487954Y057252D01*
X487856Y057158D01*
X48776Y057063D01*
X487667Y056966D01*
X487578Y056868D01*
X487491Y056767D01*
X487407Y056665D01*
X487327Y056562D01*
X487249Y056457D01*
X487175Y05635D01*
X487104Y056242D01*
X487035Y056132D01*
X48697Y05602D01*
X486908Y055907D01*
X48685Y055792D01*
X486797Y055676D01*
X486747Y055559D01*
X486701Y05544D01*
X486659Y05532D01*
X486621Y055198D01*
X486588Y055075D01*
X486558Y054951D01*
X486532Y054825D01*
X48651Y054697D01*
X486492Y054569D01*
X486478Y054439D01*
X486468Y054307D01*
X486462Y054174D01*
X48646Y05404D01*
X486462Y053912D01*
X486467Y053784D01*
X486475Y053655D01*
X486486Y053526D01*
X486501Y053397D01*
X486519Y053267D01*
X48654Y053136D01*
X486565Y053005D01*
X486593Y052874D01*
X486624Y052742D01*
X486659Y052609D01*
X486696Y052476D01*
X486737Y052343D01*
X486782Y052209D01*
X486829Y052075D01*
X48688Y05194D01*
X486936Y051805D01*
X486998Y051671D01*
X487067Y051537D01*
X487143Y051404D01*
X487225Y051271D01*
X487313Y051138D01*
X487408Y051006D01*
X48751Y050875D01*
X487618Y050744D01*
X487733Y050613D01*
X487855Y050483D01*
X487983Y050354D01*
X488117Y050225D01*
X488258Y050096D01*
X488406Y049968D01*
X48856Y04984D01*
X50026Y04072D01*
G37*
%LPC*%
G36*
X14794Y04354D02*
X148024Y04354D01*
X148109Y04354D01*
X148197Y043541D01*
X148287Y043542D01*
X148379Y043543D01*
X148473Y043544D01*
X148569Y043546D01*
X148668Y043548D01*
X148768Y043549D01*
X14887Y043552D01*
X148975Y043554D01*
X149082Y043557D01*
X149191Y04356D01*
X149302Y043563D01*
X149415Y043566D01*
X14953Y04357D01*
X149647Y043574D01*
X149767Y043578D01*
X149888Y043583D01*
X150012Y043589D01*
X150138Y043595D01*
X150265Y043601D01*
X150395Y043608D01*
X150528Y043615D01*
X150662Y043623D01*
X150798Y043631D01*
X150936Y04364D01*
X151077Y043649D01*
X151219Y043658D01*
X151364Y043668D01*
X151511Y043679D01*
X15166Y04369D01*
X15181Y043703D01*
X151958Y043718D01*
X152106Y043736D01*
X152253Y043758D01*
X152398Y043781D01*
X152543Y043808D01*
X152687Y043838D01*
X15283Y04387D01*
X152972Y043905D01*
X153113Y043943D01*
X153253Y043984D01*
X153393Y044028D01*
X153531Y044074D01*
X153668Y044123D01*
X153805Y044175D01*
X15394Y04423D01*
X154074Y044288D01*
X154207Y04435D01*
X154339Y044416D01*
X154469Y044485D01*
X154597Y044558D01*
X154725Y044635D01*
X154851Y044716D01*
X154975Y0448D01*
X155098Y044888D01*
X15522Y04498D01*
X15534Y045076D01*
X155459Y045175D01*
X155576Y045278D01*
X155692Y045385D01*
X155807Y045496D01*
X15592Y04561D01*
X156031Y045729D01*
X15614Y045855D01*
X156247Y045987D01*
X156351Y046126D01*
X156453Y04627D01*
X156553Y046421D01*
X15665Y046579D01*
X156745Y046743D01*
X156838Y046913D01*
X156928Y047089D01*
X157016Y047272D01*
X157101Y047461D01*
X157184Y047656D01*
X157265Y047858D01*
X157344Y048066D01*
X15742Y04828D01*
X157471Y048424D01*
X157518Y048571D01*
X157563Y04872D01*
X157604Y048873D01*
X157641Y049028D01*
X157676Y049186D01*
X157707Y049346D01*
X157735Y04951D01*
X15776Y049676D01*
X157781Y049846D01*
X157799Y050018D01*
X157814Y050193D01*
X157825Y05037D01*
X157833Y050551D01*
X157838Y050734D01*
X15784Y05092D01*
X15784Y050964D01*
X157839Y051006D01*
X157838Y051047D01*
X157836Y051085D01*
X157834Y051122D01*
X157832Y051156D01*
X157829Y051189D01*
X157825Y05122D01*
X157821Y051249D01*
X157817Y051276D01*
X157812Y051302D01*
X157806Y051325D01*
X1578Y051347D01*
X157794Y051366D01*
X157787Y051384D01*
X15778Y0514D01*
X157765Y051777D01*
X157736Y052144D01*
X157692Y052501D01*
X157634Y052848D01*
X157561Y053184D01*
X157473Y053509D01*
X157371Y053825D01*
X157255Y05413D01*
X157124Y054425D01*
X156978Y054709D01*
X156818Y054984D01*
X156644Y055248D01*
X156455Y055501D01*
X156251Y055744D01*
X156033Y055977D01*
X1558Y0562D01*
X155555Y056411D01*
X155298Y056611D01*
X155031Y056798D01*
X154754Y056973D01*
X154465Y057135D01*
X154166Y057286D01*
X153856Y057424D01*
X153535Y05755D01*
X153203Y057664D01*
X152861Y057766D01*
X152508Y057855D01*
X152144Y057933D01*
X151769Y057998D01*
X151383Y058051D01*
X150987Y058091D01*
X15058Y05812D01*
X15043Y058127D01*
X150281Y058134D01*
X150132Y05814D01*
X149984Y058146D01*
X149836Y058152D01*
X149688Y058157D01*
X149541Y058161D01*
X149395Y058165D01*
X149249Y058169D01*
X149103Y058172D01*
X148958Y058174D01*
X148814Y058176D01*
X14867Y058178D01*
X148526Y058179D01*
X148383Y05818D01*
X14824Y05818D01*
X1444D01*
Y04354D01*
X14794D01*
G37*
G36*
X18934Y02776D02*
X189557Y027762D01*
X189772Y027767D01*
X189985Y027776D01*
X190197Y027788D01*
X190407Y027804D01*
X190615Y027823D01*
X190822Y027846D01*
X191028Y027873D01*
X191231Y027902D01*
X191433Y027936D01*
X191633Y027973D01*
X191832Y028013D01*
X192029Y028057D01*
X192224Y028105D01*
X192418Y028156D01*
X19261Y02821D01*
X1928Y028268D01*
X192986Y02833D01*
X193169Y028396D01*
X193349Y028465D01*
X193525Y028538D01*
X193698Y028615D01*
X193868Y028696D01*
X194035Y02878D01*
X194198Y028868D01*
X194358Y02896D01*
X194515Y029056D01*
X194669Y029155D01*
X194819Y029258D01*
X194966Y029365D01*
X19511Y029476D01*
X19525Y02959D01*
X195387Y029708D01*
X19552Y02983D01*
X19565Y029956D01*
X195777Y030085D01*
X1959Y030218D01*
X196019Y030355D01*
X196135Y030496D01*
X196248Y03064D01*
X196356Y030788D01*
X196462Y03094D01*
X196564Y031096D01*
X196662Y031255D01*
X196757Y031418D01*
X196848Y031585D01*
X196936Y031756D01*
X19702Y03193D01*
X1971Y032108D01*
X197175Y03229D01*
X197244Y032477D01*
X197309Y032667D01*
X197368Y032861D01*
X197422Y033059D01*
X197471Y033261D01*
X197515Y033468D01*
X197554Y033678D01*
X197587Y033892D01*
X197616Y03411D01*
X197639Y034332D01*
X197657Y034558D01*
X19767Y034788D01*
X197677Y035022D01*
X19768Y03526D01*
X197675Y035586D01*
X197661Y035904D01*
X197637Y036214D01*
X197603Y036516D01*
X19756Y03681D01*
X197507Y037097D01*
X197445Y037375D01*
X197373Y037645D01*
X197291Y037907D01*
X1972Y038162D01*
X197099Y038408D01*
X196988Y038646D01*
X196868Y038877D01*
X196738Y039099D01*
X196599Y039314D01*
X19645Y03952D01*
X196293Y03972D01*
X196131Y039913D01*
X195963Y040101D01*
X19579Y040283D01*
X195611Y040459D01*
X195426Y04063D01*
X195236Y040794D01*
X19504Y040953D01*
X194838Y041105D01*
X194631Y041252D01*
X194418Y041393D01*
X1942Y041528D01*
X193976Y041657D01*
X193746Y041781D01*
X193511Y041898D01*
X19327Y04201D01*
X193024Y042117D01*
X192775Y042219D01*
X192522Y042316D01*
X192265Y042409D01*
X192004Y042498D01*
X19174Y042582D01*
X191472Y042662D01*
X1912Y042738D01*
X190924Y042808D01*
X190645Y042875D01*
X190362Y042937D01*
X190075Y042994D01*
X189784Y043047D01*
X18949Y043096D01*
X189192Y04314D01*
X18889Y04318D01*
X188584Y043216D01*
X188272Y04325D01*
X187954Y043282D01*
X187632Y043311D01*
X187304Y043338D01*
X18697Y043363D01*
X186632Y043385D01*
X186288Y043405D01*
X185938Y043423D01*
X185583Y043438D01*
X185223Y043451D01*
X184857Y043461D01*
X184486Y043469D01*
X184109Y043475D01*
X183727Y043479D01*
X18334Y04348D01*
Y02776D01*
X18934D01*
G37*
G36*
X18754Y04522D02*
X187764Y045252D01*
X187986Y045287D01*
X188206Y045326D01*
X188423Y045368D01*
X188639Y045414D01*
X188852Y045463D01*
X189063Y045516D01*
X189273Y045573D01*
X18948Y045632D01*
X189685Y045696D01*
X189887Y045763D01*
X190088Y045833D01*
X190287Y045907D01*
X190483Y045985D01*
X190678Y046066D01*
X19087Y04615D01*
X191059Y046239D01*
X191244Y046332D01*
X191425Y046431D01*
X191601Y046534D01*
X191774Y046643D01*
X191942Y046756D01*
X192105Y046874D01*
X192265Y046998D01*
X19242Y047126D01*
X192572Y047259D01*
X192719Y047397D01*
X192861Y047539D01*
X193Y047687D01*
X193134Y04784D01*
X193264Y047997D01*
X19339Y04816D01*
X19351Y048329D01*
X193622Y048504D01*
X193726Y048687D01*
X193823Y048876D01*
X193912Y049073D01*
X193993Y049277D01*
X194067Y049487D01*
X194133Y049705D01*
X194191Y04993D01*
X194241Y050162D01*
X194283Y0504D01*
X194318Y050646D01*
X194345Y050899D01*
X194365Y051159D01*
X194376Y051426D01*
X19438Y0517D01*
X194372Y05212D01*
X194349Y052526D01*
X19431Y052917D01*
X194256Y053294D01*
X194187Y053656D01*
X194102Y054003D01*
X194001Y054336D01*
X193885Y054655D01*
X193754Y054959D01*
X193607Y055248D01*
X193444Y055523D01*
X193266Y055784D01*
X193073Y05603D01*
X192864Y056261D01*
X19264Y056478D01*
X1924Y05668D01*
X192146Y056869D01*
X19188Y057046D01*
X191601Y05721D01*
X191309Y057363D01*
X191004Y057503D01*
X190687Y057631D01*
X190357Y057746D01*
X190015Y05785D01*
X18966Y057941D01*
X189292Y058021D01*
X188912Y058088D01*
X188519Y058143D01*
X188113Y058185D01*
X187695Y058216D01*
X187264Y058234D01*
X18682Y05824D01*
X18334D01*
Y04504D01*
X183638Y045041D01*
X183931Y045043D01*
X184219Y045046D01*
X184503Y045051D01*
X184781Y045058D01*
X185056Y045065D01*
X185325Y045074D01*
X18559Y045085D01*
X18585Y045097D01*
X186106Y04511D01*
X186356Y045125D01*
X186603Y045141D01*
X186844Y045159D01*
X187081Y045178D01*
X187313Y045198D01*
X18754Y04522D01*
G37*
G36*
X25138Y04354D02*
X251464Y04354D01*
X251549Y04354D01*
X251637Y043541D01*
X251727Y043542D01*
X251819Y043543D01*
X251913Y043544D01*
X252009Y043546D01*
X252108Y043548D01*
X252208Y043549D01*
X25231Y043552D01*
X252415Y043554D01*
X252522Y043557D01*
X252631Y04356D01*
X252742Y043563D01*
X252855Y043566D01*
X25297Y04357D01*
X253087Y043574D01*
X253207Y043578D01*
X253328Y043583D01*
X253452Y043589D01*
X253578Y043595D01*
X253705Y043601D01*
X253835Y043608D01*
X253968Y043615D01*
X254102Y043623D01*
X254238Y043631D01*
X254376Y04364D01*
X254517Y043649D01*
X254659Y043658D01*
X254804Y043668D01*
X254951Y043679D01*
X2551Y04369D01*
X25525Y043703D01*
X255398Y043718D01*
X255546Y043736D01*
X255693Y043758D01*
X255838Y043781D01*
X255983Y043808D01*
X256127Y043838D01*
X25627Y04387D01*
X256412Y043905D01*
X256553Y043943D01*
X256693Y043984D01*
X256833Y044028D01*
X256971Y044074D01*
X257108Y044123D01*
X257245Y044175D01*
X25738Y04423D01*
X257514Y044288D01*
X257647Y04435D01*
X257779Y044416D01*
X257909Y044485D01*
X258037Y044558D01*
X258165Y044635D01*
X258291Y044716D01*
X258415Y0448D01*
X258538Y044888D01*
X25866Y04498D01*
X25878Y045076D01*
X258899Y045175D01*
X259016Y045278D01*
X259132Y045385D01*
X259247Y045496D01*
X25936Y04561D01*
X259471Y045729D01*
X25958Y045855D01*
X259687Y045987D01*
X259791Y046126D01*
X259893Y04627D01*
X259993Y046421D01*
X26009Y046579D01*
X260185Y046743D01*
X260278Y046913D01*
X260368Y047089D01*
X260456Y047272D01*
X260541Y047461D01*
X260624Y047656D01*
X260705Y047858D01*
X260784Y048066D01*
X26086Y04828D01*
X260911Y048424D01*
X260958Y048571D01*
X261003Y04872D01*
X261044Y048873D01*
X261081Y049028D01*
X261116Y049186D01*
X261147Y049346D01*
X261175Y04951D01*
X2612Y049676D01*
X261221Y049846D01*
X261239Y050018D01*
X261254Y050193D01*
X261265Y05037D01*
X261273Y050551D01*
X261278Y050734D01*
X26128Y05092D01*
X26128Y050964D01*
X261279Y051006D01*
X261278Y051047D01*
X261276Y051085D01*
X261274Y051122D01*
X261272Y051156D01*
X261269Y051189D01*
X261265Y05122D01*
X261261Y051249D01*
X261257Y051276D01*
X261252Y051302D01*
X261246Y051325D01*
X26124Y051347D01*
X261234Y051366D01*
X261227Y051384D01*
X26122Y0514D01*
X261205Y051777D01*
X261176Y052144D01*
X261132Y052501D01*
X261074Y052848D01*
X261001Y053184D01*
X260913Y053509D01*
X260811Y053825D01*
X260695Y05413D01*
X260564Y054425D01*
X260418Y054709D01*
X260258Y054984D01*
X260084Y055248D01*
X259895Y055501D01*
X259691Y055744D01*
X259473Y055977D01*
X25924Y0562D01*
X258995Y056411D01*
X258738Y056611D01*
X258471Y056798D01*
X258194Y056973D01*
X257905Y057135D01*
X257606Y057286D01*
X257296Y057424D01*
X256975Y05755D01*
X256643Y057664D01*
X256301Y057766D01*
X255948Y057855D01*
X255584Y057933D01*
X255209Y057998D01*
X254823Y058051D01*
X254427Y058091D01*
X25402Y05812D01*
X25387Y058127D01*
X253721Y058134D01*
X253572Y05814D01*
X253424Y058146D01*
X253276Y058152D01*
X253128Y058157D01*
X252981Y058161D01*
X252835Y058165D01*
X252689Y058169D01*
X252543Y058172D01*
X252398Y058174D01*
X252254Y058176D01*
X25211Y058178D01*
X251966Y058179D01*
X251823Y05818D01*
X25168Y05818D01*
X24784D01*
Y04354D01*
X25138D01*
G37*
G36*
X37882Y02692D02*
X379208Y026925D01*
X379593Y026938D01*
X379975Y026961D01*
X380354Y026993D01*
X380729Y027034D01*
X381101Y027085D01*
X38147Y027144D01*
X381835Y027213D01*
X382197Y02729D01*
X382556Y027377D01*
X382911Y027473D01*
X383264Y027578D01*
X383613Y027692D01*
X383958Y027816D01*
X384301Y027948D01*
X38464Y02809D01*
X384975Y02824D01*
X385304Y028397D01*
X385628Y028561D01*
X385947Y028733D01*
X38626Y028912D01*
X386568Y029098D01*
X38687Y029292D01*
X387168Y029493D01*
X387459Y029701D01*
X387745Y029916D01*
X388026Y030138D01*
X388302Y030368D01*
X388572Y030605D01*
X388837Y03085D01*
X389096Y031101D01*
X38935Y03136D01*
X389598Y031626D01*
X389839Y031899D01*
X390073Y032178D01*
X390301Y032464D01*
X390521Y032757D01*
X390735Y033057D01*
X390942Y033364D01*
X391143Y033678D01*
X391336Y033998D01*
X391523Y034325D01*
X391703Y034659D01*
X391876Y034999D01*
X392042Y035347D01*
X392201Y035701D01*
X392354Y036062D01*
X3925Y03643D01*
X392638Y036804D01*
X392767Y037182D01*
X392887Y037566D01*
X392999Y037954D01*
X393101Y038348D01*
X393195Y038746D01*
X393279Y039149D01*
X393355Y039558D01*
X393422Y039971D01*
X39348Y040389D01*
X393529Y040812D01*
X393569Y041239D01*
X3936Y041672D01*
X393622Y04211D01*
X393636Y042552D01*
X39364Y043D01*
X393636Y043448D01*
X393622Y04389D01*
X3936Y044328D01*
X393569Y044761D01*
X393529Y045188D01*
X39348Y045611D01*
X393422Y046029D01*
X393355Y046443D01*
X393279Y046851D01*
X393195Y047254D01*
X393101Y047652D01*
X392999Y048046D01*
X392887Y048434D01*
X392767Y048818D01*
X392638Y049196D01*
X3925Y04957D01*
X392354Y049938D01*
X392201Y050299D01*
X392042Y050653D01*
X391876Y051001D01*
X391703Y051341D01*
X391523Y051675D01*
X391336Y052002D01*
X391143Y052323D01*
X390942Y052636D01*
X390735Y052943D01*
X390521Y053243D01*
X390301Y053536D01*
X390073Y053822D01*
X389839Y054101D01*
X389598Y054374D01*
X38935Y05464D01*
X389096Y054899D01*
X388837Y05515D01*
X388572Y055395D01*
X388302Y055632D01*
X388026Y055862D01*
X387745Y056084D01*
X387459Y056299D01*
X387168Y056508D01*
X38687Y056708D01*
X386568Y056902D01*
X38626Y057088D01*
X385947Y057267D01*
X385628Y057439D01*
X385304Y057603D01*
X384975Y05776D01*
X38464Y05791D01*
X384301Y058052D01*
X383958Y058184D01*
X383613Y058308D01*
X383264Y058422D01*
X382911Y058527D01*
X382556Y058623D01*
X382197Y05871D01*
X381835Y058788D01*
X38147Y058856D01*
X381101Y058915D01*
X380729Y058966D01*
X380354Y059007D01*
X379975Y059039D01*
X379593Y059062D01*
X379208Y059075D01*
X37882Y05908D01*
X378432Y059075D01*
X378046Y059062D01*
X377664Y059039D01*
X377284Y059007D01*
X376908Y058966D01*
X376535Y058915D01*
X376165Y058856D01*
X375798Y058788D01*
X375433Y05871D01*
X375072Y058623D01*
X374714Y058527D01*
X374359Y058422D01*
X374007Y058308D01*
X373659Y058184D01*
X373313Y058052D01*
X37297Y05791D01*
X372632Y05776D01*
X372299Y057603D01*
X371972Y057439D01*
X37165Y057267D01*
X371334Y057088D01*
X371024Y056902D01*
X370719Y056708D01*
X37042Y056508D01*
X370127Y056299D01*
X369839Y056084D01*
X369557Y055862D01*
X36928Y055632D01*
X369009Y055395D01*
X368744Y05515D01*
X368484Y054899D01*
X36823Y05464D01*
X367982Y054374D01*
X367741Y054101D01*
X367507Y053822D01*
X367279Y053536D01*
X367059Y053243D01*
X366845Y052943D01*
X366638Y052636D01*
X366438Y052323D01*
X366244Y052002D01*
X366057Y051675D01*
X365877Y051341D01*
X365704Y051001D01*
X365538Y050653D01*
X365379Y050299D01*
X365226Y049938D01*
X36508Y04957D01*
X364942Y049196D01*
X364813Y048818D01*
X364693Y048434D01*
X364581Y048046D01*
X364479Y047652D01*
X364385Y047254D01*
X364301Y046851D01*
X364225Y046443D01*
X364158Y046029D01*
X3641Y045611D01*
X364051Y045188D01*
X364011Y044761D01*
X36398Y044328D01*
X363958Y04389D01*
X363944Y043448D01*
X36394Y043D01*
X363944Y042552D01*
X363958Y04211D01*
X36398Y041672D01*
X364011Y041239D01*
X364051Y040812D01*
X3641Y040389D01*
X364158Y039971D01*
X364225Y039558D01*
X364301Y039149D01*
X364385Y038746D01*
X364479Y038348D01*
X364581Y037954D01*
X364693Y037566D01*
X364813Y037182D01*
X364942Y036804D01*
X36508Y03643D01*
X365226Y036062D01*
X365379Y035701D01*
X365538Y035347D01*
X365704Y034999D01*
X365877Y034659D01*
X366057Y034325D01*
X366244Y033998D01*
X366438Y033678D01*
X366638Y033364D01*
X366845Y033057D01*
X367059Y032757D01*
X367279Y032464D01*
X367507Y032178D01*
X367741Y031899D01*
X367982Y031626D01*
X36823Y03136D01*
X368484Y031101D01*
X368744Y03085D01*
X369009Y030605D01*
X36928Y030368D01*
X369557Y030138D01*
X369839Y029916D01*
X370127Y029701D01*
X37042Y029493D01*
X370719Y029292D01*
X371024Y029098D01*
X371334Y028912D01*
X37165Y028733D01*
X371972Y028561D01*
X372299Y028397D01*
X372632Y02824D01*
X37297Y02809D01*
X373313Y027948D01*
X373659Y027816D01*
X374007Y027692D01*
X374359Y027578D01*
X374714Y027473D01*
X375072Y027377D01*
X375433Y02729D01*
X375798Y027213D01*
X376165Y027144D01*
X376535Y027085D01*
X376908Y027034D01*
X377284Y026993D01*
X377664Y026961D01*
X378046Y026938D01*
X378432Y026925D01*
X37882Y02692D01*
G37*
G36*
X42358D02*
X423968Y026925D01*
X424353Y026938D01*
X424735Y026961D01*
X425114Y026993D01*
X425489Y027034D01*
X425861Y027085D01*
X42623Y027144D01*
X426595Y027213D01*
X426957Y02729D01*
X427316Y027377D01*
X427671Y027473D01*
X428024Y027578D01*
X428373Y027692D01*
X428718Y027816D01*
X429061Y027948D01*
X4294Y02809D01*
X429735Y02824D01*
X430064Y028397D01*
X430388Y028561D01*
X430707Y028733D01*
X43102Y028912D01*
X431328Y029098D01*
X43163Y029292D01*
X431928Y029493D01*
X432219Y029701D01*
X432505Y029916D01*
X432786Y030138D01*
X433062Y030368D01*
X433332Y030605D01*
X433597Y03085D01*
X433856Y031101D01*
X43411Y03136D01*
X434358Y031626D01*
X434599Y031899D01*
X434833Y032178D01*
X435061Y032464D01*
X435281Y032757D01*
X435495Y033057D01*
X435702Y033364D01*
X435903Y033678D01*
X436096Y033998D01*
X436283Y034325D01*
X436463Y034659D01*
X436636Y034999D01*
X436802Y035347D01*
X436961Y035701D01*
X437114Y036062D01*
X43726Y03643D01*
X437398Y036804D01*
X437527Y037182D01*
X437647Y037566D01*
X437759Y037954D01*
X437861Y038348D01*
X437955Y038746D01*
X438039Y039149D01*
X438115Y039558D01*
X438182Y039971D01*
X43824Y040389D01*
X438289Y040812D01*
X438329Y041239D01*
X43836Y041672D01*
X438382Y04211D01*
X438396Y042552D01*
X4384Y043D01*
X438396Y043448D01*
X438382Y04389D01*
X43836Y044328D01*
X438329Y044761D01*
X438289Y045188D01*
X43824Y045611D01*
X438182Y046029D01*
X438115Y046443D01*
X438039Y046851D01*
X437955Y047254D01*
X437861Y047652D01*
X437759Y048046D01*
X437647Y048434D01*
X437527Y048818D01*
X437398Y049196D01*
X43726Y04957D01*
X437114Y049938D01*
X436961Y050299D01*
X436802Y050653D01*
X436636Y051001D01*
X436463Y051341D01*
X436283Y051675D01*
X436096Y052002D01*
X435903Y052323D01*
X435702Y052636D01*
X435495Y052943D01*
X435281Y053243D01*
X435061Y053536D01*
X434833Y053822D01*
X434599Y054101D01*
X434358Y054374D01*
X43411Y05464D01*
X433856Y054899D01*
X433597Y05515D01*
X433332Y055395D01*
X433062Y055632D01*
X432786Y055862D01*
X432505Y056084D01*
X432219Y056299D01*
X431928Y056508D01*
X43163Y056708D01*
X431328Y056902D01*
X43102Y057088D01*
X430707Y057267D01*
X430388Y057439D01*
X430064Y057603D01*
X429735Y05776D01*
X4294Y05791D01*
X429061Y058052D01*
X428718Y058184D01*
X428373Y058308D01*
X428024Y058422D01*
X427671Y058527D01*
X427316Y058623D01*
X426957Y05871D01*
X426595Y058788D01*
X42623Y058856D01*
X425861Y058915D01*
X425489Y058966D01*
X425114Y059007D01*
X424735Y059039D01*
X424353Y059062D01*
X423968Y059075D01*
X42358Y05908D01*
X423192Y059075D01*
X422806Y059062D01*
X422424Y059039D01*
X422044Y059007D01*
X421668Y058966D01*
X421295Y058915D01*
X420925Y058856D01*
X420558Y058788D01*
X420193Y05871D01*
X419832Y058623D01*
X419474Y058527D01*
X419119Y058422D01*
X418767Y058308D01*
X418419Y058184D01*
X418073Y058052D01*
X41773Y05791D01*
X417392Y05776D01*
X417059Y057603D01*
X416732Y057439D01*
X41641Y057267D01*
X416094Y057088D01*
X415784Y056902D01*
X415479Y056708D01*
X41518Y056508D01*
X414887Y056299D01*
X414599Y056084D01*
X414317Y055862D01*
X41404Y055632D01*
X413769Y055395D01*
X413504Y05515D01*
X413244Y054899D01*
X41299Y05464D01*
X412742Y054374D01*
X412501Y054101D01*
X412267Y053822D01*
X412039Y053536D01*
X411819Y053243D01*
X411605Y052943D01*
X411398Y052636D01*
X411198Y052323D01*
X411004Y052002D01*
X410817Y051675D01*
X410637Y051341D01*
X410464Y051001D01*
X410298Y050653D01*
X410139Y050299D01*
X409986Y049938D01*
X40984Y04957D01*
X409702Y049196D01*
X409573Y048818D01*
X409453Y048434D01*
X409341Y048046D01*
X409239Y047652D01*
X409145Y047254D01*
X409061Y046851D01*
X408985Y046443D01*
X408918Y046029D01*
X40886Y045611D01*
X408811Y045188D01*
X408771Y044761D01*
X40874Y044328D01*
X408718Y04389D01*
X408704Y043448D01*
X4087Y043D01*
X408704Y042552D01*
X408718Y04211D01*
X40874Y041672D01*
X408771Y041239D01*
X408811Y040812D01*
X40886Y040389D01*
X408918Y039971D01*
X408985Y039558D01*
X409061Y039149D01*
X409145Y038746D01*
X409239Y038348D01*
X409341Y037954D01*
X409453Y037566D01*
X409573Y037182D01*
X409702Y036804D01*
X40984Y03643D01*
X409986Y036062D01*
X410139Y035701D01*
X410298Y035347D01*
X410464Y034999D01*
X410637Y034659D01*
X410817Y034325D01*
X411004Y033998D01*
X411198Y033678D01*
X411398Y033364D01*
X411605Y033057D01*
X411819Y032757D01*
X412039Y032464D01*
X412267Y032178D01*
X412501Y031899D01*
X412742Y031626D01*
X41299Y03136D01*
X413244Y031101D01*
X413504Y03085D01*
X413769Y030605D01*
X41404Y030368D01*
X414317Y030138D01*
X414599Y029916D01*
X414887Y029701D01*
X41518Y029493D01*
X415479Y029292D01*
X415784Y029098D01*
X416094Y028912D01*
X41641Y028733D01*
X416732Y028561D01*
X417059Y028397D01*
X417392Y02824D01*
X41773Y02809D01*
X418073Y027948D01*
X418419Y027816D01*
X418767Y027692D01*
X419119Y027578D01*
X419474Y027473D01*
X419832Y027377D01*
X420193Y02729D01*
X420558Y027213D01*
X420925Y027144D01*
X421295Y027085D01*
X421668Y027034D01*
X422044Y026993D01*
X422424Y026961D01*
X422806Y026938D01*
X423192Y026925D01*
X42358Y02692D01*
G37*
M02*
