%FSLAX24Y24*%
%MOIN*%
%LPD*%
G36*
X2673Y1740D02*
G74*
G03*
X2624Y1732J152D01*
X2597Y1714I21J60D01*
X2584Y1691I47J41D01*
X2579Y1657I107J34D01*
G01*
Y1270D01*
G02*
X2533Y1216I517J388D01*
X2474Y1158I658J616D01*
X2408Y1107I413J465D01*
X2326Y1059I454J675D01*
X2239Y1020I373J726D01*
X2133Y987I387J1035D01*
X2025Y966I201J762D01*
X1894Y958I131J1110D01*
X1708Y975J1044D01*
X1548Y1021I148J821D01*
X1416Y1087I317J795D01*
X1306Y1170I394J640D01*
X1292Y1183I504J557D01*
X1278Y1196I519J545D01*
X1269Y1205I526J526D01*
X1259Y1215I535J516D01*
X1173Y1329I545J506D01*
X1104Y1466I728J452D01*
X1058Y1628I779J308D01*
X1041Y1818I1071J190D01*
X1058Y2009I1088D01*
X1104Y2170I825J147D01*
X1171Y2304I807J319D01*
X1255Y2417I648J397D01*
X1267Y2430I563J509D01*
X1278Y2442I553J523D01*
X1303Y2465I533J527D01*
X1328Y2488I504J546D01*
X1429Y2559I479J569D01*
X1546Y2617I421J713D01*
X1705Y2662I305J774D01*
X1891Y2678I186J1044D01*
X2083Y2664J1325D01*
X2223Y2630I109J746D01*
X2358Y2574I458J1307D01*
X2470Y2513I456J962D01*
G01*
X2520Y2156D01*
X2465D01*
G03*
X2405Y2305I630J171D01*
X2321Y2414I420J235D01*
X2293Y2439I335J344D01*
X2263Y2462I315J377D01*
X2263Y2462I296J416D01*
X2262Y2463I295J416D01*
X2106Y2538I296J419D01*
X1894Y2567I212J748D01*
X1761Y2554J680D01*
X1645Y2517I111J560D01*
X1639Y2515I227J523D01*
X1634Y2513I233J521D01*
X1572Y2480I254J553D01*
X1516Y2441I299J492D01*
X1472Y2403I355J454D01*
X1432Y2360I415J433D01*
X1360Y2256I473J404D01*
X1302Y2124I696J383D01*
X1268Y1984I790J263D01*
X1256Y1816I1125J168D01*
X1269Y1650I1081D01*
X1303Y1511I796J123D01*
X1362Y1381I750J259D01*
X1435Y1276I553J311D01*
X1475Y1234I481J417D01*
X1517Y1197I427J444D01*
X1575Y1156I385J481D01*
X1639Y1121I344J550D01*
X1658Y1112I255J530D01*
X1679Y1104I233J537D01*
X1782Y1074I213J545D01*
X1896Y1062I125J655D01*
X1967Y1066I14J814D01*
X2036Y1077I82J785D01*
X2104Y1093I151J775D01*
X2170Y1115I225J782D01*
X2296Y1176I304J792D01*
X2397Y1249I337J573D01*
G01*
Y1655D01*
G03*
X2392Y1688I111D01*
X2380Y1710I60J19D01*
X2352Y1729I49J42D01*
X2300Y1738I52J150D01*
G01*
X2265D01*
Y1792D01*
X2706D01*
Y1738D01*
X2673Y1740D01*
G37*
G36*
X3869Y972D02*
X2902D01*
Y1034D01*
X2954D01*
G03*
X2984Y1037J129D01*
X3008Y1047I23J97D01*
X3021Y1054I47J87D01*
X3032Y1065I65J87D01*
X3044Y1079I84J84D01*
X3054Y1094I87J63D01*
X3062Y1115I96J48D01*
X3065Y1140I124J32D01*
G01*
Y2231D01*
G03*
X3064Y2251I105D01*
X3058Y2268I89J17D01*
X3049Y2286I84J34D01*
X3033Y2304I90J64D01*
X3022Y2313I77J83D01*
X3010Y2320I61J86D01*
X2984Y2330I49J94D01*
X2954Y2333I30J131D01*
G01*
X2902D01*
Y2394D01*
X3594D01*
G03*
X3627Y2396J513D01*
X3668Y2399I49J765D01*
X3708Y2405I152J1293D01*
X3747Y2411I184J1236D01*
X3786Y2419I211J1162D01*
X3818Y2426I173J798D01*
X3849Y2435I207J798D01*
X3869Y2442I90J296D01*
G01*
Y2132D01*
X3805D01*
Y2187D01*
G03*
X3803Y2208I109D01*
X3797Y2227I90J18D01*
X3789Y2241I84J37D01*
X3778Y2255I86J58D01*
X3767Y2264I74J71D01*
X3757Y2272I59J74D01*
X3735Y2281I48J82D01*
X3708Y2286I33J116D01*
G01*
X3252D01*
Y1743D01*
X3625D01*
G03*
X3656Y1749I7J107D01*
X3677Y1762I22J58D01*
X3679Y1765I42J45D01*
X3682Y1767I45J43D01*
X3689Y1777I64J54D01*
X3694Y1787I65J41D01*
X3699Y1803I70J31D01*
X3701Y1820I90J18D01*
G01*
Y1870D01*
X3765D01*
Y1509D01*
X3701D01*
Y1558D01*
G03*
X3698Y1580I94D01*
X3692Y1598I71J17D01*
X3688Y1604I65J34D01*
X3683Y1610I63J43D01*
X3682Y1612I49J40D01*
X3681Y1613I47J42D01*
X3661Y1627I47J43D01*
X3630Y1636I45J98D01*
G01*
X3254D01*
Y1093D01*
X3592D01*
G03*
X3669Y1101I17J568D01*
X3726Y1115I54J320D01*
X3779Y1140I124J344D01*
X3821Y1169I138J248D01*
X3858Y1204I196J238D01*
X3891Y1249I267J232D01*
X3919Y1297I616J385D01*
X3944Y1350I728J381D01*
G01*
X4010D01*
X3869Y972D01*
G37*
G36*
X4752Y2399D02*
G02*
X4964Y2365I17J787D01*
X5106Y2292I128J422D01*
X5154Y2247I224J288D01*
X5190Y2198I235J211D01*
X5225Y2114I272J163D01*
X5239Y2007I420J107D01*
X5234Y1949I408D01*
X5222Y1895I370J53D01*
X5219Y1884I358J107D01*
X5215Y1872I356J119D01*
X5201Y1840I372J138D01*
X5185Y1810I348J165D01*
X5168Y1783I332J195D01*
X5148Y1757I323J229D01*
X5136Y1743I325J273D01*
X5123Y1730I311J285D01*
X5086Y1697I298J298D01*
X5045Y1668I276J349D01*
X5041Y1666I218J352D01*
X5037Y1663I214J355D01*
X4979Y1635I210J357D01*
X4915Y1615I167J423D01*
X4949Y1585I276J345D01*
X4988Y1543I502J510D01*
X5025Y1498I965J835D01*
X5054Y1459I725J572D01*
G01*
Y1461D01*
G03*
X5086Y1417I1478J1011D01*
X5118Y1374I1420J1036D01*
X5147Y1337I1367J1025D01*
X5182Y1294I1837J1459D01*
X5218Y1251I3061J2551D01*
X5253Y1211I2833J2428D01*
X5286Y1174I1224J1071D01*
X5317Y1143I890J829D01*
X5348Y1113I338J338D01*
X5380Y1089I259J311D01*
X5390Y1083I148J217D01*
X5400Y1077I137J222D01*
X5425Y1065I127J228D01*
X5452Y1055I106J251D01*
X5492Y1047I72J239D01*
X5541Y1043I49J368D01*
G01*
Y982D01*
X5451D01*
G02*
X5353Y988J839D01*
X5281Y1002I54J458D01*
X5212Y1026I172J608D01*
X5158Y1053I162J392D01*
X5109Y1087I236J400D01*
X5072Y1120I197J252D01*
X5038Y1157I1812J1695D01*
X5009Y1190I1393J1252D01*
X4999Y1202I75J75D01*
X4962Y1255I1264J919D01*
G03*
X4926Y1307I2131J1421D01*
X4887Y1362I2344J1648D01*
G01*
X4783Y1509D01*
G03*
X4781Y1511I496J388D01*
X4779Y1514I493J390D01*
X4735Y1563I491J393D01*
X4686Y1608I468J461D01*
X4626Y1638I96J116D01*
X4504Y1653I122J495D01*
G01*
Y1152D01*
G03*
X4507Y1133I118J7D01*
X4512Y1115I103J23D01*
X4522Y1097I97J40D01*
X4537Y1079I102J69D01*
X4549Y1069I77J77D01*
X4561Y1061I59J79D01*
X4585Y1051I47J88D01*
X4615Y1048I29J125D01*
G01*
X4667D01*
Y987D01*
X4157D01*
Y1048D01*
X4209D01*
G03*
X4240Y1052J133D01*
X4265Y1062I24J98D01*
X4276Y1069I49J88D01*
X4287Y1078I64J86D01*
X4300Y1093I81J84D01*
X4310Y1110I82J59D01*
X4317Y1129I92J42D01*
X4320Y1150I113J27D01*
G01*
Y2239D01*
G03*
X4316Y2261I115J6D01*
X4309Y2280I93J24D01*
X4300Y2295I86J43D01*
X4287Y2309I88J67D01*
X4278Y2317I72J78D01*
X4269Y2323I60J82D01*
X4242Y2334I51J88D01*
X4209Y2338I33J133D01*
G01*
X4159D01*
Y2402D01*
X4752Y2399D01*
G37*
G36*
X6176Y2402D02*
G02*
X6240Y2399J810D01*
X6326Y2390I119J1505D01*
X6383Y2379I74J543D01*
X6437Y2363I125J508D01*
X6463Y2352I179J492D01*
X6489Y2340I208J487D01*
X6509Y2330I152J309D01*
X6528Y2318I169J293D01*
X6576Y2279I188J281D01*
X6619Y2229I268J276D01*
X6657Y2151I196J142D01*
X6672Y2035I421J115D01*
X6668Y1984I288D01*
X6655Y1938I246J44D01*
X6638Y1903I233J90D01*
X6615Y1869I238J139D01*
X6574Y1825I342J274D01*
X6529Y1788I278J294D01*
X6503Y1771I233J331D01*
X6476Y1757I212J355D01*
X6592Y1713I140J543D01*
X6684Y1650I203J395D01*
X6700Y1635I293J332D01*
X6715Y1620I312J320D01*
X6759Y1562I275J256D01*
X6788Y1502I269J167D01*
X6802Y1448I298J107D01*
X6807Y1388I353J60D01*
X6793Y1274I451D01*
X6756Y1193I262J68D01*
X6724Y1151I345J228D01*
X6688Y1114I292J252D01*
X6659Y1091I255J289D01*
X6628Y1070I235J324D01*
X6547Y1032I263J445D01*
X6455Y1006I207J548D01*
X6360Y991I201J1003D01*
X6273Y987I87J837D01*
G01*
X5685D01*
Y1048D01*
X5732D01*
G03*
X5765Y1052J142D01*
X5792Y1062I25J107D01*
X5804Y1069I52J96D01*
X5815Y1079I68J95D01*
X5832Y1099I85J91D01*
X5844Y1120I82J57D01*
X5848Y1135I93J36D01*
X5850Y1152I108J23D01*
G01*
Y2236D01*
G03*
X5847Y2260I116J6D01*
X5838Y2281I92J25D01*
X5828Y2296I83J45D01*
X5815Y2309I84J69D01*
X5807Y2316I75J88D01*
X5798Y2321I65J91D01*
X5769Y2333I57J97D01*
X5732Y2338I37J147D01*
G01*
X5685D01*
Y2402D01*
X6176D01*
G37*
G36*
X7941Y972D02*
X6975D01*
Y1034D01*
X7027D01*
G03*
X7056Y1037J129D01*
X7081Y1047I23J97D01*
X7093Y1054I47J87D01*
X7105Y1065I65J87D01*
X7117Y1079I84J84D01*
X7126Y1094I87J63D01*
X7134Y1115I96J48D01*
X7138Y1140I124J32D01*
G01*
Y2231D01*
G03*
X7136Y2251I105D01*
X7131Y2268I89J17D01*
X7121Y2286I84J34D01*
X7106Y2304I90J64D01*
X7094Y2313I77J83D01*
X7082Y2320I61J86D01*
X7057Y2330I49J94D01*
X7027Y2333I30J131D01*
G01*
X6975D01*
Y2394D01*
X7667D01*
G03*
X7700Y2396J513D01*
X7740Y2399I49J765D01*
X7780Y2405I152J1293D01*
X7819Y2411I184J1236D01*
X7858Y2419I211J1162D01*
X7890Y2426I173J798D01*
X7922Y2435I207J798D01*
X7941Y2442I90J296D01*
G01*
Y2132D01*
X7877D01*
Y2187D01*
G03*
X7875Y2208I109D01*
X7869Y2227I90J18D01*
X7861Y2241I84J37D01*
X7850Y2255I86J58D01*
X7840Y2264I74J71D01*
X7829Y2272I59J74D01*
X7807Y2281I48J82D01*
X7780Y2286I33J116D01*
G01*
X7324D01*
Y1743D01*
X7698D01*
G03*
X7729Y1749I7J107D01*
X7749Y1762I22J58D01*
X7752Y1765I42J45D01*
X7754Y1767I45J43D01*
X7761Y1777I64J54D01*
X7766Y1787I65J41D01*
X7771Y1803I70J31D01*
X7773Y1820I90J18D01*
G01*
Y1870D01*
X7837D01*
Y1509D01*
X7773D01*
Y1558D01*
G03*
X7771Y1580I94D01*
X7764Y1598I71J17D01*
X7760Y1604I65J34D01*
X7756Y1610I63J43D01*
X7754Y1612I49J40D01*
X7753Y1613I47J42D01*
X7733Y1627I47J43D01*
X7702Y1636I45J98D01*
G01*
X7327D01*
Y1093D01*
X7665D01*
G03*
X7742Y1101I17J568D01*
X7798Y1115I54J320D01*
X7851Y1140I124J344D01*
X7894Y1169I138J248D01*
X7931Y1204I196J238D01*
X7963Y1249I267J232D01*
X7991Y1297I616J385D01*
X8017Y1350I728J381D01*
G01*
X8083D01*
X7941Y972D01*
G37*
G36*
X8824Y2399D02*
G02*
X9036Y2365I17J787D01*
X9179Y2292I128J422D01*
X9226Y2247I224J288D01*
X9262Y2198I235J211D01*
X9298Y2114I272J163D01*
X9311Y2007I420J107D01*
X9307Y1949I408D01*
X9295Y1895I370J53D01*
X9291Y1884I358J107D01*
X9287Y1872I356J119D01*
X9274Y1840I372J138D01*
X9258Y1810I348J165D01*
X9240Y1783I332J195D01*
X9220Y1757I323J229D01*
X9208Y1743I325J273D01*
X9195Y1730I311J285D01*
X9159Y1697I298J298D01*
X9117Y1668I276J349D01*
X9113Y1666I218J352D01*
X9109Y1663I214J355D01*
X9051Y1635I210J357D01*
X8987Y1615I167J423D01*
X9021Y1585I276J345D01*
X9061Y1543I502J510D01*
X9097Y1498I965J835D01*
X9127Y1459I725J572D01*
G01*
Y1461D01*
G03*
X9158Y1417I1478J1011D01*
X9191Y1374I1420J1036D01*
X9219Y1337I1367J1025D01*
X9254Y1294I1837J1459D01*
X9290Y1251I3061J2551D01*
X9325Y1211I2833J2428D01*
X9359Y1174I1224J1071D01*
X9389Y1143I890J829D01*
X9421Y1113I338J338D01*
X9453Y1089I259J311D01*
X9463Y1083I148J217D01*
X9473Y1077I137J222D01*
X9498Y1065I127J228D01*
X9525Y1055I106J251D01*
X9564Y1047I72J239D01*
X9613Y1043I49J368D01*
G01*
Y982D01*
X9524D01*
G02*
X9425Y988J839D01*
X9354Y1002I54J458D01*
X9284Y1026I172J608D01*
X9231Y1053I162J392D01*
X9181Y1087I236J400D01*
X9144Y1120I197J252D01*
X9111Y1157I1812J1695D01*
X9082Y1190I1393J1252D01*
X9071Y1202I75J75D01*
X9035Y1255I1264J919D01*
G03*
X8999Y1307I2131J1421D01*
X8959Y1362I2344J1648D01*
G01*
X8855Y1509D01*
G03*
X8853Y1511I496J388D01*
X8851Y1514I493J390D01*
X8808Y1563I491J393D01*
X8758Y1608I468J461D01*
X8699Y1638I96J116D01*
X8576Y1653I122J495D01*
G01*
Y1152D01*
G03*
X8579Y1133I118J7D01*
X8585Y1115I103J23D01*
X8595Y1097I97J40D01*
X8609Y1079I102J69D01*
X8621Y1069I77J77D01*
X8634Y1061I59J79D01*
X8658Y1051I47J88D01*
X8687Y1048I29J125D01*
G01*
X8739D01*
Y987D01*
X8229D01*
Y1048D01*
X8281D01*
G03*
X8312Y1052J133D01*
X8338Y1062I24J98D01*
X8349Y1069I49J88D01*
X8359Y1078I64J86D01*
X8373Y1093I81J84D01*
X8383Y1110I82J59D01*
X8389Y1129I92J42D01*
X8392Y1150I113J27D01*
G01*
Y2239D01*
G03*
X8389Y2261I115J6D01*
X8382Y2280I93J24D01*
X8372Y2295I86J43D01*
X8359Y2309I88J67D01*
X8350Y2317I72J78D01*
X8341Y2323I60J82D01*
X8314Y2334I51J88D01*
X8281Y2338I33J133D01*
G01*
X8231D01*
Y2402D01*
X8824Y2399D01*
G37*
G36*
X9760Y1721D02*
X10469D01*
X10483Y1669D01*
X10469Y1617D01*
X9760D01*
X9746Y1672D01*
X9760Y1721D01*
G37*
G36*
X11749Y1343D02*
X11609Y980D01*
X10643D01*
Y1041D01*
X10695D01*
G03*
X10725Y1044J129D01*
X10749Y1054I23J97D01*
X10762Y1062I47J87D01*
X10773Y1072I65J87D01*
X10785Y1086I84J84D01*
X10795Y1101I87J63D01*
X10803Y1122I96J48D01*
X10806Y1147I124J32D01*
G01*
Y2231D01*
G03*
X10804Y2247I107J6D01*
X10800Y2261I95J20D01*
X10789Y2283I92J34D01*
X10770Y2305I102J72D01*
X10753Y2317I85J95D01*
X10736Y2326I61J96D01*
X10714Y2333I44J105D01*
X10688Y2335I26J132D01*
G01*
X10641D01*
Y2399D01*
X11156D01*
Y2335D01*
X11109D01*
G03*
X11083Y2333J134D01*
X11060Y2326I22J112D01*
X11043Y2317I44J105D01*
X11027Y2305I69J107D01*
X11008Y2283I84J93D01*
X10997Y2261I80J56D01*
X10993Y2247I91J34D01*
X10991Y2231I105J21D01*
G01*
Y1093D01*
X11328D01*
G03*
X11403Y1100I17J542D01*
X11459Y1115I56J325D01*
X11513Y1140I121J335D01*
X11556Y1170I144J256D01*
X11568Y1180I220J266D01*
X11580Y1191I230J253D01*
X11605Y1219I242J242D01*
X11627Y1250I280J224D01*
X11654Y1297I496J318D01*
X11680Y1353I659J341D01*
G01*
X11749Y1343D01*
G37*
G36*
X12625Y2404D02*
G03*
X12658Y2405J513D01*
X12698Y2409I49J765D01*
X12738Y2414I152J1293D01*
X12778Y2420I184J1236D01*
X12816Y2428I235J1294D01*
X12850Y2436I203J952D01*
X12882Y2445I195J781D01*
X12902Y2451I80J270D01*
G01*
Y2142D01*
X12838D01*
Y2196D01*
G03*
X12836Y2217I109D01*
X12830Y2236I90J18D01*
X12822Y2251I84J37D01*
X12811Y2265I86J58D01*
X12801Y2274I74J71D01*
X12790Y2281I59J74D01*
X12768Y2291I48J82D01*
X12741Y2295I33J116D01*
G01*
X12346D01*
Y1150D01*
G03*
X12349Y1133I110J6D01*
X12353Y1118I98J21D01*
X12364Y1097I93J36D01*
X12382Y1076I102J71D01*
X12396Y1065I82J88D01*
X12412Y1056I61J90D01*
X12435Y1048I46J99D01*
X12462Y1046I27J130D01*
G01*
X12509D01*
Y984D01*
X11997D01*
Y1046D01*
X12044D01*
G03*
X12072Y1049J131D01*
X12096Y1057I23J102D01*
X12110Y1066I47J93D01*
X12123Y1076I66J93D01*
X12137Y1091I89J92D01*
X12147Y1108I92J69D01*
X12155Y1128I102J53D01*
X12160Y1152I128J38D01*
G01*
Y2295D01*
X11763D01*
G03*
X11735Y2290I7J118D01*
X11713Y2280I26J86D01*
X11703Y2273I48J76D01*
X11694Y2265I62J73D01*
X11685Y2252I76J70D01*
X11677Y2239I78J52D01*
X11671Y2219I85J39D01*
X11669Y2196I111J23D01*
G01*
Y2142D01*
X11602D01*
Y2451D01*
G03*
X11621Y2445I99J264D01*
X11654Y2436I228J772D01*
X11688Y2428I236J944D01*
X11726Y2420I274J1286D01*
X11765Y2414I224J1229D01*
X11806Y2409I192J1287D01*
X11846Y2405I90J761D01*
X11879Y2404I33J512D01*
G01*
X12625D01*
G37*
G36*
X13733Y2435D02*
G02*
X13896Y2420J941D01*
X14043Y2380I141J803D01*
X14162Y2324I298J790D01*
X14265Y2254I375J660D01*
X14280Y2241I478J590D01*
X14295Y2228I495J579D01*
X14334Y2191I482J534D01*
X14369Y2151I508J485D01*
X14422Y2077I543J446D01*
X14467Y1994I637J397D01*
X14513Y1855I589J271D01*
X14529Y1693I778J162D01*
X14513Y1531I795D01*
X14467Y1392I635J132D01*
X14422Y1309I682J314D01*
X14369Y1235I597J372D01*
X14334Y1195I543J446D01*
X14295Y1158I520J497D01*
X14280Y1145I510J565D01*
X14265Y1132I494J577D01*
X14162Y1061I478J590D01*
X14043Y1006I417J734D01*
X13896Y965I288J763D01*
X13733Y951I163J927D01*
X13572Y965J946D01*
X13425Y1004I142J819D01*
X13424Y1005I288J779D01*
X13422Y1006I289J779D01*
X13297Y1065I296J791D01*
X13189Y1140I375J650D01*
X13179Y1149I482J575D01*
X13169Y1158I493J567D01*
X13130Y1195I482J534D01*
X13095Y1235I508J485D01*
X13042Y1309I543J446D01*
X12997Y1392I637J397D01*
X12951Y1531I589J271D01*
X12935Y1693I778J162D01*
X12951Y1855I795D01*
X12997Y1994I635J132D01*
X13042Y2077I682J314D01*
X13095Y2151I597J372D01*
X13130Y2191I543J446D01*
X13169Y2228I520J497D01*
X13179Y2237I503J558D01*
X13189Y2246I492J566D01*
X13297Y2321I482J575D01*
X13422Y2380I422J732D01*
X13424Y2381I291J778D01*
X13425Y2381I289J779D01*
X13572Y2421I288J780D01*
X13733Y2435I161J932D01*
G37*
G36*
X15495D02*
X15658Y2420J941D01*
X15805Y2380I141J803D01*
X15924Y2324I298J790D01*
X16027Y2254I375J660D01*
X16042Y2241I478J590D01*
X16057Y2228I495J579D01*
X16096Y2191I482J534D01*
X16131Y2151I508J485D01*
X16184Y2077I543J446D01*
X16229Y1994I637J397D01*
X16275Y1855I589J271D01*
X16291Y1693I778J162D01*
X16275Y1531I795D01*
X16229Y1392I635J132D01*
X16184Y1309I682J314D01*
X16131Y1235I597J372D01*
X16096Y1195I543J446D01*
X16057Y1158I520J497D01*
X16042Y1145I510J565D01*
X16027Y1132I494J577D01*
X15924Y1061I478J590D01*
X15805Y1006I417J734D01*
X15658Y965I288J763D01*
X15495Y951I163J927D01*
X15334Y965J946D01*
X15188Y1004I142J819D01*
X15186Y1005I288J779D01*
X15185Y1006I289J779D01*
X15059Y1065I296J791D01*
X14951Y1140I375J650D01*
X14941Y1149I482J575D01*
X14931Y1158I493J567D01*
X14892Y1195I482J534D01*
X14857Y1235I508J485D01*
X14804Y1309I543J446D01*
X14759Y1392I637J397D01*
X14713Y1531I589J271D01*
X14697Y1693I778J162D01*
X14713Y1855I795D01*
X14759Y1994I635J132D01*
X14804Y2077I682J314D01*
X14857Y2151I597J372D01*
X14892Y2191I543J446D01*
X14931Y2228I520J497D01*
X14941Y2237I503J558D01*
X14951Y2246I492J566D01*
X15059Y2321I482J575D01*
X15185Y2380I422J732D01*
X15186Y2381I291J778D01*
X15188Y2381I289J779D01*
X15334Y2421I288J780D01*
X15495Y2435I161J932D01*
G37*
G36*
X17576Y1343D02*
G01*
X17437Y980D01*
X16471D01*
Y1041D01*
X16523D01*
G03*
X16552Y1044J129D01*
X16577Y1054I23J97D01*
X16589Y1062I47J87D01*
X16601Y1072I65J87D01*
X16613Y1086I84J84D01*
X16622Y1101I87J63D01*
X16630Y1122I96J48D01*
X16634Y1147I124J32D01*
G01*
Y2231D01*
G03*
X16632Y2247I107J6D01*
X16628Y2261I95J20D01*
X16616Y2283I92J34D01*
X16597Y2305I102J72D01*
X16581Y2317I85J95D01*
X16564Y2326I61J96D01*
X16541Y2333I44J105D01*
X16516Y2335I26J132D01*
G01*
X16469D01*
Y2399D01*
X16983D01*
Y2335D01*
X16936D01*
G03*
X16911Y2333J134D01*
X16888Y2326I22J112D01*
X16871Y2317I44J105D01*
X16855Y2305I69J107D01*
X16836Y2283I84J93D01*
X16824Y2261I80J56D01*
X16820Y2247I91J34D01*
X16818Y2231I105J21D01*
G01*
Y1093D01*
X17156D01*
G03*
X17231Y1100I17J542D01*
X17287Y1115I56J325D01*
X17340Y1140I121J335D01*
X17384Y1170I144J256D01*
X17396Y1180I220J266D01*
X17408Y1191I230J253D01*
X17432Y1219I242J242D01*
X17455Y1250I280J224D01*
X17482Y1297I496J318D01*
X17508Y1353I659J341D01*
G01*
X17576Y1343D01*
G37*
G36*
X18514Y1603D02*
G02*
X18531Y1587I173J208D01*
X18547Y1571I185J187D01*
X18575Y1530I201J170D01*
X18597Y1483I262J148D01*
X18617Y1408I495J176D01*
X18625Y1339I429J84D01*
X18622Y1291I363D01*
X18613Y1245I335J44D01*
X18603Y1216I325J90D01*
X18591Y1187I326J123D01*
X18572Y1152I378J183D01*
X18550Y1119I345J210D01*
X18526Y1091I323J242D01*
X18499Y1063I310J281D01*
X18497Y1062I277J302D01*
X18495Y1060I275J304D01*
X18435Y1015I274J306D01*
X18363Y980I243J399D01*
X18347Y974I160J407D01*
X18331Y968I144J410D01*
X18267Y954I128J415D01*
X18198Y949I69J471D01*
X18146Y950J814D01*
X18087Y956I68J1065D01*
X18028Y965I110J921D01*
X17972Y977I157J846D01*
X17917Y994I166J650D01*
X17867Y1014I199J572D01*
X17820Y1040I152J336D01*
X17784Y1067I137J212D01*
X17780Y1086I251J63D01*
X17777Y1108I342J59D01*
X17775Y1131I399J42D01*
X17775Y1157I532J26D01*
X17777Y1206I583D01*
X17784Y1268I912J78D01*
X17796Y1328I700J108D01*
X17813Y1383I589J144D01*
G01*
X17876D01*
G03*
X17874Y1362I1935J215D01*
X17873Y1348I856J86D01*
X17872Y1334I427J36D01*
X17872Y1324I189J9D01*
X17884Y1237I326D01*
X17914Y1171I210J59D01*
X17932Y1150I179J124D01*
X17952Y1130I172J155D01*
X17964Y1119I176J203D01*
X17977Y1110I161J210D01*
X18056Y1074I149J220D01*
X18160Y1060I104J378D01*
G01*
X18176D01*
G03*
X18305Y1082I17J487D01*
X18388Y1126I76J243D01*
X18416Y1153I136J170D01*
X18437Y1182I143J125D01*
X18457Y1232I164J96D01*
X18465Y1294I249J62D01*
X18462Y1331I239D01*
X18453Y1366I213J34D01*
X18450Y1374I204J68D01*
X18447Y1382I202J77D01*
X18424Y1420I156J67D01*
X18387Y1459I203J159D01*
G01*
X18389D01*
X17928Y1813D01*
G02*
X17869Y1879I238J276D01*
X17836Y1943I201J143D01*
X17817Y2015I537J179D01*
X17810Y2078I405J78D01*
X17812Y2116I340D01*
X17819Y2153I321J36D01*
X17828Y2185I315J73D01*
X17841Y2217I319J110D01*
X17861Y2254I319J148D01*
X17884Y2287I282J174D01*
X17904Y2310I259J207D01*
X17926Y2331I247J238D01*
X17984Y2372I259J297D01*
X18054Y2406I239J404D01*
X18128Y2427I146J377D01*
X18212Y2435I84J467D01*
X18290Y2433J1761D01*
X18345Y2429I40J902D01*
X18401Y2421I111J1043D01*
X18441Y2413I91J565D01*
G01*
X18533D01*
X18540Y2125D01*
X18474D01*
G03*
X18465Y2193I252D01*
X18441Y2244I161J45D01*
X18429Y2259I136J95D01*
X18415Y2273I131J116D01*
X18349Y2309I112J124D01*
X18231Y2326I119J412D01*
X18177Y2322J359D01*
X18129Y2311I45J297D01*
X18084Y2292I95J291D01*
X18046Y2268I113J220D01*
X18014Y2238I140J183D01*
X17991Y2206I143J127D01*
X17985Y2193I136J77D01*
X17980Y2181I137J63D01*
X17973Y2155I142J50D01*
X17971Y2128I168J28D01*
X17975Y2088I201D01*
X17987Y2045I255J51D01*
X18010Y2006I137J53D01*
X18054Y1962I227J181D01*
G01*
X18514Y1603D01*
G37*
%LPC*%
G36*
X4643Y1714D02*
G03*
X4669Y1714J1377D01*
X4706Y1715I52J2737D01*
X4742Y1717I49J1523D01*
X4790Y1720I143J2545D01*
X4826Y1725I22J300D01*
X4860Y1734I55J277D01*
X4870Y1738I89J268D01*
X4880Y1741I100J266D01*
X4919Y1763I82J196D01*
X4957Y1796I149J214D01*
X4987Y1836I140J135D01*
X5017Y1901I346J195D01*
X5028Y1946I227J84D01*
X5033Y2005I366J58D01*
X5032Y2019I113D01*
X5031Y2024I15J2D01*
X5017Y2111I328J6D01*
X4985Y2176I213J63D01*
X4970Y2195I180J128D01*
X4953Y2213I173J154D01*
X4952Y2214I170J188D01*
X4950Y2215I169J189D01*
X4868Y2264I170J192D01*
X4747Y2288I144J397D01*
X4700Y2290I97J1942D01*
X4655Y2291I45J1750D01*
G01*
X4504D01*
Y1714D01*
X4643D01*
G37*
G36*
X6273Y1093D02*
G03*
X6341Y1098J498D01*
X6402Y1111I57J414D01*
X6459Y1134I89J304D01*
X6506Y1165I121J231D01*
X6511Y1170I161J192D01*
X6516Y1174I166J187D01*
X6549Y1211I171J183D01*
X6576Y1257I236J169D01*
X6594Y1314I225J106D01*
X6602Y1388I373J74D01*
X6588Y1487I358D01*
X6553Y1556I201J58D01*
X6538Y1575I250J189D01*
X6521Y1592I228J203D01*
X6479Y1626I212J221D01*
X6428Y1654I192J288D01*
X6349Y1682I214J480D01*
X6256Y1700I179J669D01*
X6160Y1708I171J1388D01*
X6037Y1712I123J2269D01*
G01*
Y1093D01*
X6273D01*
G37*
G36*
X6202Y1780D02*
G03*
X6272Y1795I67J503D01*
X6333Y1817I117J418D01*
X6366Y1835I110J244D01*
X6395Y1856I131J208D01*
X6415Y1875I160J187D01*
X6433Y1896I189J176D01*
X6460Y1952I135J101D01*
X6472Y2035I299J84D01*
X6454Y2145I352D01*
X6414Y2213I174J57D01*
X6404Y2223I131J123D01*
X6394Y2231I124J136D01*
X6309Y2274I149J190D01*
X6174Y2293I135J484D01*
G01*
X6037D01*
Y1773D01*
G03*
X6131Y1775J2204D01*
X6202Y1780I54J1251D01*
G37*
G36*
X8716Y1714D02*
X8742Y1714J1377D01*
X8778Y1715I52J2737D01*
X8815Y1717I49J1523D01*
X8862Y1720I143J2545D01*
X8898Y1725I22J300D01*
X8933Y1734I55J277D01*
X8942Y1738I89J268D01*
X8952Y1741I100J266D01*
X8992Y1763I82J196D01*
X9030Y1796I149J214D01*
X9060Y1836I140J135D01*
X9089Y1901I346J195D01*
X9101Y1946I227J84D01*
X9106Y2005I366J58D01*
X9105Y2019I113D01*
X9103Y2024I15J2D01*
X9090Y2111I328J6D01*
X9058Y2176I213J63D01*
X9043Y2195I180J128D01*
X9025Y2213I173J154D01*
X9024Y2214I170J188D01*
X9023Y2215I169J189D01*
X8940Y2264I170J192D01*
X8820Y2288I144J397D01*
X8772Y2290I97J1942D01*
X8728Y2291I45J1750D01*
G01*
X8576D01*
Y1714D01*
X8716D01*
G37*
G36*
X13733Y1060D02*
G03*
X13836Y1068J617D01*
X13930Y1093I91J539D01*
X13946Y1099I185J514D01*
X13962Y1106I202J510D01*
X14022Y1136I234J540D01*
X14076Y1171I278J484D01*
X14113Y1201I333J448D01*
X14148Y1235I380J431D01*
X14217Y1324I393J376D01*
X14272Y1434I554J344D01*
X14305Y1553I594J228D01*
X14317Y1693I804J140D01*
X14305Y1832I816D01*
X14272Y1952I627J109D01*
X14217Y2062I609J234D01*
X14148Y2151I462J287D01*
X14113Y2185I415J397D01*
X14076Y2214I370J419D01*
X14022Y2250I333J448D01*
X13962Y2280I294J510D01*
X13946Y2287I218J503D01*
X13930Y2293I201J508D01*
X13836Y2317I185J514D01*
X13733Y2326I103J609D01*
X13636Y2318J622D01*
X13546Y2297I87J553D01*
X13524Y2289I177J531D01*
X13503Y2280I200J526D01*
X13437Y2247I233J543D01*
X13378Y2207I280J478D01*
X13346Y2180I339J438D01*
X13316Y2151I379J420D01*
X13247Y2062I393J376D01*
X13192Y1952I554J344D01*
X13159Y1832I594J228D01*
X13147Y1693I804J140D01*
X13159Y1553I816D01*
X13192Y1434I627J109D01*
X13247Y1324I609J234D01*
X13316Y1235I462J287D01*
X13346Y1206I409J391D01*
X13378Y1179I370J411D01*
X13437Y1139I339J438D01*
X13503Y1106I299J510D01*
X13524Y1097I222J518D01*
X13546Y1089I199J523D01*
X13636Y1067I177J531D01*
X13733Y1060I97J615D01*
G37*
G36*
X15495D02*
X15598Y1068J617D01*
X15692Y1093I91J539D01*
X15708Y1099I185J514D01*
X15724Y1106I202J510D01*
X15784Y1136I234J540D01*
X15838Y1171I278J484D01*
X15875Y1201I333J448D01*
X15910Y1235I380J431D01*
X15979Y1324I393J376D01*
X16034Y1434I554J344D01*
X16067Y1553I594J228D01*
X16079Y1693I804J140D01*
X16067Y1832I816D01*
X16034Y1952I627J109D01*
X15979Y2062I609J234D01*
X15910Y2151I462J287D01*
X15875Y2185I415J397D01*
X15838Y2214I370J419D01*
X15784Y2250I333J448D01*
X15724Y2280I294J510D01*
X15708Y2287I218J503D01*
X15692Y2293I201J508D01*
X15598Y2317I185J514D01*
X15495Y2326I103J609D01*
X15398Y2318J622D01*
X15309Y2297I87J553D01*
X15287Y2289I177J531D01*
X15265Y2280I200J526D01*
X15199Y2247I233J543D01*
X15140Y2207I280J478D01*
X15108Y2180I339J438D01*
X15078Y2151I379J420D01*
X15009Y2062I393J376D01*
X14954Y1952I554J344D01*
X14921Y1832I594J228D01*
X14909Y1693I804J140D01*
X14921Y1553I816D01*
X14954Y1434I627J109D01*
X15009Y1324I609J234D01*
X15078Y1235I462J287D01*
X15108Y1206I409J391D01*
X15140Y1179I370J411D01*
X15199Y1139I339J438D01*
X15265Y1106I299J510D01*
X15287Y1097I222J518D01*
X15309Y1089I199J523D01*
X15398Y1067I177J531D01*
X15495Y1060I97J615D01*
G37*
M02*
