%FSLAX24Y24*%
%MOIN*%
%LPD*%
G36*
X5567Y1183D02*
G01*
Y1185D01*
G74*
G03*
X5608Y1119I272J123D01*
X5652Y1081I129J105D01*
X5706Y1057I129J218D01*
X5751Y1050I45J147D01*
G01*
X5791D01*
Y989D01*
X5231D01*
Y1050D01*
X5272D01*
G03*
X5288Y1052J94D01*
X5302Y1056I14J81D01*
X5314Y1061I29J77D01*
X5326Y1069I45J79D01*
X5331Y1074I38J47D01*
X5335Y1078I41J41D01*
X5345Y1098I45J36D01*
X5350Y1126I93J28D01*
X5348Y1147I128D01*
X5343Y1169I140J23D01*
G01*
X5198Y1549D01*
X4606D01*
X4454Y1166D01*
Y1169D01*
G03*
X4449Y1142I256J70D01*
X4447Y1126I98J16D01*
X4451Y1100I95D01*
X4460Y1081I60J17D01*
X4466Y1074I51J36D01*
X4472Y1068I49J46D01*
X4487Y1058I61J76D01*
X4503Y1051I39J73D01*
X4515Y1049I23J80D01*
X4528Y1048I13J89D01*
G01*
X4568D01*
Y987D01*
X4065D01*
Y1048D01*
X4105D01*
G03*
X4150Y1055J153D01*
X4204Y1079I75J241D01*
X4248Y1116I87J148D01*
X4289Y1180I224J187D01*
G01*
X4287D01*
X4811Y2420D01*
G03*
X4834Y2473I2391J1087D01*
X4854Y2520I1918J822D01*
X4869Y2560I843J347D01*
X4883Y2602I900J321D01*
X4894Y2645I387J118D01*
X4896Y2671I135J26D01*
G01*
X4948D01*
X5567Y1183D01*
G37*
G36*
X6439Y2399D02*
G02*
X6558Y2389I19J968D01*
X6659Y2367I104J722D01*
X6756Y2330I182J617D01*
X6832Y2285I203J424D01*
X6882Y2241I238J323D01*
X6921Y2193I256J249D01*
X6932Y2175I295J200D01*
X6943Y2156I311J185D01*
X6945Y2152I297J153D01*
X6947Y2149I299J149D01*
X6972Y2074I301J146D01*
X6982Y1986I405J88D01*
X6972Y1886I521D01*
X6946Y1804I380J74D01*
X6903Y1730I353J156D01*
X6851Y1675I239J178D01*
X6787Y1632I287J357D01*
X6711Y1597I268J478D01*
X6709Y1596I159J426D01*
X6706Y1595I156J427D01*
X6628Y1575I154J428D01*
X6543Y1568I86J507D01*
X6482Y1573J369D01*
X6415Y1589I78J466D01*
X6350Y1613I293J910D01*
X6280Y1643I429J1063D01*
G01*
Y1679D01*
G03*
X6302Y1674I423J1903D01*
X6325Y1669I491J2334D01*
X6344Y1665I56J224D01*
X6369Y1662I60J373D01*
X6394Y1660I49J511D01*
X6420Y1660I26J558D01*
X6462Y1662J468D01*
X6511Y1668I57J622D01*
X6558Y1680I50J293D01*
X6606Y1701I115J332D01*
X6650Y1730I128J244D01*
X6695Y1772I232J291D01*
X6730Y1822I209J187D01*
X6762Y1891I387J218D01*
X6768Y1915I222J67D01*
X6773Y1948I415J78D01*
X6776Y1981I673J72D01*
X6776Y2009I491J28D01*
X6767Y2088I322D01*
X6740Y2151I228J58D01*
X6716Y2185I202J120D01*
X6685Y2215I200J173D01*
X6586Y2268I180J217D01*
X6434Y2291I153J508D01*
G01*
X6231D01*
Y1150D01*
G03*
X6234Y1126I123J6D01*
X6241Y1106I102J25D01*
X6251Y1090I95J45D01*
X6265Y1074I97J71D01*
X6278Y1063I79J82D01*
X6292Y1055I60J85D01*
X6316Y1046I47J93D01*
X6344Y1043I28J128D01*
G01*
X6396D01*
Y982D01*
X5879D01*
Y1043D01*
X5931D01*
G03*
X5960Y1047J129D01*
X5985Y1056I23J97D01*
X5997Y1064I47J87D01*
X6009Y1074I65J87D01*
X6021Y1088I84J84D01*
X6030Y1103I87J63D01*
X6038Y1125I96J48D01*
X6042Y1150I124J32D01*
G01*
Y2236D01*
G03*
X6039Y2254I109J6D01*
X6034Y2271I94J21D01*
X6023Y2290I89J38D01*
X6006Y2308I95J70D01*
X5993Y2318I80J90D01*
X5979Y2326I62J92D01*
X5955Y2335I48J100D01*
X5926Y2338I29J134D01*
G01*
X5874D01*
Y2402D01*
X6439Y2399D01*
G37*
G36*
X8132Y972D02*
X7166D01*
Y1034D01*
X7218D01*
G03*
X7248Y1037J129D01*
X7272Y1047I23J97D01*
X7284Y1054I47J87D01*
X7296Y1065I65J87D01*
X7308Y1079I84J84D01*
X7317Y1094I87J63D01*
X7325Y1115I96J48D01*
X7329Y1140I124J32D01*
G01*
Y2231D01*
G03*
X7327Y2251I105D01*
X7322Y2268I89J17D01*
X7312Y2286I84J34D01*
X7297Y2304I90J64D01*
X7286Y2313I77J83D01*
X7273Y2320I61J86D01*
X7248Y2330I49J94D01*
X7218Y2333I30J131D01*
G01*
X7166D01*
Y2394D01*
X7858D01*
G03*
X7891Y2396J513D01*
X7931Y2399I49J765D01*
X7972Y2405I152J1293D01*
X8011Y2411I184J1236D01*
X8049Y2419I211J1162D01*
X8081Y2426I173J798D01*
X8113Y2435I207J798D01*
X8132Y2442I90J296D01*
G01*
Y2132D01*
X8069D01*
Y2187D01*
G03*
X8066Y2208I109D01*
X8061Y2227I90J18D01*
X8053Y2241I84J37D01*
X8041Y2255I86J58D01*
X8031Y2264I74J71D01*
X8020Y2272I59J74D01*
X7998Y2281I48J82D01*
X7972Y2286I33J116D01*
G01*
X7516D01*
Y1743D01*
X7889D01*
G03*
X7920Y1749I7J107D01*
X7941Y1762I22J58D01*
X7943Y1765I42J45D01*
X7946Y1767I45J43D01*
X7953Y1777I64J54D01*
X7958Y1787I65J41D01*
X7963Y1803I70J31D01*
X7965Y1820I90J18D01*
G01*
Y1870D01*
X8028D01*
Y1509D01*
X7965D01*
Y1558D01*
G03*
X7962Y1580I94D01*
X7955Y1598I71J17D01*
X7951Y1604I65J34D01*
X7947Y1610I63J43D01*
X7946Y1612I49J40D01*
X7945Y1613I47J42D01*
X7925Y1627I47J43D01*
X7894Y1636I45J98D01*
G01*
X7518D01*
Y1093D01*
X7856D01*
G03*
X7933Y1101I17J568D01*
X7989Y1115I54J320D01*
X8043Y1140I124J344D01*
X8085Y1169I138J248D01*
X8122Y1204I196J238D01*
X8155Y1249I267J232D01*
X8182Y1297I616J385D01*
X8208Y1350I728J381D01*
G01*
X8274D01*
X8132Y972D01*
G37*
G36*
X9016Y2399D02*
G02*
X9228Y2365I17J787D01*
X9370Y2292I128J422D01*
X9418Y2247I224J288D01*
X9454Y2198I235J211D01*
X9489Y2114I272J163D01*
X9502Y2007I420J107D01*
X9498Y1949I408D01*
X9486Y1895I370J53D01*
X9483Y1884I358J107D01*
X9479Y1872I356J119D01*
X9465Y1840I372J138D01*
X9449Y1810I348J165D01*
X9432Y1783I332J195D01*
X9411Y1757I323J229D01*
X9399Y1743I325J273D01*
X9387Y1730I311J285D01*
X9350Y1697I298J298D01*
X9309Y1668I276J349D01*
X9305Y1666I218J352D01*
X9300Y1663I214J355D01*
X9243Y1635I210J357D01*
X9179Y1615I167J423D01*
X9213Y1585I276J345D01*
X9252Y1543I502J510D01*
X9289Y1498I965J835D01*
X9318Y1459I725J572D01*
G01*
Y1461D01*
G03*
X9349Y1417I1478J1011D01*
X9382Y1374I1420J1036D01*
X9411Y1337I1367J1025D01*
X9446Y1294I1837J1459D01*
X9481Y1251I3061J2551D01*
X9517Y1211I2833J2428D01*
X9550Y1174I1224J1071D01*
X9580Y1143I890J829D01*
X9612Y1113I338J338D01*
X9644Y1089I259J311D01*
X9654Y1083I148J217D01*
X9664Y1077I137J222D01*
X9689Y1065I127J228D01*
X9716Y1055I106J251D01*
X9756Y1047I72J239D01*
X9805Y1043I49J368D01*
G01*
Y982D01*
X9715D01*
G02*
X9617Y988J839D01*
X9545Y1002I54J458D01*
X9476Y1026I172J608D01*
X9422Y1053I162J392D01*
X9373Y1087I236J400D01*
X9336Y1120I197J252D01*
X9302Y1157I1812J1695D01*
X9273Y1190I1393J1252D01*
X9262Y1202I75J75D01*
X9226Y1255I1264J919D01*
G03*
X9190Y1307I2131J1421D01*
X9150Y1362I2344J1648D01*
G01*
X9046Y1509D01*
G03*
X9044Y1511I496J388D01*
X9042Y1514I493J390D01*
X8999Y1563I491J393D01*
X8950Y1608I468J461D01*
X8890Y1638I96J116D01*
X8768Y1653I122J495D01*
G01*
Y1152D01*
G03*
X8770Y1133I118J7D01*
X8776Y1115I103J23D01*
X8786Y1097I97J40D01*
X8801Y1079I102J69D01*
X8812Y1069I77J77D01*
X8825Y1061I59J79D01*
X8849Y1051I47J88D01*
X8879Y1048I29J125D01*
G01*
X8931D01*
Y987D01*
X8420D01*
Y1048D01*
X8472D01*
G03*
X8504Y1052J133D01*
X8529Y1062I24J98D01*
X8540Y1069I49J88D01*
X8550Y1078I64J86D01*
X8564Y1093I81J84D01*
X8574Y1110I82J59D01*
X8580Y1129I92J42D01*
X8583Y1150I113J27D01*
G01*
Y2239D01*
G03*
X8580Y2261I115J6D01*
X8573Y2280I93J24D01*
X8563Y2295I86J43D01*
X8550Y2309I88J67D01*
X8542Y2317I72J78D01*
X8532Y2323I60J82D01*
X8506Y2334I51J88D01*
X8472Y2338I33J133D01*
G01*
X8423D01*
Y2402D01*
X9016Y2399D01*
G37*
G36*
X10851Y2404D02*
G03*
X10884Y2405J513D01*
X10924Y2409I49J765D01*
X10964Y2414I152J1293D01*
X11004Y2420I184J1236D01*
X11042Y2428I235J1294D01*
X11076Y2436I203J952D01*
X11108Y2445I195J781D01*
X11128Y2451I80J270D01*
G01*
Y2142D01*
X11064D01*
Y2196D01*
G03*
X11062Y2217I109D01*
X11056Y2236I90J18D01*
X11048Y2251I84J37D01*
X11037Y2265I86J58D01*
X11027Y2274I74J71D01*
X11016Y2281I59J74D01*
X10994Y2291I48J82D01*
X10967Y2295I33J116D01*
G01*
X10572D01*
Y1150D01*
G03*
X10575Y1133I110J6D01*
X10579Y1118I98J21D01*
X10590Y1097I93J36D01*
X10608Y1076I102J71D01*
X10622Y1065I82J88D01*
X10638Y1056I61J90D01*
X10661Y1048I46J99D01*
X10688Y1046I27J130D01*
G01*
X10735D01*
Y984D01*
X10223D01*
Y1046D01*
X10270D01*
G03*
X10298Y1049J131D01*
X10322Y1057I23J102D01*
X10336Y1066I47J93D01*
X10349Y1076I66J93D01*
X10363Y1091I89J92D01*
X10373Y1108I92J69D01*
X10381Y1128I102J53D01*
X10386Y1152I128J38D01*
G01*
Y2295D01*
X9989D01*
G03*
X9961Y2290I7J118D01*
X9939Y2280I26J86D01*
X9929Y2273I48J76D01*
X9920Y2265I62J73D01*
X9911Y2252I76J70D01*
X9903Y2239I78J52D01*
X9897Y2219I85J39D01*
X9894Y2196I111J23D01*
G01*
Y2142D01*
X9828D01*
Y2451D01*
G03*
X9847Y2445I99J264D01*
X9880Y2436I228J772D01*
X9914Y2428I236J944D01*
X9952Y2420I274J1286D01*
X9991Y2414I224J1229D01*
X10031Y2409I192J1287D01*
X10072Y2405I90J761D01*
X10105Y2404I33J512D01*
G01*
X10851D01*
G37*
G36*
X12703Y2406D02*
Y2343D01*
X12649D01*
G03*
X12627Y2340J108D01*
X12609Y2334I18J88D01*
X12598Y2329I37J82D01*
X12587Y2321I51J82D01*
X12575Y2309I54J66D01*
X12567Y2296I55J45D01*
X12562Y2282I64J32D01*
X12559Y2267I81J21D01*
G01*
Y1492D01*
G02*
X12548Y1369I679D01*
X12518Y1268I490J90D01*
X12485Y1202I463J193D01*
X12444Y1145I392J236D01*
X12423Y1121I351J293D01*
X12400Y1099I336J323D01*
X12317Y1039I320J353D01*
X12213Y991I299J520D01*
X12101Y964I209J606D01*
X11966Y954I135J884D01*
X11715Y992J851D01*
X11545Y1084I146J472D01*
X11538Y1090I313J375D01*
X11531Y1095I320J370D01*
X11493Y1135I314J350D01*
X11459Y1177I333J294D01*
X11397Y1310I368J253D01*
X11373Y1487I638J177D01*
G01*
Y2262D01*
G03*
X11370Y2277I100J14D01*
X11365Y2290I88J26D01*
X11356Y2305I83J39D01*
X11344Y2319I86J63D01*
X11335Y2326I60J63D01*
X11326Y2332I48J66D01*
X11306Y2340I39J71D01*
X11281Y2343I25J104D01*
G01*
X11229D01*
Y2406D01*
X11704D01*
Y2343D01*
X11650D01*
G03*
X11632Y2341J99D01*
X11615Y2336I16J84D01*
X11602Y2329I32J79D01*
X11588Y2319I52J82D01*
X11574Y2303I65J72D01*
X11565Y2287I64J46D01*
X11562Y2275I73J29D01*
X11560Y2262I84J19D01*
G01*
Y1518D01*
G03*
X11590Y1317I675D01*
X11664Y1183I369J115D01*
X11666Y1181I292J247D01*
X11667Y1179I291J249D01*
X11702Y1144I274J238D01*
X11739Y1116I222J252D01*
X11837Y1072I185J282D01*
X11964Y1055I127J470D01*
X12141Y1081J612D01*
X12264Y1146I107J353D01*
X12278Y1158I228J286D01*
X12292Y1171I245J277D01*
X12312Y1192I261J266D01*
X12330Y1215I274J238D01*
X12388Y1330I294J217D01*
X12410Y1490I549J160D01*
G01*
Y2262D01*
G03*
X12408Y2276I85J6D01*
X12404Y2289I73J18D01*
X12395Y2304I68J31D01*
X12382Y2318I73J55D01*
X12370Y2327I63J73D01*
X12357Y2333I47J74D01*
X12340Y2338I34J81D01*
X12320Y2340I20J102D01*
G01*
X12266D01*
Y2402D01*
X12703Y2406D01*
G37*
G36*
X13457Y2399D02*
G02*
X13668Y2365I17J787D01*
X13811Y2292I128J422D01*
X13859Y2247I224J288D01*
X13895Y2198I235J211D01*
X13930Y2114I272J163D01*
X13943Y2007I420J107D01*
X13939Y1949I408D01*
X13927Y1895I370J53D01*
X13924Y1884I358J107D01*
X13920Y1872I356J119D01*
X13906Y1840I372J138D01*
X13890Y1810I348J165D01*
X13872Y1783I332J195D01*
X13852Y1757I323J229D01*
X13840Y1743I325J273D01*
X13828Y1730I311J285D01*
X13791Y1697I298J298D01*
X13750Y1668I276J349D01*
X13745Y1666I218J352D01*
X13741Y1663I214J355D01*
X13684Y1635I210J357D01*
X13620Y1615I167J423D01*
X13654Y1585I276J345D01*
X13693Y1543I502J510D01*
X13730Y1498I965J835D01*
X13759Y1459I725J572D01*
G01*
Y1461D01*
G03*
X13790Y1417I1478J1011D01*
X13823Y1374I1420J1036D01*
X13852Y1337I1367J1025D01*
X13887Y1294I1837J1459D01*
X13922Y1251I3061J2551D01*
X13957Y1211I2833J2428D01*
X13991Y1174I1224J1071D01*
X14021Y1143I890J829D01*
X14053Y1113I338J338D01*
X14085Y1089I259J311D01*
X14095Y1083I148J217D01*
X14105Y1077I137J222D01*
X14130Y1065I127J228D01*
X14157Y1055I106J251D01*
X14197Y1047I72J239D01*
X14246Y1043I49J368D01*
G01*
Y982D01*
X14156D01*
G02*
X14057Y988J839D01*
X13986Y1002I54J458D01*
X13917Y1026I172J608D01*
X13863Y1053I162J392D01*
X13813Y1087I236J400D01*
X13777Y1120I197J252D01*
X13743Y1157I1812J1695D01*
X13714Y1190I1393J1252D01*
X13703Y1202I75J75D01*
X13667Y1255I1264J919D01*
G03*
X13631Y1307I2131J1421D01*
X13591Y1362I2344J1648D01*
G01*
X13487Y1509D01*
G03*
X13485Y1511I496J388D01*
X13483Y1514I493J390D01*
X13440Y1563I491J393D01*
X13391Y1608I468J461D01*
X13331Y1638I96J116D01*
X13209Y1653I122J495D01*
G01*
Y1152D01*
G03*
X13211Y1133I118J7D01*
X13217Y1115I103J23D01*
X13227Y1097I97J40D01*
X13242Y1079I102J69D01*
X13253Y1069I77J77D01*
X13266Y1061I59J79D01*
X13290Y1051I47J88D01*
X13320Y1048I29J125D01*
G01*
X13372D01*
Y987D01*
X12861D01*
Y1048D01*
X12913D01*
G03*
X12945Y1052J133D01*
X12970Y1062I24J98D01*
X12981Y1069I49J88D01*
X12991Y1078I64J86D01*
X13005Y1093I81J84D01*
X13015Y1110I82J59D01*
X13021Y1129I92J42D01*
X13024Y1150I113J27D01*
G01*
Y2239D01*
G03*
X13021Y2261I115J6D01*
X13014Y2280I93J24D01*
X13004Y2295I86J43D01*
X12991Y2309I88J67D01*
X12983Y2317I72J78D01*
X12973Y2323I60J82D01*
X12947Y2334I51J88D01*
X12913Y2338I33J133D01*
G01*
X12864D01*
Y2402D01*
X13457Y2399D01*
G37*
G36*
X15344Y972D02*
X14378D01*
Y1034D01*
X14430D01*
G03*
X14459Y1037J129D01*
X14484Y1047I23J97D01*
X14496Y1054I47J87D01*
X14508Y1065I65J87D01*
X14520Y1079I84J84D01*
X14529Y1094I87J63D01*
X14537Y1115I96J48D01*
X14541Y1140I124J32D01*
G01*
Y2231D01*
G03*
X14539Y2251I105D01*
X14534Y2268I89J17D01*
X14524Y2286I84J34D01*
X14509Y2304I90J64D01*
X14497Y2313I77J83D01*
X14485Y2320I61J86D01*
X14460Y2330I49J94D01*
X14430Y2333I30J131D01*
G01*
X14378D01*
Y2394D01*
X15070D01*
G03*
X15103Y2396J513D01*
X15143Y2399I49J765D01*
X15183Y2405I152J1293D01*
X15222Y2411I184J1236D01*
X15261Y2419I211J1162D01*
X15293Y2426I173J798D01*
X15325Y2435I207J798D01*
X15344Y2442I90J296D01*
G01*
Y2132D01*
X15280D01*
Y2187D01*
G03*
X15278Y2208I109D01*
X15272Y2227I90J18D01*
X15264Y2241I84J37D01*
X15253Y2255I86J58D01*
X15243Y2264I74J71D01*
X15232Y2272I59J74D01*
X15210Y2281I48J82D01*
X15183Y2286I33J116D01*
G01*
X14728D01*
Y1743D01*
X15101D01*
G03*
X15132Y1749I7J107D01*
X15153Y1762I22J58D01*
X15155Y1765I42J45D01*
X15157Y1767I45J43D01*
X15164Y1777I64J54D01*
X15170Y1787I65J41D01*
X15175Y1803I70J31D01*
X15176Y1820I90J18D01*
G01*
Y1870D01*
X15240D01*
Y1509D01*
X15176D01*
Y1558D01*
G03*
X15174Y1580I94D01*
X15167Y1598I71J17D01*
X15163Y1604I65J34D01*
X15159Y1610I63J43D01*
X15158Y1612I49J40D01*
X15156Y1613I47J42D01*
X15136Y1627I47J43D01*
X15106Y1636I45J98D01*
G01*
X14730D01*
Y1093D01*
X15068D01*
G03*
X15145Y1101I17J568D01*
X15201Y1115I54J320D01*
X15254Y1140I124J344D01*
X15297Y1169I138J248D01*
X15334Y1204I196J238D01*
X15367Y1249I267J232D01*
X15394Y1297I616J385D01*
X15420Y1350I728J381D01*
G01*
X15486D01*
X15344Y972D01*
G37*
%LPC*%
G36*
X5158Y1657D02*
X4908Y2324D01*
X4646Y1657D01*
X5158D01*
G37*
G36*
X8907Y1714D02*
G03*
X8933Y1714J1377D01*
X8970Y1715I52J2737D01*
X9006Y1717I49J1523D01*
X9054Y1720I143J2545D01*
X9090Y1725I22J300D01*
X9124Y1734I55J277D01*
X9134Y1738I89J268D01*
X9143Y1741I100J266D01*
X9183Y1763I82J196D01*
X9221Y1796I149J214D01*
X9251Y1836I140J135D01*
X9280Y1901I346J195D01*
X9292Y1946I227J84D01*
X9297Y2005I366J58D01*
X9296Y2019I113D01*
X9294Y2024I15J2D01*
X9281Y2111I328J6D01*
X9249Y2176I213J63D01*
X9234Y2195I180J128D01*
X9217Y2213I173J154D01*
X9215Y2214I170J188D01*
X9214Y2215I169J189D01*
X9132Y2264I170J192D01*
X9011Y2288I144J397D01*
X8964Y2290I97J1942D01*
X8919Y2291I45J1750D01*
G01*
X8768D01*
Y1714D01*
X8907D01*
G37*
G36*
X13348D02*
G03*
X13374Y1714J1377D01*
X13411Y1715I52J2737D01*
X13447Y1717I49J1523D01*
X13494Y1720I143J2545D01*
X13531Y1725I22J300D01*
X13565Y1734I55J277D01*
X13575Y1738I89J268D01*
X13584Y1741I100J266D01*
X13624Y1763I82J196D01*
X13662Y1796I149J214D01*
X13692Y1836I140J135D01*
X13721Y1901I346J195D01*
X13733Y1946I227J84D01*
X13738Y2005I366J58D01*
X13737Y2019I113D01*
X13735Y2024I15J2D01*
X13722Y2111I328J6D01*
X13690Y2176I213J63D01*
X13675Y2195I180J128D01*
X13657Y2213I173J154D01*
X13656Y2214I170J188D01*
X13655Y2215I169J189D01*
X13573Y2264I170J192D01*
X13452Y2288I144J397D01*
X13405Y2290I97J1942D01*
X13360Y2291I45J1750D01*
G01*
X13209D01*
Y1714D01*
X13348D01*
G37*
M02*
