%FSLAX24Y24*%
%MOIN*%
%LPD*%
G36*
X8579Y1740D02*
G74*
G03*
X8529Y1732J152D01*
X8502Y1714I21J60D01*
X8489Y1691I47J41D01*
X8484Y1657I107J34D01*
G01*
Y1270D01*
G02*
X8439Y1216I517J388D01*
X8379Y1158I658J616D01*
X8313Y1107I413J465D01*
X8231Y1059I454J675D01*
X8144Y1020I373J726D01*
X8039Y987I387J1035D01*
X7930Y966I201J762D01*
X7799Y958I131J1110D01*
X7613Y975J1044D01*
X7453Y1021I148J821D01*
X7321Y1087I317J795D01*
X7211Y1170I394J640D01*
X7197Y1183I504J557D01*
X7184Y1196I519J545D01*
X7174Y1205I526J526D01*
X7165Y1215I535J516D01*
X7078Y1329I545J506D01*
X7009Y1466I728J452D01*
X6963Y1628I779J308D01*
X6946Y1818I1071J190D01*
X6963Y2009I1088D01*
X7009Y2170I825J147D01*
X7076Y2304I807J319D01*
X7160Y2417I648J397D01*
X7172Y2430I563J509D01*
X7184Y2442I553J523D01*
X7208Y2465I533J527D01*
X7234Y2488I504J546D01*
X7335Y2559I479J569D01*
X7452Y2617I421J713D01*
X7611Y2662I305J774D01*
X7797Y2678I186J1044D01*
X7988Y2664J1325D01*
X8129Y2630I109J746D01*
X8264Y2574I458J1307D01*
X8376Y2513I456J962D01*
G01*
X8425Y2156D01*
X8371D01*
G03*
X8310Y2305I630J171D01*
X8226Y2414I420J235D01*
X8199Y2439I335J344D01*
X8169Y2462I315J377D01*
X8168Y2462I296J416D01*
X8168Y2463I295J416D01*
X8011Y2538I296J419D01*
X7799Y2567I212J748D01*
X7667Y2554J680D01*
X7550Y2517I111J560D01*
X7545Y2515I227J523D01*
X7539Y2513I233J521D01*
X7477Y2480I254J553D01*
X7421Y2441I299J492D01*
X7378Y2403I355J454D01*
X7337Y2360I415J433D01*
X7265Y2256I473J404D01*
X7207Y2124I696J383D01*
X7174Y1984I790J263D01*
X7161Y1816I1125J168D01*
X7174Y1650I1081D01*
X7209Y1511I796J123D01*
X7267Y1381I750J259D01*
X7341Y1276I553J311D01*
X7380Y1234I481J417D01*
X7423Y1197I427J444D01*
X7480Y1156I385J481D01*
X7544Y1121I344J550D01*
X7564Y1112I255J530D01*
X7584Y1104I233J537D01*
X7687Y1074I213J545D01*
X7802Y1062I125J655D01*
X7873Y1066I14J814D01*
X7942Y1077I82J785D01*
X8009Y1093I151J775D01*
X8076Y1115I225J782D01*
X8202Y1176I304J792D01*
X8302Y1249I337J573D01*
G01*
Y1655D01*
G03*
X8297Y1688I111D01*
X8285Y1710I60J19D01*
X8257Y1729I49J42D01*
X8206Y1738I52J150D01*
G01*
X8170D01*
Y1792D01*
X8612D01*
Y1738D01*
X8579Y1740D01*
G37*
G36*
X9774Y972D02*
X8808D01*
Y1034D01*
X8860D01*
G03*
X8889Y1037J129D01*
X8914Y1047I23J97D01*
X8926Y1054I47J87D01*
X8938Y1065I65J87D01*
X8950Y1079I84J84D01*
X8959Y1094I87J63D01*
X8967Y1115I96J48D01*
X8971Y1140I124J32D01*
G01*
Y2231D01*
G03*
X8969Y2251I105D01*
X8964Y2268I89J17D01*
X8954Y2286I84J34D01*
X8939Y2304I90J64D01*
X8927Y2313I77J83D01*
X8915Y2320I61J86D01*
X8890Y2330I49J94D01*
X8860Y2333I30J131D01*
G01*
X8808D01*
Y2394D01*
X9500D01*
G03*
X9533Y2396J513D01*
X9573Y2399I49J765D01*
X9613Y2405I152J1293D01*
X9652Y2411I184J1236D01*
X9691Y2419I211J1162D01*
X9723Y2426I173J798D01*
X9755Y2435I207J798D01*
X9774Y2442I90J296D01*
G01*
Y2132D01*
X9710D01*
Y2187D01*
G03*
X9708Y2208I109D01*
X9702Y2227I90J18D01*
X9694Y2241I84J37D01*
X9683Y2255I86J58D01*
X9673Y2264I74J71D01*
X9662Y2272I59J74D01*
X9640Y2281I48J82D01*
X9613Y2286I33J116D01*
G01*
X9157D01*
Y1743D01*
X9531D01*
G03*
X9562Y1749I7J107D01*
X9582Y1762I22J58D01*
X9585Y1765I42J45D01*
X9587Y1767I45J43D01*
X9594Y1777I64J54D01*
X9600Y1787I65J41D01*
X9605Y1803I70J31D01*
X9606Y1820I90J18D01*
G01*
Y1870D01*
X9670D01*
Y1509D01*
X9606D01*
Y1558D01*
G03*
X9604Y1580I94D01*
X9597Y1598I71J17D01*
X9593Y1604I65J34D01*
X9589Y1610I63J43D01*
X9587Y1612I49J40D01*
X9586Y1613I47J42D01*
X9566Y1627I47J43D01*
X9535Y1636I45J98D01*
G01*
X9160D01*
Y1093D01*
X9498D01*
G03*
X9575Y1101I17J568D01*
X9631Y1115I54J320D01*
X9684Y1140I124J344D01*
X9727Y1169I138J248D01*
X9764Y1204I196J238D01*
X9796Y1249I267J232D01*
X9824Y1297I616J385D01*
X9850Y1350I728J381D01*
G01*
X9916D01*
X9774Y972D01*
G37*
G36*
X10657Y2399D02*
G02*
X10869Y2365I17J787D01*
X11012Y2292I128J422D01*
X11060Y2247I224J288D01*
X11096Y2198I235J211D01*
X11131Y2114I272J163D01*
X11144Y2007I420J107D01*
X11140Y1949I408D01*
X11128Y1895I370J53D01*
X11124Y1884I358J107D01*
X11120Y1872I356J119D01*
X11107Y1840I372J138D01*
X11091Y1810I348J165D01*
X11073Y1783I332J195D01*
X11053Y1757I323J229D01*
X11041Y1743I325J273D01*
X11029Y1730I311J285D01*
X10992Y1697I298J298D01*
X10950Y1668I276J349D01*
X10946Y1666I218J352D01*
X10942Y1663I214J355D01*
X10885Y1635I210J357D01*
X10820Y1615I167J423D01*
X10854Y1585I276J345D01*
X10894Y1543I502J510D01*
X10930Y1498I965J835D01*
X10960Y1459I725J572D01*
G01*
Y1461D01*
G03*
X10991Y1417I1478J1011D01*
X11024Y1374I1420J1036D01*
X11052Y1337I1367J1025D01*
X11087Y1294I1837J1459D01*
X11123Y1251I3061J2551D01*
X11158Y1211I2833J2428D01*
X11192Y1174I1224J1071D01*
X11222Y1143I890J829D01*
X11254Y1113I338J338D01*
X11286Y1089I259J311D01*
X11296Y1083I148J217D01*
X11306Y1077I137J222D01*
X11331Y1065I127J228D01*
X11358Y1055I106J251D01*
X11397Y1047I72J239D01*
X11446Y1043I49J368D01*
G01*
Y982D01*
X11357D01*
G02*
X11258Y988J839D01*
X11187Y1002I54J458D01*
X11117Y1026I172J608D01*
X11064Y1053I162J392D01*
X11014Y1087I236J400D01*
X10978Y1120I197J252D01*
X10944Y1157I1812J1695D01*
X10915Y1190I1393J1252D01*
X10904Y1202I75J75D01*
X10868Y1255I1264J919D01*
G03*
X10832Y1307I2131J1421D01*
X10792Y1362I2344J1648D01*
G01*
X10688Y1509D01*
G03*
X10686Y1511I496J388D01*
X10684Y1514I493J390D01*
X10641Y1563I491J393D01*
X10591Y1608I468J461D01*
X10532Y1638I96J116D01*
X10409Y1653I122J495D01*
G01*
Y1152D01*
G03*
X10412Y1133I118J7D01*
X10418Y1115I103J23D01*
X10428Y1097I97J40D01*
X10443Y1079I102J69D01*
X10454Y1069I77J77D01*
X10467Y1061I59J79D01*
X10491Y1051I47J88D01*
X10520Y1048I29J125D01*
G01*
X10572D01*
Y987D01*
X10062D01*
Y1048D01*
X10114D01*
G03*
X10145Y1052J133D01*
X10171Y1062I24J98D01*
X10182Y1069I49J88D01*
X10192Y1078I64J86D01*
X10206Y1093I81J84D01*
X10216Y1110I82J59D01*
X10222Y1129I92J42D01*
X10225Y1150I113J27D01*
G01*
Y2239D01*
G03*
X10222Y2261I115J6D01*
X10215Y2280I93J24D01*
X10205Y2295I86J43D01*
X10192Y2309I88J67D01*
X10183Y2317I72J78D01*
X10174Y2323I60J82D01*
X10147Y2334I51J88D01*
X10114Y2338I33J133D01*
G01*
X10065D01*
Y2402D01*
X10657Y2399D01*
G37*
G36*
X12082Y2402D02*
G02*
X12145Y2399J810D01*
X12232Y2390I119J1505D01*
X12288Y2379I74J543D01*
X12342Y2363I125J508D01*
X12369Y2352I179J492D01*
X12395Y2340I208J487D01*
X12415Y2330I152J309D01*
X12433Y2318I169J293D01*
X12482Y2279I188J281D01*
X12525Y2229I268J276D01*
X12562Y2151I196J142D01*
X12578Y2035I421J115D01*
X12573Y1984I288D01*
X12560Y1938I246J44D01*
X12543Y1903I233J90D01*
X12520Y1869I238J139D01*
X12479Y1825I342J274D01*
X12434Y1788I278J294D01*
X12409Y1771I233J331D01*
X12382Y1757I212J355D01*
X12498Y1713I140J543D01*
X12589Y1650I203J395D01*
X12605Y1635I293J332D01*
X12620Y1620I312J320D01*
X12664Y1562I275J256D01*
X12693Y1502I269J167D01*
X12708Y1448I298J107D01*
X12713Y1388I353J60D01*
X12698Y1274I451D01*
X12662Y1193I262J68D01*
X12630Y1151I345J228D01*
X12594Y1114I292J252D01*
X12565Y1091I255J289D01*
X12533Y1070I235J324D01*
X12452Y1032I263J445D01*
X12361Y1006I207J548D01*
X12266Y991I201J1003D01*
X12179Y987I87J837D01*
G01*
X11591D01*
Y1048D01*
X11638D01*
G03*
X11670Y1052J142D01*
X11697Y1062I25J107D01*
X11709Y1069I52J96D01*
X11720Y1079I68J95D01*
X11738Y1099I85J91D01*
X11749Y1120I82J57D01*
X11754Y1135I93J36D01*
X11756Y1152I108J23D01*
G01*
Y2236D01*
G03*
X11752Y2260I116J6D01*
X11744Y2281I92J25D01*
X11734Y2296I83J45D01*
X11720Y2309I84J69D01*
X11712Y2316I75J88D01*
X11704Y2321I65J91D01*
X11674Y2333I57J97D01*
X11638Y2338I37J147D01*
G01*
X11591D01*
Y2402D01*
X12082D01*
G37*
G36*
X13846Y972D02*
X12880D01*
Y1034D01*
X12932D01*
G03*
X12962Y1037J129D01*
X12986Y1047I23J97D01*
X12999Y1054I47J87D01*
X13010Y1065I65J87D01*
X13022Y1079I84J84D01*
X13032Y1094I87J63D01*
X13040Y1115I96J48D01*
X13043Y1140I124J32D01*
G01*
Y2231D01*
G03*
X13041Y2251I105J0D01*
X13036Y2268I89J17D01*
X13026Y2286I84J34D01*
X13011Y2304I90J64D01*
X13000Y2313I77J83D01*
X12988Y2320I61J86D01*
X12962Y2330I49J94D01*
X12932Y2333I30J131D01*
G01*
X12880D01*
Y2394D01*
X13572D01*
G03*
X13605Y2396J513D01*
X13646Y2399I49J765D01*
X13686Y2405I152J1293D01*
X13725Y2411I184J1236D01*
X13764Y2419I211J1162D01*
X13796Y2426I173J798D01*
X13827Y2435I207J798D01*
X13846Y2442I90J296D01*
G01*
Y2132D01*
X13783D01*
Y2187D01*
G03*
X13781Y2208I109D01*
X13775Y2227I90J18D01*
X13767Y2241I84J37D01*
X13756Y2255I86J58D01*
X13745Y2264I74J71D01*
X13735Y2272I59J74D01*
X13713Y2281I48J82D01*
X13686Y2286I33J116D01*
G01*
X13230D01*
Y1743D01*
X13603D01*
G03*
X13634Y1749I7J107D01*
X13655Y1762I22J58D01*
X13657Y1765I42J45D01*
X13660Y1767I45J43D01*
X13667Y1777I64J54D01*
X13672Y1787I65J41D01*
X13677Y1803I70J31D01*
X13679Y1820I90J18D01*
G01*
Y1870D01*
X13743D01*
Y1509D01*
X13679D01*
Y1558D01*
G03*
X13676Y1580I94D01*
X13670Y1598I71J17D01*
X13666Y1604I65J34D01*
X13661Y1610I63J43D01*
X13660Y1612I49J40D01*
X13659Y1613I47J42D01*
X13639Y1627I47J43D01*
X13608Y1636I45J98D01*
G01*
X13232D01*
Y1093D01*
X13570D01*
G03*
X13647Y1101I17J568D01*
X13704Y1115I54J320D01*
X13757Y1140I124J344D01*
X13799Y1169I138J248D01*
X13836Y1204I196J238D01*
X13869Y1249I267J232D01*
X13897Y1297I616J385D01*
X13922Y1350I728J381D01*
G01*
X13988D01*
X13846Y972D01*
G37*
G36*
X14730Y2399D02*
G02*
X14942Y2365I17J787D01*
X15084Y2292I128J422D01*
X15132Y2247I224J288D01*
X15168Y2198I235J211D01*
X15203Y2114I272J163D01*
X15217Y2007I420J107D01*
X15212Y1949I408D01*
X15200Y1895I370J53D01*
X15197Y1884I358J107D01*
X15193Y1872I356J119D01*
X15179Y1840I372J138D01*
X15163Y1810I348J165D01*
X15146Y1783I332J195D01*
X15126Y1757I323J229D01*
X15114Y1743I325J273D01*
X15101Y1730I311J285D01*
X15064Y1697I298J298D01*
X15023Y1668I276J349D01*
X15019Y1666I218J352D01*
X15015Y1663I214J355D01*
X14957Y1635I210J357D01*
X14893Y1615I167J423D01*
X14927Y1585I276J345D01*
X14966Y1543I502J510D01*
X15003Y1498I965J835D01*
X15032Y1459I725J572D01*
G01*
Y1461D01*
G03*
X15064Y1417I1478J1011D01*
X15096Y1374I1420J1036D01*
X15125Y1337I1367J1025D01*
X15160Y1294I1837J1459D01*
X15196Y1251I3061J2551D01*
X15231Y1211I2833J2428D01*
X15264Y1174I1224J1071D01*
X15294Y1143I890J829D01*
X15326Y1113I338J338D01*
X15358Y1089I259J311D01*
X15368Y1083I148J217D01*
X15378Y1077I137J222D01*
X15403Y1065I127J228D01*
X15430Y1055I106J251D01*
X15470Y1047I72J239D01*
X15519Y1043I49J368D01*
G01*
Y982D01*
X15429D01*
G02*
X15331Y988J839D01*
X15259Y1002I54J458D01*
X15190Y1026I172J608D01*
X15136Y1053I162J392D01*
X15087Y1087I236J400D01*
X15050Y1120I197J252D01*
X15016Y1157I1812J1695D01*
X14987Y1190I1393J1252D01*
X14977Y1202I75J75D01*
X14940Y1255I1264J919D01*
G03*
X14904Y1307I2131J1421D01*
X14865Y1362I2344J1648D01*
G01*
X14761Y1509D01*
G03*
X14759Y1511I496J388D01*
X14756Y1514I493J390D01*
X14713Y1563I491J393D01*
X14664Y1608I468J461D01*
X14604Y1638I96J116D01*
X14482Y1653I122J495D01*
G01*
Y1152D01*
G03*
X14485Y1133I118J7D01*
X14490Y1115I103J23D01*
X14500Y1097I97J40D01*
X14515Y1079I102J69D01*
X14527Y1069I77J77D01*
X14539Y1061I59J79D01*
X14563Y1051I47J88D01*
X14593Y1048I29J125D01*
G01*
X14645D01*
Y987D01*
X14135D01*
Y1048D01*
X14187D01*
G03*
X14218Y1052J133D01*
X14243Y1062I24J98D01*
X14254Y1069I49J88D01*
X14265Y1078I64J86D01*
X14278Y1093I81J84D01*
X14288Y1110I82J59D01*
X14295Y1129I92J42D01*
X14298Y1150I113J27D01*
G01*
Y2239D01*
G03*
X14294Y2261I115J6D01*
X14287Y2280I93J24D01*
X14278Y2295I86J43D01*
X14265Y2309I88J67D01*
X14256Y2317I72J78D01*
X14246Y2323I60J82D01*
X14220Y2334I51J88D01*
X14187Y2338I33J133D01*
G01*
X14137D01*
Y2402D01*
X14730Y2399D01*
G37*
G36*
X15665Y1721D02*
X16374D01*
X16388Y1669D01*
X16374Y1617D01*
X15665D01*
X15651Y1672D01*
X15665Y1721D01*
G37*
G36*
X17654Y1343D02*
X17515Y980D01*
X16549D01*
Y1041D01*
X16601D01*
G03*
X16630Y1044J129D01*
X16655Y1054I23J97D01*
X16667Y1062I47J87D01*
X16679Y1072I65J87D01*
X16691Y1086I84J84D01*
X16700Y1101I87J63D01*
X16708Y1122I96J48D01*
X16712Y1147I124J32D01*
G01*
Y2231D01*
G03*
X16710Y2247I107J6D01*
X16706Y2261I95J20D01*
X16694Y2283I92J34D01*
X16675Y2305I102J72D01*
X16659Y2317I85J95D01*
X16642Y2326I61J96D01*
X16619Y2333I44J105D01*
X16594Y2335I26J132D01*
G01*
X16546D01*
Y2399D01*
X17061D01*
Y2335D01*
X17014D01*
G03*
X16989Y2333J134D01*
X16966Y2326I22J112D01*
X16949Y2317I44J105D01*
X16933Y2305I69J107D01*
X16914Y2283I84J93D01*
X16902Y2261I80J56D01*
X16898Y2247I91J34D01*
X16896Y2231I105J21D01*
G01*
Y1093D01*
X17234D01*
G03*
X17308Y1100I17J542D01*
X17365Y1115I56J325D01*
X17418Y1140I121J335D01*
X17462Y1170I144J256D01*
X17474Y1180I220J266D01*
X17486Y1191I230J253D01*
X17510Y1219I242J242D01*
X17533Y1250I280J224D01*
X17560Y1297I496J318D01*
X17586Y1353I659J341D01*
G01*
X17654Y1343D01*
G37*
G36*
X18531Y2404D02*
G03*
X18564Y2405J513D01*
X18604Y2409I49J765D01*
X18644Y2414I152J1293D01*
X18683Y2420I184J1236D01*
X18722Y2428I235J1294D01*
X18755Y2436I203J952D01*
X18788Y2445I195J781D01*
X18807Y2451I80J270D01*
G01*
Y2142D01*
X18743D01*
Y2196D01*
G03*
X18741Y2217I109D01*
X18735Y2236I90J18D01*
X18727Y2251I84J37D01*
X18716Y2265I86J58D01*
X18706Y2274I74J71D01*
X18695Y2281I59J74D01*
X18673Y2291I48J82D01*
X18646Y2295I33J116D01*
G01*
X18252D01*
Y1150D01*
G03*
X18254Y1133I110J6D01*
X18259Y1118I98J21D01*
X18270Y1097I93J36D01*
X18287Y1076I102J71D01*
X18302Y1065I82J88D01*
X18317Y1056I61J90D01*
X18341Y1048I46J99D01*
X18368Y1046I27J130D01*
G01*
X18415D01*
Y984D01*
X17902D01*
Y1046D01*
X17950D01*
G03*
X17978Y1049J131D01*
X18002Y1057I23J102D01*
X18016Y1066I47J93D01*
X18029Y1076I66J93D01*
X18042Y1091I89J92D01*
X18052Y1108I92J69D01*
X18061Y1128I102J53D01*
X18065Y1152I128J38D01*
G01*
Y2295D01*
X17669D01*
G03*
X17641Y2290I7J118D01*
X17619Y2280I26J86D01*
X17609Y2273I48J76D01*
X17600Y2265I62J73D01*
X17590Y2252I76J70D01*
X17583Y2239I78J52D01*
X17576Y2219I85J39D01*
X17574Y2196I111J23D01*
G01*
Y2142D01*
X17508D01*
Y2451D01*
G03*
X17527Y2445I99J264D01*
X17560Y2436I228J772D01*
X17593Y2428I236J944D01*
X17632Y2420I274J1286D01*
X17671Y2414I224J1229D01*
X17711Y2409I192J1287D01*
X17751Y2405I90J761D01*
X17784Y2404I33J512D01*
G01*
X18531D01*
G37*
G36*
X19639Y2435D02*
G02*
X19801Y2420J941D01*
X19948Y2380I141J803D01*
X20067Y2324I298J790D01*
X20170Y2254I375J660D01*
X20186Y2241I478J590D01*
X20201Y2228I495J579D01*
X20239Y2191I482J534D01*
X20274Y2151I508J485D01*
X20327Y2077I543J446D01*
X20372Y1994I637J397D01*
X20418Y1855I589J271D01*
X20435Y1693I778J162D01*
X20418Y1531I795D01*
X20372Y1392I635J132D01*
X20327Y1309I682J314D01*
X20274Y1235I597J372D01*
X20239Y1195I543J446D01*
X20201Y1158I520J497D01*
X20186Y1145I510J565D01*
X20170Y1132I494J577D01*
X20067Y1061I478J590D01*
X19948Y1006I417J734D01*
X19801Y965I288J763D01*
X19639Y951I163J927D01*
X19477Y965J946D01*
X19331Y1004I142J819D01*
X19329Y1005I288J779D01*
X19328Y1006I289J779D01*
X19202Y1065I296J791D01*
X19095Y1140I375J650D01*
X19084Y1149I482J575D01*
X19074Y1158I493J567D01*
X19036Y1195I482J534D01*
X19001Y1235I508J485D01*
X18947Y1309I543J446D01*
X18903Y1392I637J397D01*
X18857Y1531I589J271D01*
X18840Y1693I778J162D01*
X18857Y1855I795D01*
X18903Y1994I635J132D01*
X18947Y2077I682J314D01*
X19001Y2151I597J372D01*
X19036Y2191I543J446D01*
X19074Y2228I520J497D01*
X19084Y2237I503J558D01*
X19095Y2246I492J566D01*
X19202Y2321I482J575D01*
X19328Y2380I422J732D01*
X19329Y2381I291J778D01*
X19331Y2381I289J779D01*
X19477Y2421I288J780D01*
X19639Y2435I161J932D01*
G37*
G36*
X21401D02*
X21564Y2420J941D01*
X21710Y2380I141J803D01*
X21829Y2324I298J790D01*
X21933Y2254I375J660D01*
X21948Y2241I478J590D01*
X21963Y2228I495J579D01*
X22001Y2191I482J534D01*
X22036Y2151I508J485D01*
X22090Y2077I543J446D01*
X22134Y1994I637J397D01*
X22180Y1855I589J271D01*
X22197Y1693I778J162D01*
X22180Y1531I795D01*
X22134Y1392I635J132D01*
X22090Y1309I682J314D01*
X22036Y1235I597J372D01*
X22001Y1195I543J446D01*
X21963Y1158I520J497D01*
X21948Y1145I510J565D01*
X21933Y1132I494J577D01*
X21829Y1061I478J590D01*
X21710Y1006I417J734D01*
X21564Y965I288J763D01*
X21401Y951I163J927D01*
X21240Y965J946D01*
X21093Y1004I142J819D01*
X21092Y1005I288J779D01*
X21090Y1006I289J779D01*
X20964Y1065I296J791D01*
X20857Y1140I375J650D01*
X20847Y1149I482J575D01*
X20836Y1158I493J567D01*
X20798Y1195I482J534D01*
X20763Y1235I508J485D01*
X20710Y1309I543J446D01*
X20665Y1392I637J397D01*
X20619Y1531I589J271D01*
X20602Y1693I778J162D01*
X20619Y1855I795D01*
X20665Y1994I635J132D01*
X20710Y2077I682J314D01*
X20763Y2151I597J372D01*
X20798Y2191I543J446D01*
X20836Y2228I520J497D01*
X20847Y2237I503J558D01*
X20857Y2246I492J566D01*
X20964Y2321I482J575D01*
X21090Y2380I422J732D01*
X21092Y2381I291J778D01*
X21093Y2381I289J779D01*
X21240Y2421I288J780D01*
X21401Y2435I161J932D01*
G37*
G36*
X23482Y1343D02*
G01*
X23343Y980D01*
X22376D01*
Y1041D01*
X22428D01*
G03*
X22458Y1044J129D01*
X22482Y1054I23J97D01*
X22495Y1062I47J87D01*
X22506Y1072I65J87D01*
X22518Y1086I84J84D01*
X22528Y1101I87J63D01*
X22536Y1122I96J48D01*
X22539Y1147I124J32D01*
G01*
Y2231D01*
G03*
X22537Y2247I107J6D01*
X22533Y2261I95J20D01*
X22522Y2283I92J34D01*
X22503Y2305I102J72D01*
X22487Y2317I85J95D01*
X22469Y2326I61J96D01*
X22447Y2333I44J105D01*
X22421Y2335I26J132D01*
G01*
X22374D01*
Y2399D01*
X22889D01*
Y2335D01*
X22842D01*
G03*
X22816Y2333J134D01*
X22794Y2326I22J112D01*
X22776Y2317I44J105D01*
X22760Y2305I69J107D01*
X22741Y2283I84J93D01*
X22730Y2261I80J56D01*
X22726Y2247I91J34D01*
X22724Y2231I105J21D01*
G01*
Y1093D01*
X23061D01*
G03*
X23136Y1100I17J542D01*
X23193Y1115I56J325D01*
X23246Y1140I121J335D01*
X23289Y1170I144J256D01*
X23302Y1180I220J266D01*
X23313Y1191I230J253D01*
X23338Y1219I242J242D01*
X23360Y1250I280J224D01*
X23388Y1297I496J318D01*
X23413Y1353I659J341D01*
G01*
X23482Y1343D01*
G37*
G36*
X24420Y1603D02*
G02*
X24437Y1587I173J208D01*
X24453Y1571I185J187D01*
X24481Y1530I201J170D01*
X24502Y1483I262J148D01*
X24523Y1408I495J176D01*
X24531Y1339I429J84D01*
X24528Y1291I363D01*
X24518Y1245I335J44D01*
X24509Y1216I325J90D01*
X24496Y1187I326J123D01*
X24477Y1152I378J183D01*
X24455Y1119I345J210D01*
X24431Y1091I323J242D01*
X24404Y1063I310J281D01*
X24402Y1062I277J302D01*
X24400Y1060I275J304D01*
X24340Y1015I274J306D01*
X24269Y980I243J399D01*
X24253Y974I160J407D01*
X24237Y968I144J410D01*
X24172Y954I128J415D01*
X24103Y949I69J471D01*
X24051Y950J814D01*
X23992Y956I68J1065D01*
X23933Y965I110J921D01*
X23878Y977I157J846D01*
X23823Y994I166J650D01*
X23772Y1014I199J572D01*
X23725Y1040I152J336D01*
X23690Y1067I137J212D01*
X23686Y1086I251J63D01*
X23683Y1108I342J59D01*
X23681Y1131I399J42D01*
X23680Y1157I532J26D01*
X23682Y1206I583D01*
X23690Y1268I912J78D01*
X23702Y1328I700J108D01*
X23718Y1383I589J144D01*
G01*
X23782D01*
G03*
X23780Y1362I1935J215D01*
X23778Y1348I856J86D01*
X23777Y1334I427J36D01*
X23777Y1324I189J9D01*
X23789Y1237I326D01*
X23820Y1171I210J59D01*
X23837Y1150I179J124D01*
X23857Y1130I172J155D01*
X23870Y1119I176J203D01*
X23883Y1110I161J210D01*
X23961Y1074I149J220D01*
X24065Y1060I104J378D01*
G01*
X24082D01*
G03*
X24210Y1082I17J487D01*
X24293Y1126I76J243D01*
X24321Y1153I136J170D01*
X24342Y1182I143J125D01*
X24362Y1232I164J96D01*
X24370Y1294I249J62D01*
X24367Y1331I239D01*
X24359Y1366I213J34D01*
X24356Y1374I204J68D01*
X24352Y1382I202J77D01*
X24330Y1420I156J67D01*
X24292Y1459I203J159D01*
G01*
X24294D01*
X23834Y1813D01*
G02*
X23775Y1879I238J276D01*
X23742Y1943I201J143D01*
X23723Y2015I537J179D01*
X23716Y2078I405J78D01*
X23718Y2116I340D01*
X23724Y2153I321J36D01*
X23733Y2185I315J73D01*
X23746Y2217I319J110D01*
X23766Y2254I319J148D01*
X23789Y2287I282J174D01*
X23809Y2310I259J207D01*
X23831Y2331I247J238D01*
X23889Y2372I259J297D01*
X23959Y2406I239J404D01*
X24034Y2427I146J377D01*
X24117Y2435I84J467D01*
X24195Y2433J1761D01*
X24251Y2429I40J902D01*
X24306Y2421I111J1043D01*
X24346Y2413I91J565D01*
G01*
X24439D01*
X24446Y2125D01*
X24380D01*
G03*
X24370Y2193I252D01*
X24346Y2244I161J45D01*
X24334Y2259I136J95D01*
X24320Y2273I131J116D01*
X24255Y2309I112J124D01*
X24136Y2326I119J412D01*
X24083Y2322J359D01*
X24035Y2311I45J297D01*
X23989Y2292I95J291D01*
X23952Y2268I113J220D01*
X23920Y2238I140J183D01*
X23896Y2206I143J127D01*
X23890Y2193I136J77D01*
X23885Y2181I137J63D01*
X23879Y2155I142J50D01*
X23876Y2128I168J28D01*
X23880Y2088I201D01*
X23893Y2045I255J51D01*
X23915Y2006I137J53D01*
X23959Y1962I227J181D01*
G01*
X24420Y1603D01*
G37*
%LPC*%
G36*
X10549Y1714D02*
G03*
X10575Y1714J1377D01*
X10611Y1715I52J2737D01*
X10648Y1717I49J1523D01*
X10695Y1720I143J2545D01*
X10731Y1725I22J300D01*
X10766Y1734I55J277D01*
X10775Y1738I89J268D01*
X10785Y1741I100J266D01*
X10825Y1763I82J196D01*
X10863Y1796I149J214D01*
X10893Y1836I140J135D01*
X10922Y1901I346J195D01*
X10934Y1946I227J84D01*
X10939Y2005I366J58D01*
X10938Y2019I113D01*
X10936Y2024I15J2D01*
X10923Y2111I328J6D01*
X10891Y2176I213J63D01*
X10876Y2195I180J128D01*
X10858Y2213I173J154D01*
X10857Y2214I170J188D01*
X10856Y2215I169J189D01*
X10774Y2264I170J192D01*
X10653Y2288I144J397D01*
X10605Y2290I97J1942D01*
X10561Y2291I45J1750D01*
G01*
X10409D01*
Y1714D01*
X10549D01*
G37*
G36*
X12179Y1093D02*
G03*
X12247Y1098J498D01*
X12307Y1111I57J414D01*
X12365Y1134I89J304D01*
X12411Y1165I121J231D01*
X12417Y1170I161J192D01*
X12422Y1174I166J187D01*
X12454Y1211I171J183D01*
X12481Y1257I236J169D01*
X12500Y1314I225J106D01*
X12507Y1388I373J74D01*
X12493Y1487I358D01*
X12459Y1556I201J58D01*
X12443Y1575I250J189D01*
X12427Y1592I228J203D01*
X12384Y1626I212J221D01*
X12333Y1654I192J288D01*
X12255Y1682I214J480D01*
X12161Y1700I179J669D01*
X12065Y1708I171J1388D01*
X11943Y1712I123J2269D01*
G01*
Y1093D01*
X12179D01*
G37*
G36*
X12108Y1780D02*
G03*
X12177Y1795I67J503D01*
X12239Y1817I117J418D01*
X12272Y1835I110J244D01*
X12301Y1856I131J208D01*
X12320Y1875I160J187D01*
X12338Y1896I189J176D01*
X12366Y1952I135J101D01*
X12377Y2035I299J84D01*
X12360Y2145I352D01*
X12319Y2213I174J57D01*
X12310Y2223I131J123D01*
X12299Y2231I124J136D01*
X12215Y2274I149J190D01*
X12080Y2293I135J484D01*
G01*
X11943D01*
Y1773D01*
G03*
X12037Y1775J2204D01*
X12108Y1780I54J1251D01*
G37*
G36*
X14621Y1714D02*
X14647Y1714J1377D01*
X14684Y1715I52J2737D01*
X14720Y1717I49J1523D01*
X14768Y1720I143J2545D01*
X14804Y1725I22J300D01*
X14838Y1734I55J277D01*
X14848Y1738I89J268D01*
X14857Y1741I100J266D01*
X14897Y1763I82J196D01*
X14935Y1796I149J214D01*
X14965Y1836I140J135D01*
X14994Y1901I346J195D01*
X15006Y1946I227J84D01*
X15011Y2005I366J58D01*
X15010Y2019I113D01*
X15009Y2024I15J2D01*
X14995Y2111I328J6D01*
X14963Y2176I213J63D01*
X14948Y2195I180J128D01*
X14931Y2213I173J154D01*
X14930Y2214I170J188D01*
X14928Y2215I169J189D01*
X14846Y2264I170J192D01*
X14725Y2288I144J397D01*
X14678Y2290I97J1942D01*
X14633Y2291I45J1750D01*
G01*
X14482D01*
Y1714D01*
X14621D01*
G37*
G36*
X19639Y1060D02*
G03*
X19741Y1068J617D01*
X19835Y1093I91J539D01*
X19851Y1099I185J514D01*
X19868Y1106I202J510D01*
X19927Y1136I234J540D01*
X19981Y1171I278J484D01*
X20018Y1201I333J448D01*
X20053Y1235I380J431D01*
X20122Y1324I393J376D01*
X20177Y1434I554J344D01*
X20210Y1553I594J228D01*
X20222Y1693I804J140D01*
X20210Y1832I816D01*
X20177Y1952I627J109D01*
X20122Y2062I609J234D01*
X20053Y2151I462J287D01*
X20018Y2185I415J397D01*
X19981Y2214I370J419D01*
X19927Y2250I333J448D01*
X19868Y2280I294J510D01*
X19851Y2287I218J503D01*
X19835Y2293I201J508D01*
X19741Y2317I185J514D01*
X19639Y2326I103J609D01*
X19542Y2318J622D01*
X19452Y2297I87J553D01*
X19430Y2289I177J531D01*
X19408Y2280I200J526D01*
X19342Y2247I233J543D01*
X19283Y2207I280J478D01*
X19252Y2180I339J438D01*
X19222Y2151I379J420D01*
X19153Y2062I393J376D01*
X19098Y1952I554J344D01*
X19065Y1832I594J228D01*
X19053Y1693I804J140D01*
X19065Y1553I816D01*
X19098Y1434I627J109D01*
X19153Y1324I609J234D01*
X19222Y1235I462J287D01*
X19252Y1206I409J391D01*
X19283Y1179I370J411D01*
X19342Y1139I339J438D01*
X19408Y1106I299J510D01*
X19430Y1097I222J518D01*
X19452Y1089I199J523D01*
X19542Y1067I177J531D01*
X19639Y1060I97J615D01*
G37*
G36*
X21401D02*
X21503Y1068J617D01*
X21597Y1093I91J539D01*
X21614Y1099I185J514D01*
X21630Y1106I202J510D01*
X21689Y1136I234J540D01*
X21744Y1171I278J484D01*
X21781Y1201I333J448D01*
X21815Y1235I380J431D01*
X21884Y1324I393J376D01*
X21939Y1434I554J344D01*
X21972Y1553I594J228D01*
X21984Y1693I804J140D01*
X21972Y1832I816D01*
X21939Y1952I627J109D01*
X21884Y2062I609J234D01*
X21815Y2151I462J287D01*
X21781Y2185I415J397D01*
X21744Y2214I370J419D01*
X21689Y2250I333J448D01*
X21630Y2280I294J510D01*
X21614Y2287I218J503D01*
X21597Y2293I201J508D01*
X21503Y2317I185J514D01*
X21401Y2326I103J609D01*
X21304Y2318J622D01*
X21214Y2297I87J553D01*
X21192Y2289I177J531D01*
X21170Y2280I200J526D01*
X21105Y2247I233J543D01*
X21046Y2207I280J478D01*
X21014Y2180I339J438D01*
X20984Y2151I379J420D01*
X20915Y2062I393J376D01*
X20860Y1952I554J344D01*
X20827Y1832I594J228D01*
X20815Y1693I804J140D01*
X20827Y1553I816D01*
X20860Y1434I627J109D01*
X20915Y1324I609J234D01*
X20984Y1235I462J287D01*
X21014Y1206I409J391D01*
X21046Y1179I370J411D01*
X21105Y1139I339J438D01*
X21170Y1106I299J510D01*
X21192Y1097I222J518D01*
X21214Y1089I199J523D01*
X21304Y1067I177J531D01*
X21401Y1060I97J615D01*
G37*
M02*
