%FSTAX24Y24*%
%MOMM*%
%ADD10C,4*%
%ADD11C,2*%
%ADD12C,0.5*%
%LPD*%
D10*
Y24D02*
G01*
X14D01*
X66D02*
X52D01*
D11*
X33Y11D02*
Y12D01*
Y205D01*
Y275D02*
Y36D01*
D12*
X32Y22D03*
X34D03*
X32Y23D03*
X34D03*
X32Y24D03*
X34D03*
X32Y25D03*
X34D03*
X32Y26D03*
X34D03*
D11*
X33Y36D02*
Y37D01*
X-01Y11D02*
X0D01*
X125D01*
X195D02*
X32D01*
D12*
X14Y1D03*
Y12D03*
X15Y1D03*
Y12D03*
X16Y1D03*
Y12D03*
X17Y1D03*
Y12D03*
X18Y1D03*
Y12D03*
D11*
X32Y11D02*
X34D01*
X465D01*
X535D02*
X66D01*
D12*
X48Y1D03*
Y12D03*
X49Y1D03*
Y12D03*
X5Y1D03*
Y12D03*
X51Y1D03*
Y12D03*
X52Y1D03*
Y12D03*
D11*
X66Y11D02*
X67D01*
X-01Y37D02*
X0D01*
X125D01*
X195D02*
X32D01*
D12*
X14Y36D03*
Y38D03*
X15Y36D03*
Y38D03*
X16Y36D03*
Y38D03*
X17Y36D03*
Y38D03*
X18Y36D03*
Y38D03*
D11*
X32Y37D02*
X34D01*
X465D01*
X535D02*
X66D01*
D12*
X48Y36D03*
Y38D03*
X49Y36D03*
Y38D03*
X5Y36D03*
Y38D03*
X51Y36D03*
Y38D03*
X52Y36D03*
Y38D03*
D11*
X66Y37D02*
X67D01*
M02*
