%FSLAX24Y24*%
%MOIN*%
%ADD10C,0.2*%
%ADD11C,0.078740157480315*%
%ADD12C,0.019685039370079*%
%LPD*%
D10*
X5000D02*
G01*
Y2500D01*
X20787Y5000D02*
X18287D01*
D11*
X10394Y-394D02*
Y0D01*
Y3622D01*
Y6378D02*
Y10000D01*
D12*
X10000Y4213D03*
X10787D03*
X10000Y4606D03*
X10787D03*
X10000Y5000D03*
X10787D03*
X10000Y5394D03*
X10787D03*
X10000Y5787D03*
X10787D03*
D11*
X10394Y10000D02*
Y10394D01*
D10*
X0Y15787D02*
X2500D01*
X15787Y20787D02*
Y18287D01*
D11*
X10394Y10394D02*
Y10787D01*
Y14409D01*
Y17165D02*
Y20787D01*
D12*
X10000Y15000D03*
X10787D03*
X10000Y15394D03*
X10787D03*
X10000Y15787D03*
X10787D03*
X10000Y16181D03*
X10787D03*
X10000Y16575D03*
X10787D03*
D11*
X10394Y20787D02*
Y21181D01*
X-394Y10394D02*
X0D01*
X3622D01*
X6378D02*
X10000D01*
D12*
X4213Y10000D03*
Y10787D03*
X4606Y10000D03*
Y10787D03*
X5000Y10000D03*
Y10787D03*
X5394Y10000D03*
Y10787D03*
X5787Y10000D03*
Y10787D03*
D11*
X10000Y10394D02*
X10787D01*
X14409D01*
X17165D02*
X20787D01*
D12*
X15000Y10000D03*
Y10787D03*
X15394Y10000D03*
Y10787D03*
X15787Y10000D03*
Y10787D03*
X16181Y10000D03*
Y10787D03*
X16575Y10000D03*
Y10787D03*
D11*
X20787Y10394D02*
X21181D01*
M02*
