%FSLAX21Y21*%
%MOMM*%
%ADD10C,4*%
%ADD11C,2*%
%ADD12C,0.5*%
%LPD*%
D10*
Y240D02*
G01*
X140D01*
X660D02*
X520D01*
D11*
X330Y110D02*
Y120D01*
Y205D01*
Y275D02*
Y360D01*
D12*
X320Y220D03*
X340D03*
X320Y230D03*
X340D03*
X320Y240D03*
X340D03*
X320Y250D03*
X340D03*
X320Y260D03*
X340D03*
D11*
X330Y360D02*
Y370D01*
X-10Y110D02*
X0D01*
X125D01*
X195D02*
X320D01*
D12*
X140Y100D03*
Y120D03*
X150Y100D03*
Y120D03*
X160Y100D03*
Y120D03*
X170Y100D03*
Y120D03*
X180Y100D03*
Y120D03*
D11*
X320Y110D02*
X340D01*
X465D01*
X535D02*
X660D01*
D12*
X480Y100D03*
Y120D03*
X490Y100D03*
Y120D03*
X500Y100D03*
Y120D03*
X510Y100D03*
Y120D03*
X520Y100D03*
Y120D03*
D11*
X660Y110D02*
X670D01*
X-10Y370D02*
X0D01*
X125D01*
X195D02*
X320D01*
D12*
X140Y360D03*
Y380D03*
X150Y360D03*
Y380D03*
X160Y360D03*
Y380D03*
X170Y360D03*
Y380D03*
X180Y360D03*
Y380D03*
D11*
X320Y370D02*
X340D01*
X465D01*
X535D02*
X660D01*
D12*
X480Y360D03*
Y380D03*
X490Y360D03*
Y380D03*
X500Y360D03*
Y380D03*
X510Y360D03*
Y380D03*
X520Y360D03*
Y380D03*
D11*
X660Y370D02*
X670D01*
M02*
